<svg xmlns:dc="http://purl.org/dc/elements/1.1/" xmlns:cc="http://creativecommons.org/ns#" xmlns:rdf="http://www.w3.org/1999/02/22-rdf-syntax-ns#" xmlns:svg="http://www.w3.org/2000/svg" xmlns="http://www.w3.org/2000/svg" version="1.1" width="700" height="600" id="svg1">
  <metadata id="metadata1">
    <rdf:RDF>
      <cc:Work rdf:about="">
        <dc:format>image/svg+xml</dc:format>
        <dc:type rdf:resource="http://purl.org/dc/dcmitype/StillImage"/>
        <dc:title/>
      </cc:Work>
    </rdf:RDF>
  </metadata>
  <style type="text/css">
  <![CDATA[
  text{
    font-family:DejaVu Sans;
  }
  rect,.T{
    stroke:#010101;
    stroke-width:0;
  }
  .T845,#r845{
    fill: #1346a4;
  }
  .T851,#r851{
    fill: #4369b0;
  }
  .T863,#r863{
    fill: #7d7d7d;
  }
  .T867,#r867{
    fill: #7d7d7d;
  }
  .Fond{
    fill:#7d7d7d;
  }
  ]]>
  </style>
  <rect width="700" height="600" id="rMer" style="fill:#c7ecff"/>
  <g id="gTerritoire">
    <path d="m 357.9,5.4079 c 2.96,0.089 0.27,0.7807 -0.1,2.2095 -0.95,1.0563 -2.58,1.1705 -3.57,2.2295 -1.12,0.6211 -3.75,0.8491 -3.33,-1.1173 0.83,-1.712 3.08,-2.9671 4.91,-1.9154 0.52,-0.9803 1.91,-0.8628 2.07,-1.4063 z" id="pAlderney" class="T T867"/>
    <path d="m 319.13,46.455 c -0.32,1.382 -1.51,2.27 -1.86,3.55 -1.86,1.009 -1.83,3.385 -1.34,5.135 -0.42,1.451 0.16,3.109 -0.19,4.426 -0.95,-0.704 -2.23,-0.255 -3.43,0.467 -1.28,-0.95 -2.61,-0.654 -3.86,0.159 -2.47,-0.284 -4.91,-0.857 -7.42,-0.652 -1.67,0.248 -2.72,-2.62 -0.68,-2.574 2.09,-0.22 0.28,-1.801 0.57,-2.929 1.06,-0.698 2.36,-1.216 3.61,-1.461 2.01,1.029 1.75,-1.718 2.95,-1.916 1.72,0.02 1.73,-1.964 2.7,-2.787 1.12,-1.042 2.47,-1.11 3.89,-0.974 -0.29,-1.734 1.33,-2.427 2.95,-1.896 1.27,-0.101 2.39,-0.211 2.11,1.452 z" id="pGuernsey" class="T T867"/>
    <path d="m 325.65,50.073 c 0.63,1.114 -0.98,3.889 -1.04,1.459 -0.31,-0.866 -0.11,-3.229 1.04,-1.459 z" id="pHerm" class="T T867"/>
    <path d="m 337.48,57.442 c 1.27,1.392 -0.52,2.084 -1.53,2.733 -0.29,0.86 -1.78,3.262 -2.05,1.198 1.48,-1.065 -0.13,-2.535 0.89,-3.816 -0.13,-1.35 1.95,-2.859 2.05,-0.801 0.21,0.233 0.39,0.497 0.64,0.686 z" id="pSark" class="T T867"/>
    <path d="m 367.68,90.702 c 0.39,1.27 1.35,2.713 2.88,1.959 1.5,-0.476 2.77,0.08 3.79,1.172 2.03,0.518 0,2.744 1.1,3.964 1.39,1.444 -0.9,2.014 -1,3.353 -0.55,1.54 0.64,3.05 0.19,4.56 -1.43,0.88 -2.75,-1.47 -4.12,-0.1 -1.31,1.21 -2.4,-0.32 -2.97,-1.41 -0.95,-1.07 -3.22,0.1 -3.43,-1.91 -1.09,-1.91 -4.82,-2.894 -5.92,-0.5 -0.59,0.91 0.49,3.76 -0.71,3.37 -1.87,0.1 -1.2,-1.76 -2.06,-2.76 -1.48,-0.31 -2.2,2.19 -3.85,1.37 -1.99,-0.19 -1.72,-1.11 -0.58,-2.27 1.03,-2.325 0.24,-4.839 -1.07,-6.854 -0.96,-1.273 -2.61,-3.486 -0.83,-4.786 1.71,-0.601 3.74,-0.17 5.04,1.125 1.72,0.586 3.25,-0.28 4.49,-1.394 1.33,-0.447 2.7,0.788 4.13,0.81 1.41,1.006 2.77,-0.1 4.14,-0.412 0.31,0.177 0.58,0.375 0.78,0.683 z" id="pJersey" class="T T867"/>
    <path d="m 260.91,159.25 c -0.32,1.07 -1,2.16 -1.31,3.45 0,2.24 -2.55,0 -1.47,-1.12 0.39,-1.36 -0.91,-1.81 1.26,-2.21 0.51,-0.54 0.92,-0.58 1.52,-0.12 z" id="pBréhat" class="T T845"/>
    <path d="m 139.77,176.42 c 0.68,0.28 3.06,1.83 2.2,2.34 -1.24,-0.49 -2.56,-1.16 -4.01,-0.71 -1.78,-1.44 1.09,-1.15 1.81,-1.63 z" id="pBatz" class="T T845"/>
    <path d="m 15.265,221.5 c -1.329,1.72 2.99,2.04 0.884,2.4 -1.742,-0.47 -1.064,2.7 -2.949,1.74 -1.863,-0.73 -2.412,2.09 -4.2964,1.91 -1.9397,-0.42 1.8374,-1.06 1.2604,-2.28 -0.6362,-1.52 -2.7792,-0.29 -4.0027,-0.16 -2.2059,0.79 -0.7113,-1.67 0.5548,-1.88 1.4187,-0.32 1.742,-2.07 3.3749,-1.47 1.348,-0.1 2.353,-0.68 3.335,-1.28 0.823,0 1.184,0.91 1.839,1.02 z" id="pOuessant" class="T T845"/>
    <path d="m 25.591,235.17 c 0.661,2.45 -2.64,0.42 -0.212,0 l 0.212,0 z" id="pMolène" class="T T845"/>
    <path d="m 196.93,374.31 c 2.38,-0.7 3.81,2.27 6.24,1.77 1.61,-0.19 3.09,2.02 1.96,3.43 -1.33,-0.39 -2.77,-1.02 -4.36,-0.43 -2.32,0.1 -4.08,-1.94 -5.64,-3.44 -0.89,-1.57 0.64,-1.7 1.8,-1.33 z" id="pGroix" class="T T845"/>
    <path d="m 226.83,422.41 c 1.3,0.69 2.56,0.85 3.44,1.84 1.57,-0.14 2.24,1.79 3.9,1.51 1.38,0.1 2.99,0.75 2.69,2.42 1.02,0.88 0.54,3.2 2.06,3.33 2.16,-0.24 2.13,2.99 4.3,2.87 1.4,0.26 3.34,-0.52 4.4,0.46 0,1.28 -0.71,2.62 -1.78,3.43 -0.1,1.46 -1.27,2.84 -2.59,1.52 -1.17,-0.87 -2.88,-2.04 -4.09,-0.53 -1.22,-0.41 -2.42,-1.06 -3.64,-1.63 -1.19,-0.27 -2.43,0.41 -3.81,0 -1.47,0.7 -3.19,0 -3.88,-1.4 -1.39,-0.58 -1.99,-1.81 -1.21,-3.12 0,-1.87 -2.01,-3.11 -1.67,-5.04 -1.11,-0.91 -1.46,-2.47 -0.93,-3.79 1.82,0.85 -0.1,-3.03 1.49,-2.87 0.67,0.1 0.57,0.92 1.32,1.04 z" id="pBelleIle" class="T T845"/>
    <path d="m 257.91,420.51 c 1.16,0.94 2.56,1.21 4,0.84 -1.15,1 -1.3,1.7 -3.24,0.79 -1.38,0.18 -2.75,-2.49 -0.94,-1.88 l 0.16,0.22 0,0 z" id="pHouat" class="T T845"/>
    <path d="m 270.68,430.11 c 1.72,-0.18 2.93,0.73 0.66,1.21 -1.44,0.86 -3.18,-1.38 -0.66,-1.21 z" id="pHoedic" class="T T845"/>
    <path d="m 276.09,385.34 c 2.01,1.1 1.12,1.43 -0.8,1.35 -1.63,0.84 0.2,2.54 -1.09,3.5 -0.65,2 -0.6,-1.51 -0.27,-2.27 0,-1.53 0.7,-3.02 1.86,-4 0.8,0.17 -0.82,1.14 0.3,1.42 z" id="pMoines" class="T T845"/>
    <path d="m 281.62,384.73 c 0.84,0.74 1.99,3.16 0.32,1.44 -1.17,-0.67 -2.23,2.61 -2.35,1.04 -0.63,-2.23 1.04,-1.47 1.3,-3.14 0.18,-0.6 0.41,0.68 0.73,0.66 z" id="pArz" class="T T845"/>
    <path d="m 239.9,364.92 c 1.84,0.9 -0.5,2.22 -1.65,2.26 -0.44,-0.22 1.49,-2 1.16,-2.98 0.33,-0.13 0.3,0.57 0.49,0.72 z" id="pLocoal" class="T T845"/>
    <path d="m 356.96,508.39 c -1.65,-3.07 -2.3,-7.07 -5.55,-8.97 -1.94,-0.77 -4.02,-0.3 -5.99,-0.3 -2.1,-0.96 -1.62,-3.89 -2.18,-5.77 -0.37,-2.1 -1.33,-4.03 -2.68,-5.65 0.73,-0.88 2.61,0.86 3.81,-0.21 2.75,-1 6.04,0.16 7.95,2.26 1.07,1.73 0,3.78 -0.46,5.5 -0.1,1.97 2.57,1.48 3.21,3.04 1.32,1.46 3.66,2.02 4.17,4.04 0.86,1.91 0.52,4.3 0,6.28 -0.48,1.92 -1.61,0.68 -2.26,-0.22 z" id="pNoirmoutier" class="T Fond"/>
    <path d="m 330.82,545.9 c -0.85,-1.37 -2.74,-3.13 -1.44,-4.77 1.29,-0.69 2.49,-1.95 4.07,-1.12 1.36,0.48 2.63,1.12 3.63,2.18 1.45,0.2 2.48,1.05 3.29,2.21 1.13,0.55 2.93,1.27 2.77,2.72 -1.04,1.35 -2.45,-1.3 -3.81,-0.25 -1.43,1 -2.46,-0.38 -3.6,-0.79 -1.41,0.45 -2.67,-0.42 -3.95,0.44 -0.43,0.12 -0.48,-0.64 -0.96,-0.62 z" id="pYeu" class="T Fond"/>
    <path d="m 391.49,445.13 c 1.14,1.25 3.39,2.17 3.45,4.03 -1.74,-1.23 -3.9,-2.23 -4.59,-4.4 -2.52,-2.24 0.99,-0.39 1.14,0.37 z" id="pBasseLoire" class="T T851"/>
    <path d="m 534.66,331.61 -0.5,4.91 2.46,4.06 -1.25,9.84 3.69,3.69 -0.25,3.94 0.75,8.09 0.5,5.66 -4.94,7.12 1.97,2.94 -0.47,7.13 1.97,3.68 7.35,4.44 2.31,3.44 3.84,-3.69 1.97,-0.5 0.5,-7.12 2.94,-2.22 1.22,-1.94 -2.94,-4.44 0.5,-2.47 5.16,-2.68 1.22,-3.69 0,-3.69 6.87,-3.94 -0.97,-11.28 6.13,0 3.43,-3.93 6.41,-2.97 -1.25,-2.94 -10.06,-3.69 -14.97,-3.19 -8.13,-2.21 -6.62,0.25 -8.84,-2.6 z" id="p863" class="T T863" style="&#10;    stroke: #7d7d7d;&#10;    stroke-width: 0.8;&#10;"/>
    <path d="m 551.84,412.96 -1.47,-8.35 -1.96,-3.69 0,0 -0.13,-0.22 0,0 -2.31,-3.43 -7.35,-4.44 -1.96,-3.69 0.46,-7.12 -1.96,-2.94 4.93,-7.13 -0.5,-5.65 -0.75,-8.1 0.25,-3.93 -3.68,-3.69 1.25,-9.84 -2.47,-4.07 0.5,-4.9 -3.22,-14.13 -1.22,-3.44 0,-4.15 -2.94,-5.91 3.19,-8.84 0.5,-4.91 -8.59,-3.44 -6.91,-6.15 -6.13,-5.91 -3.68,-8.84 -2.22,-8.1 -2.22,-12.78 -5.16,-10.06 -3.43,-8.62 -5.66,-6.38 -5.16,-1.47 -7.12,-4.44 -3.19,-2.43 -2.69,0.97 -3.93,-5.16 -8.38,-5.66 -3.56,-1.78 c -0.4,0.22 -1.25,-0.1 -1.94,-0.59 -2.22,0.26 -4.59,-0.89 -6.69,0.19 -1.5,0.27 -2.55,1.29 -4.06,1.15 -0.8,2.05 -2.96,0.1 -4.44,0.69 -0.99,0.96 -1.98,-1.14 -3.47,-0.63 -1.88,0 -3.96,-0.82 -5.81,-0.56 l 3.44,5.97 1,7.38 0,12.53 -1.25,12.75 -3.91,10.81 -3.43,11.31 0,9.35 -0.25,8.34 1.71,6.16 2.19,5.15 -0.97,3.19 -4.4,0.97 -7.38,0.5 -4.69,1.72 -2.18,4.9 -1.97,7.13 -1,4.44 3.19,1.71 0.75,7.88 -1.22,5.62 -0.5,4.19 -2.22,1.47 0.5,5.91 -2.47,3.68 -3.94,3.19 -2.19,2.47 1.22,5.41 2.47,0.97 -1,2.71 -1.72,4.66 -0.25,1.97 -14.72,7.62 -3.93,-1 -8.38,4.69 -2.44,1.22 -0.25,3.69 0.25,3.19 -1.96,3.68 -3.94,0.25 -4.41,-0.5 -9.59,1 c -0.77,0 -1.48,0.35 -2.22,0.47 -0.29,0.1 -0.67,0 -0.97,0 l -2.97,5.16 0,3.22 -1.72,2.18 -3.75,0.57 -3,2.75 c 0.53,0.23 0.62,0.44 -0.93,0.59 -1.46,-0.99 -2.53,0 -3.63,0.72 -1.59,-0.31 -3.22,-1.09 -4.87,-0.31 -1.11,1.5 -2.42,-0.34 -3.72,-0.32 -1.94,-0.45 -2.09,1.92 -1.47,3.19 1.22,1.25 0.15,2.6 0.1,4.03 -0.37,1.54 1.6,3.05 2.66,1.53 1.43,-1.33 3.64,1.03 2.43,2.41 -1.35,1.24 0.35,3.03 1.82,2.78 1.29,-0.56 2.57,-0.32 3.75,0.31 1.71,0.24 1.02,2.46 -0.13,2.91 -0.88,-1.12 -2.11,-1.21 -3.44,-0.97 -0.23,0.76 -1.5,3.74 -1.59,1.91 0.92,-1.79 -1.46,-1.61 -2.19,-2.38 -0.31,-1.85 -2.32,-0.63 -2.93,0.35 -2.15,0.96 -3.28,3.46 -5.63,4.15 -0.83,0.52 -3.55,0.54 -2.47,1.97 1.92,0.1 3.65,0.89 4.72,2.5 1.93,1.92 1.64,4.67 1.09,7.1 0.68,1.47 2.23,-0.97 1.72,-1.91 -1.59,-1.33 0.98,-2.89 1.03,-0.75 1.37,0.87 3.47,1.33 3.94,3.12 0.27,1.32 1.98,2.1 1.25,3.69 -0.81,2.32 -3.74,1.94 -5.69,1.56 -2.04,0.23 -2.21,-2.36 -3.93,-2.71 -1.05,-0.56 -3.67,-0.48 -3.03,1.28 1.5,0.77 3.13,1.19 4.59,2.06 1.93,1.49 4.48,1.84 6.53,3 0.77,1.1 3.73,2.03 3.5,-0.1 -0.87,-1.58 0.68,-2.93 2.25,-2.63 2.6,0.58 5.96,0.78 7.34,3.44 0.3,1.96 2.44,2.03 3.57,3.28 1.47,1.99 4.38,1.49 6.06,0 1.02,-1.24 2.07,-2.57 3.87,-2.5 1.33,-0.3 1.78,-2.04 3.41,-1.97 1.97,0 1.46,-2.38 2.75,-3.25 0.1,-1.31 0.47,-2.73 1.88,-3.19 1.21,-0.37 3.03,-1.57 4.09,-0.25 1.81,-0.27 3.64,-0.21 5.47,-0.15 1.88,0.19 3.58,-0.55 5.19,-1.44 2.29,-0.57 4.94,-0.38 6.68,1.38 1.41,0.55 3.03,0.57 3.32,2.34 0.98,0.72 3.44,1.51 3.9,-0.13 2.5,1.3 5.57,1.8 7.5,4.07 2.07,1.87 3.89,3.98 5.38,6.37 1.66,2.44 4.57,3.34 7.15,4.44 1.09,0.73 3.5,0.23 3.88,1.16 -1.95,0.81 -4.15,0.21 -6.19,0.1 -2.02,0 -3.88,-1.02 -4.78,-2.88 -1.2,-2.9 -5.02,-1.58 -7,-3.53 -1.8,-0.6 -3.34,-1.75 -4.41,-3.28 -1.88,-1.66 1.46,-1.43 1.66,-1.19 -1.04,-1.48 -2.81,-2.67 -4.66,-2.78 0.55,0.99 1.19,2.66 -1,1.85 -1.21,-1.13 -2.83,-0.92 -4.34,-0.85 -1.59,0.1 -2.65,-0.97 -3.66,-2.03 -0.8,-1.68 -2.48,-0.83 -3.25,0.34 -2.75,1.65 -6.15,1.38 -9.25,1.79 -1.7,-0.3 -3.01,0.79 -4.59,1.15 -2.53,0.81 -0.72,4.02 -1.88,5.78 -1.59,2.01 1.22,3.61 1.63,5.5 0.33,2.36 0,4.98 -0.69,7.28 -0.54,2.07 -2.89,1.37 -4.44,1.5 -2.43,0.21 -3.14,3.16 -5.4,3.75 1.12,0.71 2.76,0.67 3.62,2.13 1.76,-0.39 3.62,-0.35 5.32,0.22 1.82,1.32 3.97,1.44 6.15,1.34 1.83,0.45 3.39,1.78 5.22,2.25 2.71,0.81 4.2,3.31 6.31,4.97 1.89,1.7 2.98,3.89 4,6.16 0.45,0.49 0.59,1.06 0.53,1.59 l 0,0 16.22,10.66 10.82,6.12 8.37,3.94 13,1.22 13.28,-5.41 7.63,-2.94 8.34,-6.62 2.69,-5.66 4.44,-7.12 2.43,-6.63 -7.84,-3.22 -5.66,-3.9 -5.65,-2.97 -6.38,-6.13 -0.77,-5.11 c 0.47,-0.34 0.98,-0.8 1.44,-1.39 1.08,-4.08 5.01,-4.7 7.14,-7.56 2.76,-4.2 9.03,-4.66 11.19,-9.61 3.43,-4.22 9.36,-3.46 14.09,-4.79 4.35,-3.4 9.51,-4.96 15.09,-3.75 4.51,0.54 8.85,0.15 13.13,-1.25 3.94,-2.44 8.51,-6.38 13.51,-2.77 0.3,0 0.39,-0.17 0.58,0 1.49,1.14 3.23,1.84 4.85,2.84 3.27,1.94 7.65,5.29 11.18,2.45 4.11,0 8.13,-2.47 11.27,-5.14 1.63,-3.59 4.92,-4.62 8.48,-5.32 z" id="p851" class="T T851" style="&#10;    stroke: #010101;&#10;"/>
    <path d="m 332.06,402.86 3,-2.75 3.75,-0.56 1.72,-2.19 0,-3.22 2.97,-5.15 c 0.3,0 0.68,0.1 0.97,0 0.74,-0.13 1.45,-0.44 2.22,-0.47 l 9.59,-1 4.41,0.5 3.93,-0.25 1.97,-3.69 -0.25,-3.19 0.25,-3.68 2.44,-1.22 8.38,-4.69 3.93,1 14.72,-7.63 0.25,-1.96 1.72,-4.66 1,-2.72 -2.47,-0.97 -1.22,-5.4 2.19,-2.47 3.94,-3.19 2.47,-3.69 -0.5,-5.9 2.22,-1.47 0.5,-4.19 1.21,-5.63 -0.75,-7.87 -3.18,-1.72 1,-4.44 1.97,-7.12 2.18,-4.91 4.69,-1.72 7.38,-0.5 4.4,-0.97 0.97,-3.18 -2.19,-5.16 -1.72,-6.16 0.25,-8.34 0,-9.34 3.44,-11.32 3.91,-10.81 1.25,-12.75 0,-12.53 -1,-7.37 -3.44,-5.97 c -0.68,0.1 -1.33,0.33 -1.94,0.84 -1.63,2.51 -4.63,3.62 -7.5,3.81 -2.97,0.1 -5.94,0.63 -8.9,0.57 -1.84,-0.12 -3.24,-0.62 -3.69,1.12 -2.03,-1.58 -4.55,-0.77 -6.88,-1.16 -2.9,-0.51 -3.4,-3.71 -4.65,-5.84 -1.46,-1.55 0.6,-3.31 0.44,-5.09 1.22,-0.73 3.43,-1.66 2.43,-3.5 -1.13,-0.72 -0.14,-3.74 -1.53,-2.66 -1.36,1.29 -3.34,1.25 -4.78,2.38 -1.34,-0.65 -2.85,-0.23 -4.12,-1 -1.29,0.93 -2.77,0.63 -1.13,1.9 -0.71,1.42 -2.58,-0.67 -3.81,0 -2.06,-0.1 -2.54,0.91 -1.72,2.66 -0.53,2.59 -3.49,2.31 -5.34,3.34 0.45,1.57 0.74,2.34 0.87,3.6 1.03,0.98 0.25,2.74 1.81,3.37 -0.18,1.61 0.35,2.57 1.38,3.75 0.85,0 2.77,-0.56 3.53,0.88 -0.1,1.11 2.82,2.89 0.56,2.84 -0.9,-0.51 -2.98,-2.77 -2.47,-0.31 0.81,1.11 0.45,2.9 1.28,3.78 1.89,-0.66 1.96,1.38 0.82,2.37 0.22,1.45 3.46,-0.1 2.43,2.07 -0.33,1.68 -2.69,0.19 -2.9,2.03 -0.37,2.11 -2.67,0.43 -1.41,-1 1.08,-1.25 1.07,-3.05 -0.59,-3.75 -0.58,-1.25 -1.37,-2.43 -2.13,-3.63 -1.58,-1.03 1.34,-2.53 -0.25,-3.28 -1.87,-0.11 -1.72,-2.26 -2.06,-3.53 -1.55,-1.12 0.15,-2.97 -0.78,-4.28 -1.71,-0.15 -2.74,-0.62 -2.19,-2.63 -1.42,-0.83 -3.18,0.22 -4.69,0.32 -1.47,-0.17 -2.19,-1.6 -3.21,0 -1.39,0.17 -2.58,0.84 -3.91,1.18 0,1.84 1.71,2.99 2.5,4.47 -1.31,0.29 -1.55,-2.67 -2.88,-1.69 -0.87,1.23 -2.63,2.55 -1.96,4.29 2.04,0.19 0.12,2.58 -1.07,2.59 -2.76,-0.7 0.34,-4.69 -2.15,-5.66 -0.24,1.57 0.46,3.48 -0.6,4.78 -1.04,2.02 -1.76,0.94 -1.5,-0.9 -0.9,-0.97 -1.13,-2.2 -1.25,-3.53 -0.84,-0.81 -3.09,-1 -2.22,-2.78 0.94,-1.42 -1.49,-2.42 -0.28,-3.79 -0.27,-1.54 -2.14,0.43 -2.84,0.94 -1.43,1.38 -3.55,1.78 -4.47,3.66 -1.03,1.98 -1.83,0.1 -2.72,-0.88 0.72,-2.13 3.62,-2.6 3.66,-5.06 0,-1.33 2.15,-2.39 1.44,-3.44 -1.38,0.1 -3.09,-0.44 -2.75,-2.18 0.24,-2.37 -2.02,-0.92 -1.72,0.68 0.37,1.75 -1.66,1.99 -2.78,2.6 -1.02,0.91 -2.35,0.98 -3.44,1.75 -0.7,1.27 -2.43,1.34 -3.1,2.59 -1.27,1.97 -1.04,-1.39 -1.62,-2 -2.01,-0.55 -4.28,0.1 -6.31,0.5 -1.94,-0.1 -2.13,1.56 -0.19,1.84 2.06,0 0.55,2 -0.25,2.75 -1.81,1.31 -3.59,2.68 -5.41,3.97 -1.16,1.17 -2.69,0 -3.9,0.63 -1.02,1.26 -2.08,2.63 -3.13,3.94 -1.59,1.14 -1.97,3.13 -3.44,4.34 -1.62,0.75 -2.54,2.27 -3.56,3.56 -1.71,0.76 -2.66,-0.79 -3.94,-1.4 -2.18,0.3 -1.06,2.85 -1.28,4.28 -0.13,2.09 -0.96,2.56 -1.75,0.4 -0.33,-1.48 -2.6,-1.22 -2.28,-2.97 0.11,-1.35 -3.35,-0.39 -1.09,-1.75 0.92,-1.05 0.16,-2.45 0.65,-3.53 -1.47,-0.55 -3.02,-1.05 -4.43,-1.75 -1.51,-0.54 -1.27,-2.44 -2.6,-3.15 -1.46,-0.1 -2.25,-1.38 -3.59,-1.72 -2.24,-0.31 -0.66,-2.09 -0.38,-3.25 -0.51,-1.9 -1.41,-3.82 -0.93,-5.88 0.35,-2.08 -2.32,-2.25 -2.69,-4.03 -0.76,-2.26 -3.99,-0.93 -4.94,-2.9 -0.77,-1.19 0.28,-3.8 -1.94,-3.54 -0.85,-1.08 -2.38,-1.44 -2.84,-2.81 0,-1.44 -2.83,-1.24 -1.72,-2.81 1.65,-0.94 -0.32,-2.31 0.91,-3.41 1.1,-1.52 -1.99,-1.47 -1.6,-2.93 -0.13,-1.25 -1.48,2.17 -2.87,0.93 -1.94,-1.31 -4.77,-0.6 -6.41,-2.4 -0.24,-0.91 0.29,-1.23 0.6,-1.32 -0.2,0 -0.54,0 -1.25,-0.1 -2.27,0.31 -0.91,-1.45 0.43,-1.65 0.3,-1.22 3.3,-1.51 2.22,-2.41 -0.65,-1.02 1.22,-2.92 -1.12,-2.97 -1.41,-0.72 -2.99,1.5 -4.1,-0.19 -1.67,-0.72 -2.28,1.51 -2.84,2.66 -1,1.68 -0.41,3.98 -2.03,5.31 0.15,1.68 -1.69,1.95 -2.22,3.25 -0.94,2.22 -1.48,0.69 -0.66,-0.84 -0.26,-2.74 3.67,-2.99 3.5,-5.69 -0.3,-1.74 1.1,-3 1.54,-4.5 0.33,-1.49 -2.32,-1.67 -0.66,-3.06 0.96,-1.35 0,-2.73 0,-4.1 0.48,-1.09 -0.32,-2.71 -1.84,-1.5 -0.83,1.2 -2.64,0.75 -3.32,2 -0.84,1.52 -1.97,0.62 -3.15,1.1 -0.97,0.92 -1.5,2.54 -3.22,1.97 -1.11,1.79 -0.57,4.54 -2.72,5.72 -1.41,0.37 -2.23,1.61 -2.28,2.96 -0.59,-1.37 0.91,-2.48 1.28,-3.75 0.44,-1.55 1.38,-3.42 0.69,-4.96 -1.98,-0.96 0.44,-3.31 -0.69,-4.75 -2.12,-0.9 -3.07,1.65 -3.97,3.06 -0.63,0.94 -1.61,3.41 -2.66,1.59 -1.12,-0.13 -1.62,2.29 -3.15,0.81 -1.57,-0.74 -3.27,-0.28 -4.47,0.85 -1.22,1.2 -2.94,0.68 -4.34,1.25 -1.91,0.3 -0.96,3.05 -2.88,3.25 -1.35,0.28 -3.3,1.26 -4.37,0.1 -0.81,-1.21 2.59,-2.65 0.46,-2.94 -1.67,1.13 -3.28,-0.43 -4.12,-1.81 -0.52,-1.78 -2.26,-2 -1.91,0 -1.13,-1.03 -2.04,0.47 -3.03,-0.47 -0.91,-1.98 -1.4,1.64 -2.5,1.32 -1.15,-0.76 -2.49,1.87 -1.31,2.5 0.73,1.33 -1.29,2.96 -2.69,2.81 -1.82,-0.92 -2.42,1.56 -2.53,2.87 -0.24,1.67 0.1,2.96 1.88,2.6 0.62,1.13 2.3,2.1 2.03,3.65 0.61,1.33 2.76,1.1 0.18,1.91 -1.48,0 -2.88,0 -4.25,0.62 -0.29,1.42 -0.15,2.93 -0.1,4.38 -0.46,1.55 1.88,2.35 1,3.84 -0.57,2.29 -4,1.9 -4.47,-0.25 -0.7,-1.82 -2.02,0.29 -2.87,0.63 -1.81,-0.1 -1.55,-2 -0.66,-3 -0.27,-1.28 -2.35,0.25 -3.22,0.59 -1.75,0.22 -3.17,-1.38 -4.94,-1.5 -0.64,-2.06 -2.96,-2.16 -4.75,-2.5 -1.54,-0.7 -3.18,1.78 -4.37,0.1 -0.96,-0.56 -1.88,-1.77 -2.78,-2.1 -0.16,1.63 -0.49,3.22 -1.81,1.41 -1.81,0.23 -0.32,2.82 -1.91,3.25 -1.59,1.27 0.54,2.7 0.25,4.15 0,2.45 -1.54,0.56 -1.59,-0.81 -1.62,-1.7 -0.68,1.11 -0.38,2.03 0,1.8 0.68,2.42 0.72,3.53 -0.3,1.02 0.68,3.95 -0.84,3.54 -0.1,-1.8 -1.58,-2.67 -3.13,-3.1 -1.64,-0.53 -3.76,-2.84 -2.09,-4.34 1.89,-0.99 -1.26,-1.4 -2.1,-1.56 -0.95,0.85 -1.33,2.93 -3,3.03 -1.21,1.39 -1.39,2.06 -0.87,-0.28 0.54,-1.46 0.17,-2.92 -1.35,-3.5 -0.92,-1.19 0.89,-3.04 -0.87,-3.47 -0.67,-1.46 0.13,-3.37 0.69,-4.85 -0.23,-1.23 -2.98,-0.75 -3.07,0.47 -0.49,1.63 -1.89,0.73 -2.84,1.81 -1.41,0.19 -2.63,0.5 -3.97,0.82 -1.37,0.68 0.5,3.68 -1.53,3.87 -0.48,1.83 -0.52,1.18 -1.56,-0.34 -0.69,-1.76 -2.4,0.54 -3.22,-1.16 -2.43,-0.31 -4.76,0.73 -7.16,0.94 -2.63,0 -3.77,2.69 -5.93,3.62 -1.49,1.19 -0.29,3.18 1.46,2.47 1.8,0.95 -1.54,1.59 -2.37,1.07 -1.3,-0.85 -2.79,-1.07 -4.28,-0.5 -1.74,-0.23 -3,0.88 -4.44,1.56 0,1.66 -2.73,1.22 -2.34,-0.5 1.29,-0.52 1.84,-1.82 1.87,-3.16 -0.51,-1.15 -1.71,-2.08 -3.03,-1.94 -0.59,-1.3 -2.45,-1.3 -3.719,-0.75 -1.591,1.25 -3.216,2.62 -5.25,3.1 -1.058,0.51 -3.456,-0.23 -3.531,1.22 0.38,0.84 3.643,1.03 2.094,2.15 -1.385,-0.72 -2.676,-0.12 -3.875,0.16 -0.899,-1.74 -2.033,0.84 -3.125,1.03 -1.633,0.15 -4.353,1.29 -4.969,-0.94 -1.125,-0.19 -2.611,-0.36 -3.781,-0.5 0.109,2.02 -1.418,1.37 -2.656,2 -1.244,1.76 3.041,1.04 1.468,2.5 -1.393,1.29 1.53,1.42 2.344,1.97 -1.474,0.45 -3.2,0.99 -4.687,0.31 -1.799,-0.18 -2.106,-0.95 -2.719,-2.06 -1.773,0.18 -1.51,2.54 -1.719,3.85 -1.016,2.29 1.78,0.61 2.281,2.21 0.129,1.46 1.515,2.89 -0.968,2.38 0.21,-1.72 -1.551,-2.25 -2.688,-3 -1.095,-1.54 -2.477,0.15 -3.781,0.16 -1.482,-0.75 -2.312,-0.12 -3.375,0.9 -1.007,-1.24 -3.949,-0.57 -3.031,1.31 0.353,2.37 -1.626,-0.18 -2.563,0.1 -1.367,1.02 -2.532,2.54 -3,4.25 -1.812,0.16 -1.388,2.41 -2.5,3.25 -2.205,1.36 -0.665,3.97 -0.09,5.81 -0.05,1.85 2.438,0.98 2.532,2.28 -0.95,2.12 -1.956,-0.44 -2.844,1.28 -1.721,1.48 -1.11,4.31 -2.125,5.75 -1.305,1.1 -0.25,2.66 0.281,3.78 1.727,0.42 -0.335,2.56 1.281,3.35 1.787,0.84 1.076,3.42 -0.718,3.62 -2.216,-0.16 -0.301,1.91 -0.532,3.06 0.77,1.44 0.79,4.08 3.032,3.91 1.92,-0.82 3.915,0.31 5.812,-0.25 1.9,-0.4 0.638,-2.5 1.563,-3.5 1.57,-1.24 3.373,-0.22 4.812,0.63 1.392,0.1 2.364,0.68 3.188,1.78 3.22,0.58 5.815,-1.94 8.781,-2.66 3.347,0 5.574,-2.88 8.687,-3.69 1.962,-1.04 4.205,-1.25 6.219,-2.15 1.996,-0.22 4.122,-0.1 5.938,-1.16 3.402,-0.56 6.437,-2.27 9.527,-3.66 1.62,-0.11 -0.73,1.95 -1.56,2.13 -2.756,2.13 -6.306,2.76 -9.405,4.22 -1.788,0.18 -2.398,1.91 -3.594,2.9 -1.758,0.59 -3.208,2.19 -2.875,4.16 0.711,1.44 -2.569,2.2 -1.062,3.09 1.691,-0.5 3.354,-1.25 5.062,-1.81 2.875,-0.19 -1.517,1.53 0.157,2.28 1.332,-0.16 3.109,0.32 4.156,-0.81 0.684,-1.01 1.071,-3.44 2.844,-2.5 1.657,0.89 2.337,-1.59 3.407,-1.5 -1.475,1.35 -0.17,2.66 1.44,1.69 0.75,-1.08 1.6,-2.4 3.25,-1.56 2.75,-0.15 -0.76,-0.16 -0.78,1.12 0.96,1.52 -1.68,1.8 -2.66,2 0.63,1.38 -1.31,1.51 -2.03,2.72 -0.52,1.52 2.59,-0.33 3.19,1.19 1.22,0.42 2.7,-2.47 2.53,0.4 1.32,0.11 1.92,1.69 3.12,1.69 0.93,-0.95 2.53,-1.97 1.35,0 -0.25,0.8 1.86,1.31 3.06,1.19 0.76,0 4.18,-0.1 2.03,0.59 -1.54,1.04 -3.27,0.36 -4.91,0.13 -1.49,0.78 -3.02,2.86 -4.84,1.62 -2.53,0 -0.54,-1.68 0.97,-1.25 0.21,-1.14 -2.51,-0.78 -3.53,-1.06 -2.2,-0.51 -3.94,1.12 -6.066,1.25 -1.756,1.02 -3.716,1.7 -5.75,1.62 -1.823,0 -2.278,-1.76 -2.75,-3.15 -2.021,-0.18 -4.352,-0.35 -6.125,0.78 -1.214,0 -3.139,1.22 -3.906,0.37 0.133,-1.13 -1.786,-2.89 -2.063,-0.93 -0.661,1.87 -2.458,0 -3.031,-1.03 -1.552,-1.38 1.411,-2.38 0.594,-4 -0.08,-1.28 2.255,-2.42 1.218,-3.54 -1.61,-0.12 -3.277,1.03 -4.468,2.1 -1.804,0.93 -1.258,3.05 -0.75,4.59 1.055,1.59 -0.27,4.88 -2.407,3.63 -0.867,-1.13 -2.44,-1.43 -3.312,-0.16 0.375,1.11 0.166,2.66 0.09,3.81 0.999,-1.66 2.213,-0.1 2.968,0.78 1.518,1.17 2.971,-0.49 4.5,-0.28 2.082,0.1 2.223,3.12 0.282,3.6 -2.003,0.35 -0.777,2.46 -0.375,3.65 1.04,1.95 1.544,4.31 0.375,6.35 -1.6,1.35 0.384,3.03 1.625,1.59 0.595,-2.26 2.991,-3.19 3.812,-5.28 0.304,-1.66 2.091,-2.9 1.563,-4.66 1.025,-1.81 3.863,-2.04 5.562,-0.97 1.507,0 2.392,-0.41 2.969,1.41 1.291,0.17 1.974,1.48 3.187,1.69 1.415,-0.82 2.78,-0.17 2.907,1.5 0.661,2.45 3.293,0.72 4.968,0.97 2.389,0.8 3.809,3.69 3.659,6.12 -0.34,1.65 0.51,2.74 2.03,3.06 0.95,1.76 0.37,4.27 -0.59,5.88 0.45,1.45 -0.48,2.73 -0.94,4.06 -0.64,2.01 -2.52,0.46 -3.565,0 -2.16,0.33 -3.139,-2.84 -5.406,-1.81 -2.173,0.87 -4.552,0.61 -6.781,1.13 -1.841,1.42 -4.645,-0.16 -6.219,1.65 -2.152,2 -5.242,-0.48 -7.531,1.28 -1.013,1.02 -2.389,1.53 -3.813,1 -1.692,-1.01 -3.387,0 -4.937,0.72 -1.694,0.26 -3.533,0.33 -5.188,0 -1.659,-0.81 -2.018,2.02 -3.687,1.13 -1.134,0 -3.478,-1.35 -3.438,0.65 0.201,1.3 0.784,3.12 -1.125,3.31 -2.15,0.76 1.285,1.3 2.219,1.29 0.69,1.94 3.157,1.02 4.625,1.84 1.289,0.94 2.831,-0.74 3.844,0 0.461,1.9 2.744,1.06 4.031,1.87 0.909,0.89 1.021,2.56 2.687,2.63 2.389,0.72 2.937,-2.37 4.938,-2.91 1.419,-0.27 -0.07,2.73 2.125,2.44 2.286,-0.1 3.495,1.97 5,3.31 2.742,2.32 5.839,4.64 7.312,8 1.749,1.85 2.365,4.32 3.5,6.53 1.372,1.75 1.813,3.86 2.469,5.91 0.71,2.41 1.849,5.35 0.438,7.69 -1.301,0.34 -3.699,0.92 -2.782,2.78 0.674,1.07 -0.571,3.34 1.625,3.06 1.445,-0.53 2.711,0 4.094,0.28 1.443,-0.73 2.675,0.28 3.905,0.91 1.39,-0.65 2.53,0.95 4.03,0.59 1.51,-0.56 3.03,-0.61 4.63,-0.5 1.36,-0.44 2.67,-0.95 4.22,-0.9 1.24,-1.61 2.8,-3.07 3.4,-5.03 0.31,-2.11 -3.7,0 -2.87,-2.16 1.9,-1.24 -1.23,-0.56 -1.06,-2.25 -0.72,-1.46 0.42,-3 0.93,-4.31 1.84,-0.64 1.48,1.87 2.13,2.84 1.36,0.47 1,2.88 2.69,1.66 0.7,-1.42 2.07,-1.54 3.34,-1.75 0.5,-1.29 -1.55,-2.17 -1.16,-3.69 -0.89,-1.31 -2.71,-2.28 -2.25,-4.19 -0.1,-1.61 1.66,-3.1 1.1,-0.65 -0.27,1.76 1.32,2.82 1.62,4.34 1.91,0.64 1.51,1.01 1.91,2.44 1.01,0.77 1.97,2.28 3.4,1.28 1.45,-1.04 2.89,0.46 3.32,1.78 -0.1,2.21 1.5,1.52 1.81,-0.13 1.02,0.4 2.32,0.12 3.44,0.1 0.51,1.71 -1.99,1.37 -2.88,2.12 1.83,-0.45 3.61,-1.07 5.38,-1.75 0.89,-1.28 -0.59,-2.98 0.12,-4.43 0.25,-1.76 -1.68,-1.86 0.56,-2.63 1.05,-0.58 2.34,0.97 3.47,0.63 0.1,1.5 1.85,1.69 2.03,3.15 0.45,1.64 2.71,1.04 3.04,2.75 0.97,0.89 -2,1.57 0.53,2.28 2.25,-0.21 0.82,1.3 1.06,2.57 0.93,1.66 2.52,2.92 3.78,4.37 1.57,0.73 1.26,2.32 1.34,3.69 1.21,-0.31 2.12,-2.16 3.72,-1.25 2.24,1.66 5.61,2.06 7.97,0.5 1.03,-0.91 1.94,-1.95 3.5,-1.75 1.97,-1.37 0.17,1.73 2,2.12 1.24,0.74 2.2,2.74 3.81,2.19 1.21,0 3.24,-0.74 3.69,0.88 2.06,1.51 4.91,1.05 7.35,1.37 1.86,-0.19 3.17,1.63 4.96,1.19 1.54,-1.43 1.95,-0.3 2.6,1.22 2.2,1.36 2.49,4.16 3.31,6.4 1.1,0.79 1.2,2.27 2.38,2.91 1.01,0.76 1.57,2.48 3.21,1.75 1.52,-1.08 3.31,-0.58 5,-0.44 1.89,0.49 4.75,-1.37 3.75,-3.47 -0.19,-1.59 -1.99,-1.92 -3,-1.93 1.02,-1.76 3.11,0.76 4.5,-0.16 0.42,-1.26 1.41,-2.28 2.66,-2.72 1.88,0.45 1.4,-2.08 2.25,-2.44 2.08,0.35 2.31,-2.58 4.16,-2.75 0.78,0.72 -1.78,1.54 -1.94,2.75 0,1.97 -1.11,3.57 -2.53,4.82 -0.6,1.35 -3.11,0.27 -2.91,2 1.09,1.68 -1.03,2.31 -1.65,3.09 0.62,1.55 2.24,-1.01 3.5,0.19 1.65,0 3.04,0.97 4.37,1.84 1.58,1.29 0.26,2.7 -1.03,1.09 -1.18,-0.58 -2.25,-1.71 -3.66,-0.87 -1.01,-0.44 -4.25,0.19 -2.62,0.87 1.15,-0.86 2.82,-0.15 4.15,-0.46 1.8,1.03 3.73,1.95 5.57,2.9 2.28,0.85 4.02,2.62 5.09,4.78 1.4,1.54 2.4,-0.73 1.91,-2 -0.8,-1.66 1.08,-1.96 1.84,-2.84 0.43,-1.03 -2.35,-3.28 -0.25,-2.19 2.23,1.08 0.47,-1.95 1.97,-2.31 1.48,0.46 3.22,0.37 2.19,-1.63 -0.38,-1.42 0.58,-4.02 -1.72,-4.09 -2.03,0.1 -0.88,-2.9 0.44,-1.34 1.1,0.24 2.42,2.24 3.37,0.87 -0.11,-2.1 2.27,-1.96 1.06,0 0,1.03 -0.79,3.72 1.07,3.06 1.2,-1.71 1.92,-0.31 1.56,1.29 -1.18,1.19 1.07,3.29 -0.19,3.53 -1.54,-0.85 -2.62,0.77 -3.75,1.53 -0.86,1.51 -2.58,0.51 -3.87,1.15 -0.8,1.06 -2.69,1.71 -2.54,3.29 0.62,1.41 0.21,2.81 -0.28,4.15 0.66,1.89 2.8,2.9 4.38,4.03 1.24,0.63 2.13,1.53 2.47,2.91 1.75,2.97 1.84,6.51 1.18,9.81 0,1.52 -1.05,2.6 -1.9,3.56 0.26,1.94 0.98,3.95 1.31,5.94 0.34,0.83 -0.1,3.64 1.25,2.91 1.41,-1.06 2.06,1.69 3.63,0.81 2.22,0.28 0.14,-0.87 0.1,-2.19 -1.33,-0.43 -2.13,-1.71 -2.81,-2.78 0.47,-1.59 -0.26,-3.07 -0.82,-4.47 -0.13,-2.89 -0.1,-5.92 0.91,-8.65 0.13,-1.17 -1.44,-2.07 -0.69,-3.72 0.48,-1.92 1.83,0.74 2.72,1.06 2.56,0.47 0.8,1.47 0,2.22 1.09,1.58 2.98,0.57 4.44,0.34 1.7,0.73 2.15,-1.86 3.72,-0.93 1.07,0.89 2.98,1.4 1.94,-0.63 0.13,-1.32 -1.19,-3.79 0.65,-4.22 1.27,1.8 0.11,4.83 2,6.28 2.17,0.43 0.99,-1.82 0.6,-2.84 0.45,-1.31 1.72,1.41 2.71,1.69 1.03,0.81 -0.71,3.38 1.32,2.75 1.03,-2.1 1.26,0.93 2.68,0.87 1.5,-0.6 -0.41,-2.33 -0.78,-3.28 -0.23,-1.51 -2.69,-1.97 -2,-3.66 -0.83,-1.59 0,-2.8 0.53,-4.28 0.27,-1.5 -1.23,-2.1 -1.43,-3.37 -0.82,-0.55 -1.44,-3.65 0.22,-2.47 0.54,1.17 0.75,2.5 1.81,3.37 0,1.4 3.7,0.35 1.34,1.57 -0.99,1.57 0.22,3.52 0.35,5.22 0.58,-0.84 1.18,-1.39 2.59,-1.29 0.59,1.01 -0.76,3.72 0.5,1.54 1.04,0.5 1.97,2.36 3.34,1.15 0.43,-1.05 -0.29,-3.7 1.91,-2.22 2.12,1.08 1.23,-1.47 1.75,-2.28 0.26,-1.79 1.12,-1.7 2.84,-1.12 1.56,0.88 3.01,-1.29 4.47,-0.13 1.72,0.34 2.98,-1.38 1.1,-2.31 -0.4,-1.94 1.54,0.67 2.56,0.37 1.43,-1.4 1.48,-0.31 2.09,1.38 0.94,0.9 2.33,2.28 0.19,1.28 -1.03,-0.1 -3.11,-2.18 -3.31,-0.41 1.49,0.81 2.91,1.74 4.15,2.91 0.91,0.28 3.52,0.54 2.69,1.94 0,0.43 2.78,-1.18 1.09,-2.13 -2.04,-1.15 0.91,-1.59 1.35,-1.15 0.39,-1.34 -0.3,-2.69 -1.44,-3.35 0.1,-1.91 2.29,0 2.13,1.19 0.76,1.08 1.63,2.35 0.62,3.63 0.46,1.75 -0.86,2.3 -1.81,3.25 -0.75,1.68 -1.63,0 -1.75,2.34 -1.19,0.82 -1.69,1.86 -1.13,3.31 -1.67,0.11 -0.76,3.01 -2.75,1.81 -1.31,0.6 -2.39,-0.49 -3.65,-0.4 0,-1.93 -2.2,-1.6 -2.5,0 -1.04,-0.21 -0.47,-3.39 -2.07,-2.09 0.33,2.14 -0.28,2.55 -2.03,1.46 -1.64,-1.17 -2.27,2.39 -2.62,0.13 0.29,-1.66 -1.89,-1.87 -2.72,-2.72 -1.36,0.57 -2.56,0 -3.78,0 -1.26,0.74 -1.12,3.07 0.69,3 1.34,0.19 0,1.51 2.34,1.31 2.16,1.16 4.27,3.19 4.34,5.78 -0.15,1.86 1.78,2.19 3.07,2.75 1.31,0.13 2.97,1.57 3.96,0.16 1.1,-1.79 3.28,-1.59 5.13,-1.69 1.48,-0.51 3.24,-1.32 4.72,-0.22 1.1,0.24 2.61,1.9 3.53,0.78 1.22,-1.3 1.88,-3.15 0.94,-4.84 1.39,0.64 2.71,1.53 4.34,1.16 1.83,0.35 1.73,-2.66 0,-2.57 -1.23,-0.52 2.24,-1.41 2.78,-0.43 1.56,0.15 2.93,-1.04 4.06,-1.69 -0.29,1.52 -1.36,2.79 -2.81,3.31 -1.93,0 -0.91,2.37 -2.65,2.53 -2.41,0.3 0.63,1.69 1.43,0.28 1.85,-2.15 4.86,-0.56 7.22,-1.03 1.57,-1.93 5.06,-2.74 6.56,-0.31 1.41,0.55 3.16,0.38 4.44,1.44 1.16,1.54 3.23,1.57 4.97,1.94 1.61,0.37 3,-2.31 4.31,-0.6 0.65,0.17 1.12,0.34 1.47,0.5 z" id="p845" class="T T845"/>
    <path d="m 452.94,199.99 3.56,1.78 8.37,5.65 3.94,5.16 2.69,-0.97 3.19,2.44 7.12,4.44 5.16,1.47 14.25,-5.91 7.12,-2.69 2.72,-2.97 3.69,-19.15 -1,-11.53 -6.88,-13.79 -4.15,-11.28 -5.19,-2.22 -5.16,3.19 -6.37,-7.62 -2.47,-3.91 0,-3.47 -0.47,-6.87 -2.47,-5.66 -6.37,-9.56 0.72,-3.94 2.47,0.25 0.46,-19.155 -2.18,-7.375 -0.25,-11.313 1.81,-1.5 c 0,-0.136 -0.1,-0.217 0,-0.375 0.91,-1.396 -0.54,-2.918 -1.69,-1.469 -1.13,0.211 -3,2.221 -3.19,0.188 0.1,-1.469 2.14,-1.947 1.35,-3.75 -0.49,-1.793 1.04,-3.243 0.87,-4.938 -1.54,-3.363 -4.09,-6.137 -6.78,-8.625 -1.87,-2.169 -3.15,-4.741 -4.69,-7.093 -1.75,-3.772 -5.11,-7.022 -4.93,-11.469 -0.59,-2.475 1.45,-5.908 4.28,-4.75 1.92,0.339 0.33,-2.561 1.28,-3.625 -0.18,-2.63 1.76,-0.652 3,-0.969 0.97,-1.852 -0.54,-3.879 -0.84,-5.75 0.41,-2.374 -1.6,-3.897 -2.69,-5.719 -1.53,-0.987 1.02,-3.281 -0.53,-3.468 -2.24,0.637 -4.38,-0.285 -6.5,-0.875 -2.52,0.1 -4.87,-1.2309 -7.35,-1.0003 -2.06,-0.094 -3.96,0.5203 -5.93,0.9683 -1.17,0.721 -2.78,0.511 -3.79,0.875 -0.94,3.73 -4.21,7.219 -8.28,7.063 -2.27,-0.01 -5.51,-1.459 -6.87,1.156 -1.41,0.904 -2.97,-0.367 -2.56,-1.906 -1.75,-0.06 -3.37,0.996 -5.1,0.375 -1.77,-0.161 -0.4,-3.253 -2.4,-2.688 -1.71,1.019 -2.78,-1.274 -4.35,-1 -1.55,0.615 -2.95,-0.295 -4.4,-0.562 -1.7,0.327 -2.94,-1.13 -4.5,-1.156 -1.47,0.749 -2.72,-0.412 -2.82,-1.875 -0.44,-2.1479 -3.14,-3.3136 -4.87,-1.8441 -1.28,1.1381 -2.68,0.4229 -3.06,-1.0937 -1.61,-0.9068 -3.33,-2.6028 -5.32,-1.6875 -1.61,1.593 -0.15,4.0653 -0.1,5.9683 -0.14,1.099 -1.89,3.222 0.13,3.5 3.01,1.327 6.9,1.109 9.25,3.719 1.47,3.235 1.79,6.882 2.28,10.375 0.42,2.962 -1.53,5.296 -2.91,7.688 -1.49,0.934 -3.26,2.563 -2.28,4.5 0.58,1.927 2.76,2.186 3.78,3.718 1.57,1.821 -0.1,4.467 1.06,6.344 2.84,2.38 2.93,6.398 2.69,9.813 -0.48,1.942 0.6,3.768 0.59,5.625 -0.43,1.729 2.38,2.099 3.07,0.906 1.28,-1.588 2.11,-0.06 1.18,1.094 0.94,1.192 2.9,1.388 3.63,2.906 1.27,1.239 1.34,3.723 3.19,4.281 1.81,-0.17 0.95,-2.621 1.15,-3.875 1.91,0.265 1.38,2.88 2.6,3.969 0.85,2.073 -3.09,-0.335 -2.5,1.687 0.81,1.801 2.01,3.271 3.12,4.875 0.69,0.708 3.5,1.069 1.88,2.219 -1.48,0.838 0.65,2.086 0.87,3.156 0.74,2.21 1.15,4.473 2.1,6.625 0.32,1.269 2.03,3.199 1.84,0.782 -0.1,-1.77 1.77,-2.485 3.22,-1.907 1.73,-0.717 2.53,1.357 4,1.594 2.24,0.1 1.24,2.259 -0.41,0.906 -1.2,-1.459 -3,0.742 -4.5,-0.218 -1.29,0.716 -0.29,2.783 -0.56,4.065 0.92,2.42 0.8,5.03 1.25,7.56 0.37,1.88 0.79,2.26 1.91,1.28 1.8,0.4 1.32,3.71 -0.6,2.94 -1.78,-0.86 -1.87,1.6 -1.9,2.75 -0.54,1.98 -1.57,4.77 0.25,6.34 1.85,0.24 1.76,1.58 0.53,2.66 -0.66,2.44 0.1,5.1 0.65,7.53 0.22,0.93 0.42,3.54 1.78,2.75 0.26,-2.03 1.23,-4.32 3.25,-5.06 1.79,-0.54 4.4,0.33 4.94,2.12 -0.76,1.17 -1.79,-1.77 -3.25,-1.12 -2.47,-0.18 -3.07,2.93 -2.19,4.68 -0.42,1.71 -0.58,3.45 -0.78,5.19 0.17,1.52 -0.76,3.52 0.25,4.72 2.11,-0.43 2.29,1.21 1.5,2.84 -0.44,2.69 -0.11,1.05 -1.34,0 -0.98,2.13 -0.85,4.6 -1.25,6.88 -0.68,2.81 -0.22,6.22 -2.47,8.37 -0.98,0.62 -3.03,2.18 -0.72,1.25 2.13,-0.33 2.57,1.98 2.97,3.5 0.87,3.81 1.29,7.78 0.81,11.69 -0.52,2.25 1.75,3.2 3.38,3.97 2.51,1.18 2.67,4.09 3.47,6.37 0.33,1.92 2.36,2.43 4,2.44 1.1,0.79 2.79,1.21 3.34,2.5 -0.57,1.91 1.53,1.59 1.84,0.13 1.44,-0.98 3.2,-0.61 2.88,1.34 1.68,0.86 4.06,0.66 5.34,2.28 0.5,0.86 0.4,1.23 0.13,1.38 z" id="p867" class="T T867" style="&#10;    stroke: #7d7d7d;&#10;    stroke-width: 0.8;&#10;"/>
    <path d="m 640.47,1.3622 c -0.44,0.302 -0.87,0.6097 -1.31,0.9062 -1.58,1.7049 -4.11,1.2095 -5.88,2.5625 -0.86,1.4583 -2.77,1.9728 -3.12,3.75 -1.96,1.6941 -1.97,4.5711 -2.29,7.0001 -0.69,4.564 -2.65,8.783 -4.71,12.875 -1.56,3.633 -3.6,7.106 -4.66,10.906 -0.6,2.1 1.23,3.408 2.78,4.313 0.8,2.551 3.52,3.557 5.75,4.406 2.22,-0.955 1.69,1.027 2.5,1.5 1.65,0.103 3.13,0.886 2.09,-1.094 1.09,-1.408 2.34,1.115 3.75,0.594 1.22,0.872 2.39,2.096 4.07,2.094 3.64,0.06 7.23,0.979 10.87,0.343 3.36,-0.05 6.53,-1.263 9.47,-2.75 2.69,-1.017 5.22,-2.569 7.75,-3.781 -2.3,2.929 -5.05,5.536 -8.53,6.969 -3.75,1.844 -7.89,2.578 -12,3.156 -2.66,0.878 -5.43,0.658 -8.13,1.281 -1.32,0.81 -2.91,-1.074 -3.4,1 -1.7,0.809 -3.59,1.266 -5.38,1.844 -3.89,1.028 -6.85,4.14 -8.68,7.594 -0.9,1.89 -2.37,3.454 -4.41,4.125 -3.64,1.997 -6.93,4.539 -10.63,6.437 -2.46,0.764 -4.6,2.325 -7.15,2.875 -3.1,0.64 -6.33,1.073 -9.44,1.594 -1.39,0.806 -4.19,0.179 -4.28,2.313 -0.31,1.64 -1.47,1.127 -1.28,-0.594 -1.79,0.734 -1.11,-2.171 -3.1,-1.75 -3.64,-0.513 -6.71,-2.544 -10.03,-3.906 -2.5,-0.79 -4.63,-2.38 -7,-3.5 -2.4,-1.811 -5.31,0.121 -7.93,-0.532 -2.79,-0.01 -5.19,-1.725 -7.91,-1.875 -2.19,-0.428 -3.98,1.064 -6.03,1.375 -2.86,1.159 -5.54,-0.95 -8.38,-0.906 -4.24,0.281 -8.48,-0.02 -12.65,-0.781 -4.5,-1.058 -9.44,-0.516 -13.53,-2.938 -1.93,-0.473 -3.41,-1.766 -4.47,-3.406 -2.02,-0.78 -4.44,-0.362 -6.63,-0.656 -3.07,-0.309 -5.92,1.436 -8.97,0.844 -1.33,-0.786 -2.63,-0.08 -3.62,0.906 -1.04,1.61 -3.31,2.675 -3.35,4.75 0.71,0.941 1.69,2.95 -0.1,3.281 -1.11,0.816 -3.34,0.593 -3.28,-1 l -1.81,1.5 0.25,11.313 2.19,7.375 -0.47,19.155 -2.47,-0.25 -0.72,3.94 6.37,9.56 2.47,5.66 0.47,6.87 0,3.47 2.47,3.91 6.38,7.62 5.15,-3.19 5.19,2.22 4.16,11.28 6.87,13.79 1,11.53 -3.69,19.15 -2.72,2.97 -7.12,2.69 -14.25,5.91 5.66,6.37 3.43,8.63 5.16,10.06 2.22,12.78 2.22,8.09 3.68,8.85 6.13,5.9 6.91,6.16 8.59,3.44 -0.5,4.9 -3.19,8.85 2.94,5.9 0,4.16 1.22,3.44 3.22,14.12 8.84,2.6 6.63,-0.25 8.12,2.21 14.97,3.19 10.06,3.69 1.25,2.94 -6.4,2.97 -3.44,3.93 -6.13,0 0.97,11.28 -6.87,3.94 0,3.69 -1.22,3.69 -5.16,2.68 -0.5,2.47 2.94,4.44 -1.22,1.94 -2.94,2.22 -0.5,7.12 -1.97,0.5 -3.84,3.69 0.13,0.22 0,0 1.96,3.69 1.47,8.34 -0.97,3.94 -9.93,-6.78 -5,1.97 -8.03,6.37 -4.41,1.22 -5.91,-1.94 -6.37,-3.47 -4.44,-1.93 -4.66,0 -6.87,4.65 -9.59,0.75 -5.41,-1.5 -4.91,1 -8.12,2.69 -12.28,4.19 -3.44,5.15 -6.63,3.69 -2.93,2.72 -3.69,2.94 0.81,13.9 0.75,5.66 6.38,6.12 5.65,2.97 5.66,3.91 7.84,3.22 -2.43,6.62 -4.44,7.13 -2.69,5.65 -8.34,6.63 -7.63,2.94 -13.28,5.4 -13,-1.22 -8.37,-3.93 -10.82,-6.13 -16.22,-10.65 c -0.1,0.71 -0.53,1.33 -1.46,1.5 -2.01,0.46 -1.88,2.92 -3.44,4 -0.41,2.22 -1.53,4.34 -1.25,6.68 0,2.55 -2.93,3 -4.85,3.53 -1.94,0.42 -2.09,2.52 -3.12,3.91 -0.96,1.08 0.96,2.65 -1.09,3.13 -1.71,-0.19 -2.61,1.22 -2.97,2.68 0.58,2.96 -0.26,5.98 0.22,8.94 1.09,4.28 4.98,7.03 8.43,9.38 2.21,1.38 4.41,2.77 6.35,4.56 2.31,2.48 4.44,5.45 5.03,8.84 0.25,2.34 2.84,2.26 4.59,2.63 2.88,1.27 2.95,4.74 4.41,7 0.64,2.58 4.35,2.43 4.65,5.12 0.23,2.03 1.83,3.66 1.79,5.72 -0.23,2.07 3.51,0.12 2.62,1.78 -1.66,1.55 0.27,3.67 0.22,5.5 -0.25,3.18 1.12,6.11 1.47,9.22 0.32,1.3 0.35,3.73 2.06,3.78 1.18,-0.57 1.7,-2.37 0.59,-3.31 -0.53,-1.11 -0.64,-2.88 0,-3.91 1.99,0 0.61,2.52 1.78,3.41 0.59,1.17 0.51,2.67 2.06,3.19 2.96,1.33 5.48,3.31 7.91,5.43 1.77,0.75 3.38,2.18 5.31,2.35 1.04,-0.57 2.27,-2.62 3,-0.38 1.46,1.34 -0.45,2.35 -0.94,3.41 0.2,1.89 2.91,1.38 4.28,1.16 2.92,-0.23 5.83,0.1 8.75,0.18 2.79,-0.17 4.66,2.05 6.31,3.94 L 700,599.36 699.81,1.3622 z" id="pFond" class="T Fond" style="&#10;    stroke-width: 0px;&#10;"/>
  </g>
  <g id="gRiviere" style="fill:none;stroke:#0978ab;stroke-width:0.7">
    <path d="m 700.65,43.449 c 0.88,-6.465 -8.51,-7.438 -12.15,-3.713 -0.39,4.588 0.2,10.208 -4.23,13.183 -4.7,4.315 -8.89,-2.232 -11.43,-5.683 -0.98,-1.772 -2.96,-2.796 -4.98,-2.467" id="pSeine"/>
    <path d="m 312.9,259.86 c 3.23,3.06 8.05,-1.06 10.63,3.39 2.46,4.13 6.67,6.75 11.64,6.7 3.12,-2.01 6.18,-3.06 9.51,-0.7 5.27,0.23 12.41,1.71 15.17,-4.24 -0.12,-6.4 6.85,-4.68 10.38,-6.08 -1.06,-4.57 3.6,-7.51 6.53,-10.41 2.88,-3.38 -2.42,-6.98 -1.43,-11.01 -4.61,-1.71 -0.71,-7.13 1.59,-8.88 -0.4,-2.81 2.81,-3.24 3.04,-5.77" id="pRance"/>
    <path d="m 485.22,268.96 c 2.63,4.26 1.64,8.78 2.87,13.35 0.81,5.44 -5.94,4.91 -9.36,5.53 -5.2,1.48 -9.99,3.87 -13.55,7.92 -2.92,-3.26 -6.7,-2.41 -10.07,-0.79 -2.68,-2.09 -3.65,2.6 -6.27,-0.25 -4.21,0.52 -6.93,-1.93 -10.82,-1.88 -2.99,-0.68 -5.52,-3.92 -7.78,-0.88 -1.83,-0.99 -4.2,-3.75 -4.42,0.2 -3.69,3.57 -9.33,1.29 -13.85,2.92 -6.31,0.58 -4.5,8.23 -7.54,11.97 0.86,3.36 -3.23,6.94 2.3,7.53 0.69,3.51 1.58,7.42 -0.11,10.9 0.81,1.69 0.71,2.61 -1.16,3.31 1.4,2.53 0.86,4.16 -1.93,5.07 0.72,4 0.79,9.1 -4.22,10.18 -1.43,2.48 -4.94,2.99 -3.34,6.47 -0.51,2.54 -0.52,6.17 2.99,4.62 1.19,2.51 -4.12,4.61 -1.91,7.84 -0.37,3.11 -4.16,2.91 -6.22,5.08 -4.83,0.33 -7.91,6.21 -12.32,3.39 -3.46,0.91 -6.53,1.94 -8.89,4.6 -3.19,-0.5 -4.6,4.34 -2.37,5.65 -2.39,0.78 0.97,3.79 -2.14,4.51 -0.19,5.32 -5.71,-0.54 -8.95,1.58 -4.4,-1.31 -8.35,1.56 -12.71,1.31 -0.15,3.15 -4.38,4.43 -2.8,8.22 -1.44,5.05 -5.56,0.56 -7.52,5.16" id="pVilaine"/>
    <path d="m 710.38,414.69 c -4.5,1.62 -9.43,0.64 -13.85,2.57 -5.26,2.3 -10.62,4.31 -15.93,6.45 -3.7,3.38 -6.07,8.25 -11.91,8.02 -3.83,3.01 -8.17,5.19 -11.36,8.93 -4.63,1.78 -9.24,3.54 -13.42,6.34 -4.82,0.1 -9.75,0.97 -13.87,3.66 -5.13,1.87 -8.48,-5.09 -13.83,-5.3 -4.32,0.28 -7.26,-3.05 -10.15,-5.7 -3.52,-3.05 -6.42,-6.69 -11.08,-8.34 -4.3,-1.9 -7.95,-5.1 -9.41,-9.69 -2.3,-4.46 -8.08,-3.86 -12.28,-4.84 -5.42,-0.98 -10.67,1.32 -16.12,-0.36 -5.14,0.59 -12.04,-0.25 -14.66,5.51 -3.42,2.92 -7.9,5.54 -12.6,5.09 -5.11,-1.65 -9.69,-5.23 -15.28,-5.22 -5,-3.61 -9.57,0.33 -13.51,2.78 -4.28,1.39 -8.62,1.79 -13.13,1.25 -5.58,-1.21 -10.74,0.34 -15.09,3.75 -4.73,1.32 -10.66,0.57 -14.09,4.78 -2.16,4.96 -8.43,5.41 -11.19,9.62 -2.13,2.85 -6.06,3.48 -7.14,7.56 -2.61,3.36 -7.24,2.67 -10.71,4.14 -3.4,2.93 -8.37,2.69 -12.53,2.09 -2.58,-0.93 -4.97,-2.5 -7.83,-2.41" id="pLoire"/>
    <path d="m 628.63,451.3 c 2.94,4.56 7.68,6.08 12.76,6.82 5.82,-0.23 9.5,5.55 14.95,5.21 4.68,0.79 9.38,2.37 13.66,4.26 3.8,0.1 8.5,-0.34 11.13,2.11 0.63,3.91 6.6,3.95 6.87,8.23 0.16,4.52 1.79,8.82 2.36,13.24 3.22,4.34 2.7,10.72 -0.57,14.9 -0.84,3.58 -0.61,6.68 -2.76,9.8 -0.64,5.62 -0.13,11.12 0.98,16.71 1.57,4.41 0.39,9.06 3.27,13.06 2.31,3.47 1.44,7.74 4.1,10.85 0.22,5.39 6.79,6.1 5.9,11.59" id="pVienne"/>
    <path d="m 702.69,491.72 c -4.18,-2.89 -7.28,-7.09 -13.04,-4.77" id="pCreuse"/>
  </g>
  <g id="gTexte" style="font-size:15px;text-anchor:middle">
    
    <text x="470" y="181" id="tAvranchin"/>
    <text x="260" y="243" id="tDomnonée"><tspan x="260" y="243" id="tspan4588">Domnonée</tspan></text>
    <text x="454" y="271" id="tRennais"><tspan x="454" y="271" id="tspan4600">Rennais</tspan></text>
    <text x="581" y="308" id="tE2Eaux"/>
    <text x="155" y="295" id="tCornouaille"><tspan x="155" y="295" id="tspan4596">Cornouaille</tspan></text>
    <text x="294" y="364" id="tVannetais"><tspan x="294" y="364" id="tspan4592">Vannetais</tspan></text>
    <text x="404" y="421" id="tNantais"><tspan x="404" y="421" id="tspan4604">Nantais</tspan></text>
    <text x="419" y="471" id="tRetz"><tspan x="421" y="471">Pays </tspan><tspan x="419" y="490">de Retz</tspan></text>
    <text x="604" y="116" id="tNORMANDIE" style="font-size:20px"><tspan x="604" y="116" id="tspan4642">Normandie</tspan></text>
    <text x="580" y="235" id="tMAINE" style="font-size:20px"/>
    <text x="620" y="375" id="tANJOU" style="font-size:20px">Anjou</text>
    <text x="500" y="550" id="tPOITOU" style="font-size:20px">Poitou</text>
    
  </g>
  <g id="gLegende" style="font-size:11px">
    <rect width="300" height="60" x="10" y="470" id="rCadre" style="fill:#ffffff;fill-opacity:1;stroke:#010101;stroke-width:0.5"/>
    <rect width="33" height="15" x="20" y="480" id="r845"/>
    <rect width="33" height="15" x="20" y="505" id="r851"/>
    
    
    <text x="58" y="491" id="t845">La Bretagne de Nominoë (845)</text>
    <text x="58" y="516" id="t851">Les Marches de Bretagne (851)</text>
    
    
  </g>
</svg>