<?xml version="1.0" encoding="utf-8"?>
<svg xmlns:dc="http://purl.org/dc/elements/1.1/" xmlns:cc="http://creativecommons.org/ns#" xmlns:rdf="http://www.w3.org/1999/02/22-rdf-syntax-ns#" xmlns:svg="http://www.w3.org/2000/svg" xmlns="http://www.w3.org/2000/svg" xmlns:xlink="http://www.w3.org/1999/xlink" xmlns:sodipodi="http://sodipodi.sourceforge.net/DTD/sodipodi-0.dtd" xmlns:inkscape="http://www.inkscape.org/namespaces/inkscape" width="1112" height="751.12006" id="svg3337" sodipodi:version="0.32" inkscape:version="0.92.3 (2405546, 2018-03-11)" version="1.0" sodipodi:docname="Incursions_vikings_en_Bretagne-fr.svg" inkscape:output_extension="org.inkscape.output.svg.inkscape" inkscape:export-filename="D:\Wikipédia\Atelier graphique\Cartes\France Lambert-93\Vector pour topo map.png" inkscape:export-xdpi="90" inkscape:export-ydpi="90" style="display:inline" viewBox="0 0 1112 751.12006">
  <title id="title3154">Incursions vikings en Bretagne</title>
  <sodipodi:namedview id="base" pagecolor="#ffffff" bordercolor="#666666" borderopacity="1.0" gridtolerance="10000" guidetolerance="10" objecttolerance="10" inkscape:pageopacity="0.0" inkscape:pageshadow="2" inkscape:zoom="0.83296938" inkscape:cx="556" inkscape:cy="458.00003" inkscape:document-units="px" inkscape:current-layer="layer4" showgrid="false" inkscape:window-width="1568" inkscape:window-height="879" inkscape:window-x="32" inkscape:window-y="21" inkscape:window-maximized="1" showguides="true" inkscape:guide-bbox="true" borderlayer="true" inkscape:showpageshadow="false" inkscape:snap-page="true" fit-margin-top="0" fit-margin-left="0" fit-margin-right="0" fit-margin-bottom="0" />
  <defs id="defs3339" />
  <metadata id="metadata3342">
    <rdf:RDF>
      <cc:Work rdf:about="">
        <dc:format>image/svg+xml</dc:format>
        <dc:type rdf:resource="http://purl.org/dc/dcmitype/StillImage" />
        <cc:license rdf:resource="http://creativecommons.org/licenses/by-sa/4.0/" />
        <dc:title>Incursions vikings en Bretagne</dc:title>
        <dc:date>2014-08-15</dc:date>
        <dc:creator>
          <cc:Agent>
            <dc:title>Ivan d'Hostingue (user Sémhur in Wikimedia Commons)</dc:title>
          </cc:Agent>
        </dc:creator>
        <dc:source />
        <dc:description>Carte des incursions vikings en Bretagne de 868 à 939</dc:description>
        <dc:rights>
          <cc:Agent>
            <dc:title>Ivan d'Hostingue </dc:title>
          </cc:Agent>
        </dc:rights>
        <dc:publisher>
          <cc:Agent>
            <dc:title>Ivan d'Hostingue </dc:title>
          </cc:Agent>
        </dc:publisher>
        <dc:identifier>https://commons.wikimedia.org/wiki/File:Incursions_vikings_en_Bretagne-fr.svg</dc:identifier>
        <dc:language>fr-FR</dc:language>
        <dc:subject>
          <rdf:Bag>
            <rdf:li>Bretagne</rdf:li>
            <rdf:li />
          </rdf:Bag>
        </dc:subject>
        <dc:coverage>Carte de</dc:coverage>
      </cc:Work>
      <cc:License rdf:about="http://creativecommons.org/licenses/by-sa/4.0/">
        <cc:permits rdf:resource="http://creativecommons.org/ns#Reproduction" />
        <cc:permits rdf:resource="http://creativecommons.org/ns#Distribution" />
        <cc:requires rdf:resource="http://creativecommons.org/ns#Notice" />
        <cc:requires rdf:resource="http://creativecommons.org/ns#Attribution" />
        <cc:permits rdf:resource="http://creativecommons.org/ns#DerivativeWorks" />
        <cc:requires rdf:resource="http://creativecommons.org/ns#ShareAlike" />
      </cc:License>
    </rdf:RDF>
  </metadata>
  <g style="display:inline" inkscape:label="Background" id="Other_countries" inkscape:groupmode="layer" transform="translate(333.42796,-274.69203)">
    <path style="fill:#c6ecff;fill-opacity:1;fill-rule:nonzero;stroke:none" d="m 34.65625,475.88441 0,457.77064 556.07082,0 0,-457.77064 z" id="rect3334" transform="matrix(1.9997453,0,0,2.0010022,-402.73163,-677.55372)" inkscape:connector-curvature="0" sodipodi:nodetypes="ccccc" />
  </g>
  <g inkscape:groupmode="layer" id="Departements" inkscape:label="Departements" style="display:inline" transform="translate(333.42796,-274.69203)">
    <path id="path4299" style="fill:#3cd073;fill-opacity:1;fill-rule:nonzero;stroke:none;display:inline" d="m 336.54079,1137.9733 c -2.13078,0.103 -3.92785,1.8161 -5.84375,2.875 -2.56027,3.3101 1.26395,6.7805 3,9.5 0.96066,-0.066 1.07779,1.4602 1.9375,1.2187 2.53351,-1.7528 5.06306,-0.055 7.875,-1 2.29975,0.7847 4.38889,3.5444 7.21875,1.5 2.69129,-2.1255 5.57291,3.1417 7.625,0.4063 0.27102,-2.896 -3.33003,-4.3051 -5.59375,-5.375 -1.65413,-2.2953 -3.74571,-3.9679 -6.65625,-4.3125 -2.01747,-2.0931 -4.58062,-3.3684 -7.3125,-4.2813 -0.79575,-0.4046 -1.53974,-0.5656 -2.25,-0.5312 z m 26.96875,-105.5625 c -1.44887,0.015 -2.88244,0.2348 -4.25,0.75 -2.37441,2.1755 -6.19234,-1.2336 -7.625,0.5312 2.73465,3.219 4.70844,7.061 5.5,11.25 1.18389,3.7506 0.30717,9.6067 4.53125,11.4688 3.94919,-0.06 8.10361,-1.0552 12,0.4375 6.54293,3.7261 7.93546,11.7243 11.3125,17.8125 1.32597,1.7908 3.62708,4.2399 4.53125,0.375 1.03921,-3.9698 1.63609,-8.7715 -0.125,-12.5625 -1.08619,-4.0245 -5.75712,-5.0818 -8.4375,-7.9688 -1.32886,-3.0868 -6.61333,-2.0672 -6.5,-6 0.94399,-3.4524 2.94093,-7.5837 0.75,-11.0312 -2.90495,-3.0998 -7.34089,-5.1081 -11.6875,-5.0625 z m 84.96875,-88.00002 c -0.51422,-0.0673 -0.31495,0.47023 1.59375,2.125 1.44385,4.33089 5.81242,6.24512 9.3125,8.65625 -0.16555,-3.71267 -4.66907,-5.48371 -7,-7.96875 -0.18833,-0.94434 -3.04921,-2.70032 -3.90625,-2.8125 z m -236.875,-24.125 c -0.38627,-0.0127 -0.78989,0.0125 -1.21875,0.0625 -5.04214,-0.25884 -1.52094,4.1766 1.34375,2.40625 3.95625,-0.88913 2.57892,-2.38012 -0.125,-2.46875 z m -91.78125,-16.21875 c -3.08499,-0.28758 0.74304,7.43258 -2.90625,5.78125 -1.02848,2.64403 -0.26917,5.78018 1.96875,7.5625 -0.62542,3.87144 3.3368,6.29284 3.46875,10.03125 -1.52477,2.64943 -0.2796,5.05643 2.5,6.1875 1.42552,2.82324 4.87796,4.17085 7.8125,2.71875 2.75722,0.88068 5.21066,-0.5268 7.59375,-0.0312 2.46948,1.11019 4.88087,2.39821 7.34375,3.1875 2.36788,-3.05314 5.83653,-0.77115 8.1875,0.9375 2.68445,2.59782 5.05421,-0.17437 5.125,-3.09375 2.12829,-1.64768 3.55613,-4.36053 3.5,-6.90625 -2.14444,-1.94626 -6.03908,-0.34302 -8.84375,-0.84375 -4.33635,0.29993 -4.34295,-6.14898 -8.65625,-5.59375 -3.03916,-0.23806 -2.14572,-4.86936 -4.21875,-6.59375 0.55778,-3.35631 -2.67825,-4.68161 -5.4375,-4.8125 -3.32576,0.61919 -4.70723,-3.23091 -7.84375,-2.90625 -1.79165,-1.9662 -4.32472,-2.21344 -6.9375,-3.5625 -1.48969,-0.22332 -1.3148,-1.91165 -2.65625,-2.0625 z m 63.34375,-3.21875 c -1.85296,0.23539 0.58504,4.25641 3,3.90625 3.90787,1.76906 4.18866,0.34532 6.46875,-1.6875 -2.88733,0.76674 -5.68424,0.28056 -8.03125,-1.5625 l -0.0312,-0.0625 -0.34375,-0.4375 c -0.45269,-0.14449 -0.79779,-0.18988 -1.0625,-0.15625 z m 36.21875,-73 c -2.29918,1.99081 -3.68785,4.99953 -3.59375,8.0625 -0.63248,1.52585 -0.65303,8.54715 0.59375,4.53125 2.56415,-1.94855 -1.14269,-5.30652 2.09375,-7.03125 3.82792,0.11254 5.60853,-0.55613 1.5625,-2.71875 -2.23918,-0.52906 0.95457,-2.53339 -0.65625,-2.84375 z m 10.4375,-0.15625 c -0.0746,0.004 -0.15529,0.11903 -0.21875,0.34375 -0.49012,3.3491 -3.84642,1.86331 -2.53125,6.3125 0.29511,3.13573 2.32898,-3.46265 4.6875,-2.15625 3.38839,3.39794 1.01843,-1.4155 -0.6875,-2.875 -0.50609,0.0394 -0.92687,-1.64021 -1.25,-1.625 z m -170.1875,-17.3125 c -1.7551,-0.074 -3.12076,0.6932 -1.75,3.03125 3.1533,2.97528 6.73846,6.96586 11.375,6.71875 3.15884,-1.21097 6.04524,0.0101 8.71875,0.75 2.22135,-2.834 -0.78716,-7.22479 -4,-6.8125 -4.85821,1.06844 -7.82014,-4.80623 -12.5625,-3.34375 -0.57985,-0.17829 -1.19622,-0.31909 -1.78125,-0.34375 z m 86.71875,-21.03125 c -0.0629,-0.0138 -0.13563,-0.002 -0.21875,0.0312 0.69063,1.96413 -3.13807,5.5442 -2.25,5.96875 2.29367,-0.10781 6.95109,-2.8041 3.25,-4.5625 -0.34139,-0.2516 -0.34071,-1.34127 -0.78125,-1.4375 z m -431.625,-252.40625 c -4.84307,0.91219 1.79302,4.87823 0.40625,0 l -0.40625,0 z m -24.28125,-29.0625 c -1.94735,1.22077 -3.96212,2.44017 -6.65625,2.65625 -3.28035,-1.16544 -3.85872,2.32361 -6.6875,3 -2.5264,0.44811 -5.45304,5.42474 -1.0625,3.78125 2.44344,-0.29355 6.68826,-2.79964 8,0.21875 1.18578,2.41425 -6.3588,3.80564 -2.46875,4.59375 3.77318,0.2996 4.78647,-5.3501 8.53125,-3.9375 3.79527,1.8679 2.37958,-4.44452 5.875,-3.5625 4.20197,-0.77873 -4.45646,-1.27976 -1.84375,-4.75 -1.3127,-0.21176 -2.04022,-1.97456 -3.6875,-2 z m 251.5,-91.40625 c -1.43742,0.97188 -7.16595,0.44047 -3.5625,3.28125 2.88834,-0.94045 5.52083,0.366 8.03125,1.3125 1.70264,-1.05192 -3.10198,-4.05929 -4.46875,-4.59375 z m 103.53125,-19.75 c -0.21987,0.0153 -0.45454,0.0663 -0.71875,0.125 -0.36548,0.53535 -3.30229,2.97324 -0.78125,3.03125 3.22843,0.95737 4.79808,-3.38537 1.5,-3.15625 z m 136.6875,-18.375 c -0.48071,0.0469 -0.93746,0.33529 -1.4375,0.875 -4.32519,0.87265 -1.71334,1.71852 -2.46875,4.4375 -2.12477,2.35265 3.1158,6.69815 2.96875,2.21875 0.58628,-2.58438 1.91761,-4.78822 2.53125,-6.9375 -0.60521,-0.453 -1.11304,-0.6406 -1.59375,-0.59375 z M 509.50954,274.69203 c 0.70108,2.00132 1.62701,2.16982 3.375,0.59375 3.62466,0.75718 2.69806,7.39259 -1.15625,5.90625 -3.58855,-1.67303 -3.68194,3.25614 -3.71875,5.5625 -1.02041,3.98608 -3.05421,9.55164 0.625,12.65625 3.71261,0.4352 3.60174,3.11686 1.15625,5.3125 -1.24856,4.8911 0.29414,10.21277 1.5,15.0625 0.46242,1.86073 0.94541,7.05654 3.65625,5.4375 0.46838,-4.0629 2.38538,-8.64506 6.40625,-10.1875 3.55983,-1.13035 8.74878,0.51508 9.875,4.09375 -1.49645,2.34551 -3.60928,-3.4972 -6.5,-2.15625 -4.93806,-0.29145 -6.0725,5.91797 -4.25,9.40625 -0.79662,3.41418 -1.06096,6.89418 -1.40625,10.375 0.38168,3.03334 -1.50303,7.08856 0.5625,9.46875 4.19735,-0.91254 4.66255,2.33701 3.125,5.625 -0.80794,5.38028 -0.19321,2.12847 -2.6875,0 -1.89695,4.2826 -1.62933,9.21746 -2.375,13.78125 -1.29143,5.64437 -0.24575,12.44961 -4.6875,16.8125 -1.95367,1.2542 -6.00957,4.41534 -1.40625,2.5 4.24224,-0.71377 5.18198,3.89688 6.03125,6.9375 1.82999,7.58568 2.78724,15.54617 1.9375,23.375 -0.98856,4.51719 3.56491,6.31209 6.84375,7.8125 5.05764,2.29121 5.44133,8.06874 7.09375,12.625 0.72706,3.82249 4.78237,4.83048 8.0625,4.8125 2.21951,1.5523 5.61403,2.30289 6.75,4.875 -1.09792,3.83182 3.13709,3.1577 3.71875,0.21875 2.83853,-1.98599 6.37412,-1.32545 5.78125,2.59375 3.39389,1.66808 8.11392,1.25767 10.71875,4.46875 2.47643,4.1652 -1.20416,3.31192 -3.5625,1.5625 -4.43456,0.57424 -9.20143,-1.64752 -13.375,0.5625 -2.99364,0.57738 -5.06615,2.67767 -8.09375,2.4375 -1.54588,4.10807 -5.94243,0.22466 -8.875,1.46875 -1.96702,1.95307 -4.00445,-2.19225 -6.96875,-1.125 -2.57339,0.0357 -5.32289,-0.75098 -8,-1.0625 -0.6693,-0.0779 -1.34662,-0.12615 -2,-0.125 -0.32668,2.8e-4 -0.65864,0.009 -0.96875,0.0312 0.002,0.01 -0.002,0.0215 0,0.0312 -0.33201,0.0319 -0.65447,0.0647 -0.96875,0.125 -1.25705,0.24137 -2.45855,0.75758 -3.5625,1.71875 -3.19514,5.0585 -9.1483,7.40786 -14.875,7.875 -5.95505,0.17116 -11.85013,1.35475 -17.78125,1.3125 -3.66796,-0.17612 -6.49071,-1.12813 -7.34375,2.375 -4.10212,-3.09893 -9.16004,-1.41916 -13.8125,-2.125 -5.82249,-0.95409 -6.87796,-7.33446 -9.4375,-11.5625 -2.95974,-3.07042 1.12557,-6.66212 0.75,-10.21875 2.4228,-1.49468 6.81237,-3.41031 4.78125,-7.0625 -2.28296,-1.40276 -0.37031,-7.47002 -3.125,-5.28125 -2.68109,2.61588 -6.72287,2.61172 -9.5625,4.90625 -2.6915,-1.2585 -5.66032,-0.35068 -8.21875,-1.875 -2.54379,1.90722 -5.52493,1.28493 -2.21875,3.78125 -1.39328,2.8618 -5.17257,-1.26063 -7.625,0.1875 -4.11584,-0.15914 -5.05853,1.87365 -3.375,5.34375 -0.98563,5.19781 -6.90628,4.72838 -10.59375,6.84375 0.95657,3.12349 1.58595,4.6528 1.875,7.15625 2.08872,1.94341 0.55062,5.49679 3.6875,6.71875 -0.31694,3.22296 0.7917,5.09083 2.875,7.4375 1.69984,0.005 5.49697,-1.16155 7.0625,1.6875 -0.0746,2.23425 5.69455,5.69896 1.1875,5.65625 -1.81082,-0.98872 -6.02451,-5.46251 -4.9375,-0.5625 1.6382,2.20199 1.00193,5.76087 2.6875,7.5 3.7532,-1.37361 3.95185,2.76086 1.6875,4.78125 0.23655,1.43831 1.19987,1.15569 2.71875,1.15625 1.32958,0.20179 3.21576,0.66655 2.21875,2.84375 -0.62262,3.38088 -5.41136,0.50992 -5.78125,4.1875 -0.67315,4.23899 -5.33842,0.92967 -2.84375,-1.96875 2.11393,-2.51549 2.02643,-6.09978 -1.3125,-7.46875 -1.1894,-2.47678 -2.80334,-4.86134 -4.21875,-7.25 -3.18609,-2.03343 2.50144,-5.05064 -0.6875,-6.5 -3.75283,-0.17765 -3.4984,-4.50938 -4.21875,-7.03125 -3.13193,-2.20203 0.19998,-5.9135 -1.6875,-8.5 -3.42792,-0.24837 -5.4487,-1.21789 -4.40625,-5.25 -2.86944,-1.63724 -6.399,0.51282 -9.40625,0.75 -2.95878,-0.2921 -4.40497,-3.11724 -6.40625,0.0312 -2.77267,0.39021 -5.16242,1.75172 -7.8125,2.46875 0.0746,3.68208 3.56206,5.95195 5.1875,8.875 -2.60353,0.61963 -3.22088,-5.314 -5.84375,-3.3125 -1.7262,2.47271 -5.18729,5.17868 -3.8125,8.625 4.09683,0.34356 0.31855,5.16698 -2.0625,5.21875 -5.53733,-1.33483 0.5352,-9.39056 -4.46875,-11.25 -0.42426,3.13636 1.04526,6.94968 -1.03125,9.59375 -2.042,4.05654 -3.51669,1.90286 -3.03125,-1.78125 -1.82996,-1.91309 -2.38385,-4.33862 -2.65625,-7 -1.71404,-1.5975 -6.17005,-1.97134 -4.46875,-5.5625 1.82342,-2.86437 -3.08188,-4.76363 -0.6875,-7.53125 -0.59263,-3.08057 -4.23327,0.92018 -5.625,1.96875 -2.81852,2.79335 -7.06386,3.65294 -8.84375,7.4375 -2.00818,3.98145 -3.6615,0.13389 -5.46875,-1.71875 1.38523,-4.27708 7.13756,-5.27405 7.15625,-10.1875 -0.1186,-2.66082 4.26736,-4.8393 2.8125,-6.90625 -2.7551,0.16348 -6.224,-0.82547 -5.59375,-4.3125 0.41955,-4.73694 -4.05206,-1.78353 -3.40625,1.40625 0.78652,3.48478 -3.27106,4.04311 -5.5,5.28125 -2.00801,1.8569 -4.6406,2.02275 -6.8125,3.59375 -1.37204,2.56804 -4.82409,2.77049 -6.125,5.28125 -2.493,3.96259 -2.13639,-2.82526 -3.3125,-4.03125 -4.04402,-1.05368 -8.5051,0.33466 -12.5625,1.1875 -3.86829,-0.14638 -4.2328,3.19965 -0.34375,3.71875 4.13013,-0.0111 1.17974,3.97899 -0.40625,5.5 -3.57542,2.66673 -7.15565,5.43033 -10.75,8.0625 -2.30593,2.37213 -5.40434,0.0388 -7.8125,1.375 -1.99848,2.55536 -4.04275,5.30247 -6.09375,7.9375 -3.15404,2.32652 -3.84879,6.29309 -6.75,8.75 -3.23613,1.54819 -5.0662,4.63967 -7.0625,7.25 -3.41077,1.5572 -5.33212,-1.55569 -7.90625,-2.75 -4.36453,0.66965 -2.10262,5.79518 -2.5,8.65625 -0.21142,4.19095 -1.81422,5.11224 -3.4375,0.8125 -0.71209,-2.95417 -5.2151,-2.34843 -4.625,-5.84375 0.18717,-2.7097 -6.76274,-0.70083 -2.28125,-3.46875 1.81623,-2.14228 0.28961,-4.95902 1.25,-7.125 -2.95461,-1.05898 -6.06367,-1.98146 -8.90625,-3.34375 -3.03071,-1.0475 -2.61414,-4.86679 -5.28125,-6.25 -2.92948,-0.0662 -4.5268,-2.70019 -7.21875,-3.34375 -4.48345,-0.5631 -1.39103,-4.13505 -0.84375,-6.46875 -1.07894,-3.7853 -2.90938,-7.63252 -2,-11.75 0.65696,-4.16944 -4.70792,-4.46338 -5.5,-8 -1.57495,-4.49459 -7.98387,-1.72941 -9.9375,-5.65625 -1.56929,-2.357 0.44479,-7.62127 -3.96875,-7.03125 -1.74052,-2.14422 -4.86722,-2.81169 -5.8125,-5.53125 0.009,-2.88404 -5.67716,-2.45555 -3.5,-5.625 3.2602,-1.92688 -0.74047,-4.59553 1.6875,-6.8125 2.15808,-3.08507 -4.01144,-2.90083 -3.25,-5.84375 -0.30954,-2.48058 -2.83775,4.40707 -5.65625,1.96875 -3.90788,-2.57977 -9.59305,-1.09007 -12.90625,-4.65625 -0.50202,-1.81642 0.51512,-2.41695 1.125,-2.59375 -0.40255,0.0233 -1.07993,-0.005 -2.5,-0.125 -4.53055,0.6737 -1.80047,-2.89797 0.875,-3.34375 0.55797,-2.43235 6.51332,-3.04111 4.34375,-4.8125 -1.3389,-2.02371 2.37466,-5.8636 -2.3125,-5.90625 -2.83234,-1.40687 -5.93186,3.05295 -8.1875,-0.28125 -3.37689,-1.41066 -4.54213,3.06617 -5.625,5.375 -1.96712,3.3866 -0.74025,7.98884 -3.9375,10.6875 0.35151,3.35103 -3.3219,3.91589 -4.34375,6.53125 -1.82648,4.46095 -2.92441,1.43567 -1.3125,-1.65625 -0.60615,-5.46951 7.24435,-6.08419 6.84375,-11.46875 -0.65853,-3.4756 2.08128,-6.05072 2.90625,-9.0625 0.63485,-2.98137 -4.62878,-3.25885 -1.34375,-6.09375 1.87545,-2.72824 -0.11062,-5.49701 -0.15625,-8.21875 0.94178,-2.20184 -0.74177,-5.36556 -3.75,-2.90625 -1.61007,2.41032 -5.26546,1.54112 -6.59375,4.0625 -1.65277,3.05968 -3.93327,1.29119 -6.28125,2.28125 -1.91738,1.87386 -2.94317,5.12703 -6.40625,4.03125 -2.16128,3.61214 -1.0156,9.08336 -5.28125,11.5 -2.80233,0.78637 -4.36965,3.26733 -4.4375,5.96875 -1.21153,-2.74312 1.72887,-4.95383 2.4375,-7.5 0.83251,-3.1156 2.64565,-6.87416 1.21875,-9.9375 -3.96852,-1.86275 0.82635,-6.64414 -1.46875,-9.5 -4.26294,-1.73515 -6.12209,3.40615 -7.875,6.25 -1.22909,1.88971 -3.14658,6.80181 -5.28125,3.1875 -2.24549,-0.22609 -3.14144,4.62249 -6.25,1.71875 -3.1511,-1.43884 -6.59115,-0.47942 -8.96875,1.8125 -2.39652,2.43164 -5.83074,1.47337 -8.625,2.65625 -3.79225,0.66102 -1.8215,6.11163 -5.65625,6.5625 -2.6874,0.59175 -6.5702,2.6175 -8.75,0.3125 -1.64672,-2.40783 5.13876,-5.36045 0.875,-5.875 -3.30914,2.29667 -6.56982,-0.79442 -8.28125,-3.53125 -1.07921,-3.55056 -4.57023,-3.96479 -3.8125,0.0312 -2.28797,-2.03627 -4.0939,1.00163 -6.09375,-0.84375 -1.8703,-3.9345 -2.80298,3.3149 -5,2.6875 -2.33043,-1.48626 -4.86969,3.78345 -2.5,5 1.49021,2.6527 -2.54375,5.98434 -5.34375,5.71875 -3.67494,-1.78649 -4.77921,3.17437 -4.96875,5.8125 -0.44338,3.33523 0.20819,5.90545 3.84375,5.125 1.28479,2.25858 4.59213,4.16096 4.09375,7.28125 1.26214,2.629 5.60708,2.09043 0.46875,3.78125 -2.97537,0.0294 -5.74454,0.0222 -8.46875,1.375 -0.55789,2.84477 -0.25177,5.87761 -0.09375,8.78125 -0.87527,3.11432 3.79064,4.61116 2.0625,7.625 -1.08006,4.59223 -7.94552,3.93729 -8.9375,-0.34375 -1.45924,-3.63759 -4.01571,0.61478 -6.0625,1.28125 -3.60994,-0.14156 -2.78507,-3.91245 -1.03125,-5.9375 -0.56917,-2.54895 -4.71086,0.50491 -6.4375,1.21875 -3.50431,0.47587 -6.39708,-2.64808 -9.9375,-2.84375 -1.35034,-4.09844 -5.98152,-4.25098 -9.5625,-4.875 -3.10264,-1.36572 -6.25816,3.62352 -8.6875,0.28125 -1.93315,-1.08065 -3.8076,-3.45498 -5.625,-4.09375 -0.27107,3.25389 -0.93676,6.44151 -3.625,2.84375 -3.61313,0.51354 -0.54745,5.62408 -3.71875,6.53125 -3.14927,2.58958 1.16815,5.45114 0.625,8.375 0.031,4.88649 -3.11012,1.14635 -3.25,-1.59375 -3.27228,-3.36114 -1.25284,2.21914 -0.625,4.0625 0.08187,3.58946 1.41772,4.80689 1.53125,7.03125 -0.57131,2.03487 1.43231,7.84403 -1.625,7.0625 -0.23503,-3.59479 -3.23772,-5.2728 -6.34375,-6.09375 -3.285,-1.02069 -7.56792,-5.60847 -4.28125,-8.65625 3.76108,-2.03543 -2.53607,-2.76166 -4.21875,-3.0625 -1.88906,1.73902 -2.59867,5.92713 -5.9375,6.15625 -2.38798,2.8101 -2.73268,4.20659 -1.75,-0.5 1.04037,-2.93377 0.30299,-5.88091 -2.75,-7 -1.87537,-2.35487 1.62793,-6.06055 -1.90625,-6.875 -1.3718,-2.90601 0.20653,-6.78354 1.28125,-9.75 -0.47952,-2.46263 -5.98898,-1.44443 -6.125,1 -0.94197,3.26469 -3.75845,1.56098 -5.625,3.75 -2.81329,0.40116 -5.26257,1.04214 -7.9375,1.71875 -2.72035,1.40623 1.11855,7.37267 -2.9375,7.8125 -0.90874,3.67759 -1.00224,2.35848 -3.125,-0.65625 -1.41754,-3.49882 -4.81484,1.08436 -6.5,-2.28125 -4.86029,-0.55147 -9.45836,1.5807 -14.25,2.0625 -5.25804,-0.003 -7.50522,5.4754 -11.8125,7.40625 -2.93942,2.41052 -0.48691,6.37518 3,4.90625 3.61596,1.85229 -3.03442,3.2133 -4.71875,2.1875 -2.61953,-1.66115 -5.62938,-2.04906 -8.59375,-0.875 -3.47806,-0.39753 -5.91412,1.81926 -8.78125,3.21875 -0.0214,3.31784 -5.45144,2.54206 -4.71875,-0.90625 2.58264,-1.06194 3.65246,-3.67236 3.6875,-6.34375 -1.06037,-2.284 -3.49317,-4.13432 -6.125,-3.8125 -1.21262,-2.59261 -4.98357,-2.51238 -7.5,-1.375 -3.15024,2.54199 -6.32001,5.27275 -10.375,6.28125 -2.10299,1.04098 -6.95003,-0.36701 -7.0625,2.53125 0.78115,1.67026 7.31885,1.96961 4.25,4.25 -2.78887,-1.40185 -5.35865,-0.14889 -7.75,0.4375 -1.84247,-3.4558 -4.04018,1.69194 -6.21875,2.09375 -3.26209,0.33113 -8.67776,2.75562 -9.96875,-1.6875 -2.25417,-0.34806 -5.18808,-0.62989 -7.53125,-0.875 0.27025,4.03561 -2.82108,2.72446 -5.28125,4.03125 -2.44026,3.54831 6.10662,2.00717 3,4.96875 -2.75378,2.60599 3.10802,2.75741 4.75,3.84375 -2.93717,0.92939 -6.35134,2.06664 -9.34375,0.75 -3.60246,-0.32485 -4.24569,-1.83664 -5.5,-4.03125 -3.54089,0.40754 -2.99159,5.11039 -3.375,7.71875 -1.97143,4.60548 3.61182,1.20987 4.65625,4.40625 0.29467,2.90809 3.07251,5.7328 -1.90625,4.78125 0.37643,-3.44552 -3.17465,-4.47168 -5.46875,-5.9375 -2.23059,-3.04688 -4.9539,0.32485 -7.5625,0.375 -2.98269,-1.45824 -4.5886,-0.12469 -6.6875,1.9375 -2.0452,-2.45118 -7.9465,-1.01791 -6.0625,2.71875 0.76813,4.71205 -3.25749,-0.33529 -5.125,0.1875 -2.70741,2.08062 -4.98401,5.10443 -5.875,8.53125 -3.61954,0.38173 -2.7053,4.85984 -4.90625,6.5625 -4.37352,2.77441 -1.19109,7.98623 0,11.65625 -0.046,3.70592 4.87275,1.90509 5.09375,4.5 -1.84333,4.25857 -3.89451,-0.83677 -5.625,2.625 -3.40344,3.00557 -2.10218,8.69037 -4.09375,11.59375 -2.58088,2.22505 -0.46684,5.29031 0.625,7.53125 3.46467,0.77972 -0.56627,5.08774 2.6875,6.625 3.59564,1.64396 2.17737,6.86327 -1.40625,7.3125 -4.43554,-0.26966 -0.50717,3.77186 -0.9375,6.09375 1.57722,2.84362 1.67732,8.15216 6.15625,7.75 3.81874,-1.69665 7.8464,0.48038 11.625,-0.6875 3.78838,-0.84608 1.20807,-4.97088 3.03125,-7 3.10733,-2.51813 6.7239,-0.53455 9.625,1.125 2.78718,0.16987 4.73156,1.30471 6.40625,3.46875 6.45572,1.07355 11.58672,-4.04759 17.5,-5.5625 6.69295,-0.16072 11.10815,-5.86644 17.3125,-7.5625 3.89618,-2.14042 8.37064,-2.64009 12.375,-4.5 3.98634,-0.49534 8.24142,-0.28032 11.84375,-2.4375 6.79029,-1.21709 12.78,-4.77926 18.9375,-7.625 3.23259,-0.26164 -1.41476,3.93194 -3.0625,4.3125 -5.45826,4.32494 -12.5587,5.71928 -18.71875,8.71875 -3.57192,0.41121 -4.72931,3.85774 -7.09375,5.875 -3.50137,1.21208 -6.34385,4.49801 -5.625,8.4375 1.45831,2.86338 -5.1002,4.4113 -2.0625,6.15625 3.36832,-1.05644 6.65972,-2.59724 10.0625,-3.75 5.743,-0.46537 -2.95971,3.06542 0.40625,4.53125 2.66012,-0.36405 6.21639,0.62479 8.28125,-1.65625 1.34124,-2.03505 2.05493,-6.95745 5.625,-5.125 3.3376,1.74136 4.6329,-3.24524 6.78125,-3.09375 -2.91126,2.73432 -0.31086,5.36059 2.875,3.375 1.47443,-2.18335 3.16424,-4.88845 6.46875,-3.25 5.49601,-0.36971 -1.49277,-0.25191 -1.5,2.3125 1.97815,3.02201 -3.3246,3.60546 -5.28125,4.03125 1.28985,2.73227 -2.58757,3.06796 -4,5.5 -0.99506,3.05191 5.15052,-0.7345 6.375,2.28125 2.45683,0.81713 5.43029,-4.9986 5.15625,0.75 2.65923,0.18361 3.84121,3.30878 6.25,3.28125 1.83012,-1.91702 5.00712,-3.97984 2.6875,0 -0.46887,1.59873 3.73783,2.59307 6.125,2.3125 1.52211,-0.0734 8.37677,-0.27526 4.09375,1.125 -3.05076,2.11471 -6.53327,0.76294 -9.8125,0.34375 -2.95895,1.59673 -5.985,5.8372 -9.65625,3.40625 -5.05712,0.0972 -1.06201,-3.32336 1.96875,-2.5 0.39375,-2.28613 -5.06459,-1.53564 -7.125,-2.0625 -4.41142,-0.95834 -7.84502,2.34821 -12.09375,2.65625 -3.48409,2.08498 -7.39947,3.47094 -11.46875,3.375 -3.64534,0.0755 -4.61321,-3.4789 -5.59375,-6.25 -4.04634,-0.29442 -8.70315,-0.57956 -12.21875,1.71875 -2.42837,0.0318 -6.19258,2.57525 -7.75,0.90625 0.2378,-2.27677 -3.65274,-5.72363 -4.15625,-1.8125 -1.27359,3.76897 -4.92134,0.0133 -6.09375,-2 -3.13908,-2.70362 2.77113,-4.81357 1.09375,-8.03125 -0.18428,-2.55371 4.38373,-4.85427 2.28125,-7.0625 -3.22319,-0.21483 -6.48863,2.11022 -8.84375,4.28125 -3.58169,1.90653 -2.43056,6.12471 -1.375,9.1875 2.15146,3.15607 -0.41362,9.75258 -4.71875,7.3125 -1.76449,-2.22149 -4.94533,-2.74545 -6.65625,-0.1875 0.77846,2.21674 0.42687,5.32089 0.3125,7.625 1.9547,-3.35443 4.40378,-0.28837 5.9375,1.4375 3.0656,2.28741 5.90533,-1.07719 8.96875,-0.6875 4.16458,0.0966 4.52648,6.21138 0.65625,7.21875 -3.99645,0.7607 -1.45907,4.92767 -0.625,7.3125 2.13254,3.86366 3.22211,8.55465 0.9375,12.65625 -3.16397,2.73813 0.86872,6.07659 3.3125,3.15625 1.13122,-4.52846 5.88053,-6.45202 7.46875,-10.65625 0.56428,-3.32691 4.10229,-5.88113 3,-9.375 2.0033,-3.65408 7.63649,-4.16916 11.0625,-2.0625 3.01505,0.0237 4.76662,-0.88064 5.96875,2.75 2.58674,0.29779 4.00485,2.90538 6.4375,3.28125 2.8067,-1.67636 5.57759,-0.39031 5.875,2.9375 1.38646,4.87711 6.613,1.34072 9.96875,1.78125 4.7972,1.55014 7.67552,7.2855 7.4375,12.15625 -0.63432,3.30789 1.06953,5.49405 4.125,6.09375 1.95664,3.47575 0.88612,8.48238 -1,11.71875 0.94523,2.88065 -0.88197,5.47971 -1.78125,8.15625 -1.22434,4.03419 -5.02722,0.97988 -7.125,0.15625 -4.31115,0.71649 -6.33621,-5.55266 -10.84375,-3.4375 -4.3218,1.798 -9.11811,1.29425 -13.5625,2.375 -3.64406,2.88907 -9.27361,-0.15749 -12.375,3.5 -4.25008,4.06 -10.49906,-0.84233 -15.03125,2.75 -1.99929,2.06723 -4.70157,3.146 -7.5625,2.125 -3.41032,-1.97785 -6.82426,0.0358 -9.90625,1.53125 -3.38103,0.56752 -7.02551,0.76381 -10.34375,0.0937 -3.33945,-1.57906 -3.98107,4.08052 -7.34375,2.34375 -2.26818,-0.0298 -6.97538,-2.59211 -6.84375,1.40625 0.43528,2.58792 1.59338,6.2523 -2.21875,6.6875 -4.27993,1.56346 2.6633,2.5156 4.53125,2.46875 1.43072,3.87846 6.32459,1.96612 9.28125,3.5625 2.60358,1.84032 5.64307,-1.58736 7.6875,-0.125 0.97221,3.78032 5.5302,2.05456 8.125,3.65625 1.8407,1.74198 2.07237,5.10093 5.40625,5.1875 4.79508,1.38619 5.8247,-4.81278 9.8125,-5.9375 2.83145,-0.59195 -0.0655,5.4408 4.3125,4.8125 4.56898,-0.20872 7.04988,3.89205 10.09375,6.53125 5.54524,4.56313 11.77767,9.05375 14.8125,15.75 3.54451,3.6373 4.85871,8.60631 7.1875,13 2.7897,3.45008 3.6966,7.62556 5.0625,11.71875 1.48265,4.8068 3.82393,10.68572 1.0625,15.40625 -2.59184,0.71791 -7.35177,1.92285 -5.46875,5.625 1.37426,2.11763 -1.04217,6.6778 3.34375,6.0625 2.87515,-1.10009 5.41536,0.0159 8.1875,0.46875 2.86714,-1.50874 5.36004,0.49478 7.84375,1.71875 2.7639,-1.32931 5.09433,1.85576 8.09375,1.09375 3.00703,-1.15886 6.06045,-1.30817 9.25,-1.125 2.71951,-0.92488 5.28319,-1.99763 8.375,-1.9375 2.4359,-3.24458 5.56749,-6.20642 6.71875,-10.15625 0.55638,-4.21122 -7.43845,0.13517 -5.84375,-4.25 3.77198,-2.52615 -2.45025,-1.09129 -2.15625,-4.46875 -1.46475,-2.90458 0.75261,-5.95695 1.75,-8.59375 3.65693,-1.33106 2.99125,3.63117 4.3125,5.5625 2.74144,0.91065 2.10539,5.76536 5.4375,3.28125 1.37642,-2.84484 4.09074,-3.15887 6.625,-3.625 0.96194,-2.58215 -3.18645,-4.28974 -2.4375,-7.34375 -1.82391,-2.59245 -5.44643,-4.48728 -4.5625,-8.3125 -0.24156,-3.21153 3.21697,-6.24193 2.15625,-1.34375 -0.48419,3.53638 2.69848,5.621 3.34375,8.65625 3.8289,1.24019 3.05225,2.0047 3.875,4.84375 2.04659,1.51718 4.02523,4.47648 6.875,2.4375 2.86552,-2.11225 5.76021,0.91185 6.65625,3.53125 -0.07991,4.4172 3.05413,2.95509 3.625,-0.34375 2.05083,0.76672 4.67016,0.18787 6.90625,0.125 1.08034,3.41399 -3.9569,2.78475 -5.71875,4.3125 3.65166,-0.9517 7.19785,-2.22083 10.71875,-3.625 1.74504,-2.59076 -1.22399,-5.97147 0.15625,-8.90625 0.44874,-3.52512 -3.44307,-3.61239 1.03125,-5.21875 2.07453,-1.18938 4.67435,1.83874 6.9375,1.125 0.16178,3.01346 3.75622,3.32295 4.15625,6.25 0.92896,3.26816 5.39773,2.01516 6.09375,5.4375 1.97149,1.7478 -3.9204,3.20015 1.15625,4.5625 4.49691,-0.49331 1.67785,2.56454 2.1875,5.09375 1.89625,3.30976 5.12898,5.78813 7.6875,8.65625 3.16191,1.41915 2.57902,4.57619 2.78125,7.3125 2.40065,-0.6402 4.18008,-4.34016 7.40625,-2.5625 4.52718,3.27106 11.28397,3.93872 15.96875,0.75 2.03884,-1.84199 3.81798,-3.95497 6.9375,-3.59375 3.9013,-2.7786 0.33273,3.48877 4,4.21875 2.48718,1.43963 4.49734,5.39783 7.71875,4.25 2.42062,-0.0785 6.4645,-1.56722 7.40625,1.65625 4.15558,2.97182 9.84474,2.01948 14.71875,2.59375 3.72789,-0.43315 6.35562,3.14996 9.9375,2.21875 1.51269,-1.44868 2.4999,-1.61732 3.15625,-1.4375 0.65039,-2.67855 1.71128,-5.23508 1.375,-7.6875 -0.04747,-0.34622 -0.11042,-0.68857 -0.21875,-1.03125 0.1091,0.34012 0.16594,0.68431 0.21875,1.03125 0.39047,2.56508 -0.63409,5.28521 -1.375,7.6875 0.76843,0.57601 1.42768,2.30065 2.09375,3.8125 4.43091,2.67347 5.08743,8.25486 6.78125,12.71875 2.21534,1.54069 2.43902,4.53191 4.8125,5.78125 2.04947,1.50118 3.26075,4.91401 6.53125,3.40625 2.99975,-2.19005 6.55382,-1.24237 9.9375,-1 3.78575,0.92305 9.48046,-2.88602 7.4375,-7.0625 -0.43563,-3.17325 -4.01893,-3.74514 -6.03125,-3.75 1.98037,-3.52798 6.2277,1.38697 9,-0.5 0.80424,-2.5354 2.72818,-4.56259 5.21875,-5.46875 3.76503,0.85737 2.76865,-4.23931 4.46875,-4.96875 4.16902,0.64504 4.52466,-5.17079 8.21875,-5.5625 1.5789,1.41973 -3.54937,3.12362 -3.84375,5.5625 0.0338,3.92853 -2.12891,7.12787 -4.9375,9.65625 -1.16855,2.72493 -6.19693,0.62242 -5.75,4.0625 2.22363,3.3356 -2.01173,4.67166 -3.25,6.25 1.28291,3.08461 4.48609,-2.08096 7.03125,0.28125 3.31809,0.004 6.12455,1.8588 8.8125,3.5625 3.19835,2.53125 0.58511,5.4045 -2.03125,2.21875 -2.36714,-1.14233 -4.55977,-3.37504 -7.34375,-1.65625 -2.02724,-0.86106 -8.52139,0.49289 -5.25,1.8125 2.27725,-1.75484 5.65532,-0.35827 8.3125,-1.03125 3.61686,2.01915 7.52016,3.83477 11.21875,5.6875 4.5929,1.63258 8.08226,5.0707 10.28125,9.375 2.83914,3.0297 4.79519,-1.50593 3.78125,-4.03125 -1.63663,-3.30122 2.12053,-3.93608 3.625,-5.71875 0.82487,-2.06267 -4.78859,-6.47413 -0.5625,-4.34375 4.4968,2.09466 0.84782,-3.9354 3.84375,-4.6875 2.98155,0.89031 6.46502,0.61264 4.34375,-3.34375 -0.78223,-2.83786 1.03753,-8.03861 -3.5625,-8.125 -4.04999,0.18477 -1.78643,-5.76659 0.875,-2.6875 2.21646,0.44841 4.89408,4.38927 6.75,1.625 -0.27344,-4.1997 4.51454,-3.91616 2.15625,0.0312 0.11064,2.04547 -1.50223,7.38406 2.1875,6.03125 2.36957,-3.45255 3.81411,-0.66314 3.125,2.53125 -2.32469,2.41038 2.22971,6.59446 -0.28125,7.09375 -3.11137,-1.66242 -5.17465,1.58556 -7.40625,3.125 -1.68266,3.04407 -5.15567,1.14681 -7.71875,2.46875 -1.5694,2.14055 -5.3732,3.48321 -5.03125,6.625 1.26363,2.81158 0.50483,5.61807 -0.4375,8.3125 1.35712,3.7517 5.69288,5.70284 8.875,7.9375 2.51094,1.22898 4.28635,3.00069 5,5.75 3.59246,5.88614 3.8482,13.01018 2.625,19.625 0.11539,3.02855 -2.04214,5.2056 -3.71875,7.15625 0.57026,3.87117 2.10029,7.86147 2.8125,11.84375 0.70777,1.6507 -0.12058,7.25425 2.5625,5.75 2.7872,-2.16179 4.16662,3.32625 7.28125,1.53125 4.45635,0.50805 0.24005,-1.77954 0.0312,-4.40625 -2.6599,-0.82265 -4.25891,-3.35856 -5.65625,-5.46875 0.90843,-3.1971 -0.60112,-6.09136 -1.75,-8.875 -0.34659,-5.77558 -0.29816,-11.8763 1.59375,-17.375 0.23637,-2.34175 -2.91891,-4.09222 -1.46875,-7.40625 0.91363,-3.85731 3.68142,1.42177 5.46875,2.03125 5.13377,0.87308 1.6147,2.94045 0.0937,4.46875 2.224,3.1375 5.9604,1.08784 8.875,0.59375 3.429,1.40736 4.28706,-3.81002 7.4375,-2 2.16506,1.75995 5.98869,2.758 3.84375,-1.28125 0.23805,-2.64552 -2.4803,-7.59719 1.1875,-8.5 2.58118,3.56452 0.35763,9.67526 4.1875,12.53125 4.34473,0.8051 1.91847,-3.68289 1.09375,-5.71875 0.88215,-2.63303 3.50665,2.76162 5.5,3.28125 2.07965,1.60714 -1.37157,6.85613 2.65625,5.53125 2.01327,-4.21407 2.62653,1.81567 5.46875,1.65625 2.9858,-1.24659 -0.91888,-4.63739 -1.6875,-6.53125 -0.50489,-3.02253 -5.46195,-3.88922 -4.125,-7.28125 -1.71602,-3.16841 -0.0513,-5.63283 1,-8.59375 0.49208,-3.01784 -2.56406,-4.12722 -3,-6.65625 -1.64618,-1.08012 -2.95695,-7.31212 0.375,-5 1.12977,2.31917 1.58705,5.0253 3.71875,6.75 0.10971,2.78392 7.39879,0.57057 2.71875,3.0625 -1.94655,3.17805 0.55078,7.07461 0.84375,10.46875 1.15731,-1.67711 2.31435,-2.82531 5.125,-2.65625 1.20312,1.989 -1.43324,7.46444 1.03125,3.0625 2.09433,0.97399 4.03011,4.63407 6.75,2.1875 0.82399,-2.10869 -0.67725,-7.38515 3.75,-4.46875 4.27682,2.09772 2.45557,-2.99148 3.46875,-4.625 0.4838,-3.59976 2.18796,-3.41348 5.65625,-2.3125 3.14453,1.72083 5.98514,-2.63316 8.9375,-0.34375 3.44321,0.62174 5.8866,-2.86733 2.09375,-4.6875 -0.83633,-3.8761 3.09986,1.29668 5.125,0.6875 2.8376,-2.84343 2.95113,-0.66731 4.21875,2.6875 1.90736,1.77967 4.7381,4.50529 0.4375,2.5625 -2.06011,-0.17541 -6.2671,-4.2808 -6.625,-0.71875 3.01588,1.56442 5.85402,3.41771 8.375,5.71875 1.8212,0.53171 7.0536,0.95649 5.4375,3.78125 -0.0313,0.86438 5.52952,-2.4397 2.125,-4.28125 -4.11659,-2.24903 1.7445,-3.18261 2.625,-2.3125 0.74149,-2.68686 -0.63862,-5.40038 -2.9375,-6.6875 0.10296,-3.82032 4.55664,-0.15725 4.25,2.3125 1.55323,2.13255 3.3697,4.63256 1.375,7.21875 0.97327,3.50122 -1.65811,4.67643 -3.53125,6.59375 -1.44537,3.38831 -3.2274,0.0702 -3.40625,4.71875 -2.35664,1.66869 -3.38227,3.8031 -2.21875,6.6875 -3.33545,0.26538 -1.40362,5.99426 -5.40625,3.65625 -2.60033,1.2247 -4.81665,-0.92965 -7.34375,-0.71875 -0.11963,-3.86241 -4.43533,-3.13217 -5,0.125 -2.07902,-0.38194 -1.01944,-6.76131 -4.1875,-4.125 0.70507,4.28378 -0.51293,5.11899 -4.03125,3 -3.31174,-2.30353 -4.47665,4.82036 -5.25,0.3125 0.55007,-3.32278 -3.78578,-3.70423 -5.46875,-5.375 -2.70112,1.17734 -5.14417,0.0542 -7.59375,0.0625 -2.49169,1.51779 -2.13195,6.18095 1.46875,6 2.69478,0.33874 0.0768,2.98432 4.6875,2.53125 4.35249,2.26866 8.66379,6.24346 8.875,11.4375 -0.25026,3.71153 3.57694,4.30558 6.15625,5.40625 2.63566,0.21034 6.04229,3.08909 8,0.25 2.14157,-3.60982 6.4953,-3.2929 10.1875,-3.53125 2.94021,-1.0605 6.4595,-2.72814 9.4375,-0.5625 2.21699,0.43884 5.25235,3.73032 7.0625,1.46875 2.41543,-2.64474 3.70674,-6.36021 1.78125,-9.71875 2.80319,1.23853 5.42809,3.03751 8.6875,2.25 3.67256,0.65598 3.38911,-5.38103 0,-5.15625 -2.46976,-1.0244 4.44941,-2.91061 5.5625,-0.96875 3.11147,0.26641 5.80726,-2.17149 8.0625,-3.5 -0.54784,3.04895 -2.67672,5.67253 -5.5625,6.75 -3.86045,-0.0217 -1.7278,4.72358 -5.21875,5.09375 -4.80667,0.64987 1.3077,3.36383 2.875,0.53125 3.63738,-4.36471 9.7191,-1.24913 14.4375,-2.25 3.0848,-3.90887 10.01316,-5.59954 13.09375,-0.78125 2.82728,1.06768 6.32065,0.70004 8.90625,2.78125 2.36466,3.04959 6.50143,3.00072 10,3.6875 3.21857,0.69811 5.94847,-4.64034 8.625,-1.25 3.24776,0.77757 6.20049,1.60547 1.03125,2.1875 -2.94454,-1.94536 -5.03649,0.0915 -7.21875,1.53125 -3.18904,-0.57797 -6.46287,-2.13179 -9.75,-0.53125 -2.17752,3.03332 -4.84072,-0.61245 -7.4375,-0.53125 -3.8857,-0.85621 -4.10414,3.91192 -2.84375,6.4375 2.47706,2.47129 0.36377,5.19861 0.28125,8.0625 -0.70251,3.0891 3.30713,6.02648 5.375,2.96875 0.7085,-0.67561 1.50385,-0.88442 2.1875,-0.71875 0.87679,0.0395 1.63148,0.47146 2.21875,1.0625 1.17453,1.18209 1.71662,3.04148 0.53125,4.4375 -2.6785,2.51904 0.72311,6.04058 3.65625,5.5 2.5611,-1.16264 5.19778,-0.74537 7.5625,0.5 3.43015,0.42572 2.10149,4.91709 -0.1875,5.84375 -1.79073,-2.21085 -4.26619,-2.39348 -6.90625,-1.875 -0.45586,1.5171 -2.92903,7.52648 -3.15625,3.875 1.79859,-3.60473 -2.96646,-3.16494 -4.4375,-4.6875 -0.67987,-3.7062 -4.63818,-1.22955 -5.84375,0.75 -4.26411,1.98419 -6.47854,7.02744 -11.15625,8.46875 -1.64244,1.06345 -7.11074,1.17193 -4.90625,4 3.83285,0.0795 7.34376,1.68588 9.53125,4.875 3.90552,3.78672 3.40594,9.32769 2.375,14.1875 1.38734,2.93845 4.4522,-2.03614 3.40625,-3.90625 -3.22645,-2.60911 1.83963,-5.80624 2,-1.53125 2.75796,1.70881 7.01177,2.60091 8,6.1875 0.56587,2.6253 3.94263,4.15022 2.53125,7.34375 -1.56143,4.65578 -7.38575,3.99076 -11.28125,3.28125 -4.09205,0.50901 -4.50799,-4.70552 -7.96875,-5.375 -2.11841,-1.07806 -7.34861,-0.83699 -6.03125,2.65625 3.02914,1.50062 6.33996,2.28901 9.28125,4 3.89447,2.93323 8.96292,3.57943 13.09375,5.84375 1.55839,2.18619 7.51253,3.93389 7,-0.25 -1.78077,-3.1365 1.29413,-5.84181 4.4375,-5.28125 5.21306,1.08858 11.9466,1.36738 14.78125,6.65625 0.6481,3.90573 4.97146,4.02887 7.25,6.5 3.0016,3.93439 8.74188,2.87092 12.0625,-0.15625 2.00648,-2.50844 4.10836,-5.2602 7.71875,-5.15625 2.64532,-0.6423 3.45017,-4.10882 6.71875,-4 3.937,0.004 2.91664,-4.79704 5.46875,-6.5625 0.13797,-2.62031 0.84619,-5.46351 3.65625,-6.40625 2.42523,-0.77321 6.00603,-3.21861 8.15625,-0.59375 3.62068,-0.60411 7.28163,-0.57155 10.9375,-0.5 3.76356,0.33447 7.1209,-1.15242 10.3125,-2.96875 4.56979,-1.20294 9.86505,-0.87439 13.40625,2.59375 2.8238,1.06485 6.12588,1.02325 6.75,4.5625 1.99299,1.40721 6.93725,2.93229 7.8125,-0.34375 5.03089,2.53052 11.13339,3.42716 15.0625,7.90625 4.19325,3.68501 7.93703,7.88054 10.96875,12.625 3.39457,4.84018 9.14119,6.56096 14.34375,8.6875 2.19228,1.42491 7.02999,0.35219 7.8125,2.1875 -3.8828,1.66921 -8.3019,0.52944 -12.375,0.28125 -4.04232,0.002 -7.77643,-1.91397 -9.625,-5.59375 -2.4705,-5.76844 -10.11016,-3.02916 -14.125,-6.875 -3.61712,-1.15899 -6.70284,-3.4424 -8.875,-6.46875 -3.81964,-3.27514 2.8736,-2.90958 3.28125,-2.4375 -2.11375,-2.94788 -5.67968,-5.27522 -9.375,-5.4375 1.11348,1.95493 2.43107,5.28835 -1.96875,3.71875 -2.46602,-2.21909 -5.70341,-1.74559 -8.71875,-1.5625 -3.17896,0.14484 -5.28131,-1.86966 -7.3125,-3.96875 -1.64747,-3.3395 -5.0217,-1.55126 -6.53125,0.8125 -5.4736,3.35479 -12.25607,2.85751 -18.4375,3.75 -3.42049,-0.53743 -6.01587,1.67727 -9.15625,2.4375 -5.04182,1.67576 -1.33571,8.03601 -3.59375,11.59375 -3.13992,4.04653 2.49867,7.18562 3.375,10.96875 0.71761,4.69415 0.22085,9.93748 -1.15625,14.5625 -1.02658,4.14721 -5.79789,2.88274 -8.875,3.1875 -4.86455,0.47552 -6.21178,6.3845 -10.71875,7.625 2.26864,1.3891 5.57549,1.25095 7.34375,4.15625 3.49899,-0.83229 7.21063,-0.80803 10.625,0.28125 3.68707,2.58947 7.98786,2.75707 12.34375,2.49997 3.66279,0.8401 6.78476,3.4787 10.46875,4.375 5.432,1.5416 8.48767,6.5186 12.75,9.7813 3.82041,3.3416 6.07699,7.7107 8.1875,12.2187 1.07657,1.1442 1.44066,2.5676 1.15625,4.0313 -0.34448,0.9187 -1.35615,1.8839 -2.96875,2.1875 -4.00128,0.9762 -3.68418,5.906 -6.78125,8.0937 -0.75912,4.4546 -2.87755,8.695 -2.25,13.375 0.0293,5.0922 -5.80872,6.0731 -9.625,7.1875 -3.88175,0.8895 -4.15973,5.1004 -6.1875,7.9063 -1.88989,2.1737 1.99757,5.3138 -2.09375,6.3125 -3.41664,-0.3197 -5.196,2.4997 -5.875,5.4375 1.24404,5.9001 -0.30832,11.971 0.71875,17.875 2.30431,8.5239 10.12396,13.8699 17.09375,18.4687 4.44295,2.708 8.88569,5.5142 12.8125,9.0313 4.69334,4.8951 9.01741,10.7554 10.28125,17.5312 0.56421,4.6744 5.76004,4.4462 9.28125,5.125 5.7928,2.4667 6.02517,9.4044 9,13.875 1.35899,5.1534 8.75712,4.7899 9.4375,10.1563 0.49364,4.0444 3.72167,7.2473 3.6875,11.375 -0.40046,4.1401 7.0728,0.1555 5.34375,3.5 -0.55678,0.5304 -0.9265,1.0728 -1.125,1.6562 l 297.21875,0 c -0.3604,-0.7297 -0.6543,-1.4602 -0.8437,-2.2187 0.1863,0.7572 0.4864,1.4903 0.8437,2.2187 l 13.8125,0 0,-179.3125 0,-736.68747 -269.0625,0 z" inkscape:connector-curvature="0" />
  </g>
  <g inkscape:groupmode="layer" id="layer14" inkscape:label="France shorelines" style="display:inline" transform="translate(333.42796,-274.69203)">
    <path id="path12638" style="fill:none;stroke:#0978ab;stroke-width:0.5;stroke-linecap:round;stroke-miterlimit:4;stroke-dasharray:none;display:inline" d="m 365.47039,914.48328 c -0.85015,-1.37099 -2.7434,-3.13166 -1.44171,-4.76984 1.2864,-0.68915 2.49097,-1.95282 4.07174,-1.12288 1.35985,0.47431 2.63257,1.12396 3.62752,2.18361 1.45289,0.19134 2.48251,1.04796 3.29447,2.20635 1.12477,0.54972 2.92275,1.26965 2.76829,2.71573 -1.04385,1.35414 -2.45628,-1.29239 -3.81572,-0.24731 -1.42819,1.0036 -2.45219,-0.38184 -3.59682,-0.78921 -1.41203,0.45388 -2.67263,-0.41608 -3.95075,0.44367 -0.4314,0.11511 -0.4763,-0.64668 -0.95702,-0.62012 z M 295.55532,527.82829 c -0.32086,1.07053 -0.99652,2.16267 -1.30655,3.45091 0.0442,2.24047 -2.54922,0.0403 -1.47153,-1.12202 0.39547,-1.35443 -0.90574,-1.80369 1.26238,-2.21167 0.50706,-0.53312 0.91647,-0.5781 1.5157,-0.11722 z m -69.60619,8.0375 c 2.11962,-0.44184 1.30192,2.04356 -0.41308,1.51047 -1.26003,-0.0455 0.22685,-1.24521 0.41308,-1.51047 z m -51.52723,9.13867 c 0.67983,0.27615 3.0585,1.82209 2.20037,2.33686 -1.24891,-0.48964 -2.56203,-1.16204 -4.01223,-0.71076 -1.78298,-1.44385 1.08685,-1.14961 1.81186,-1.6261 z m -124.508415,45.0793 c -1.328957,1.71787 2.989264,2.03165 0.883365,2.39348 -1.741788,-0.46385 -1.063456,2.70174 -2.948705,1.74303 -1.862986,-0.73075 -2.411859,2.08587 -4.296326,1.91139 -1.939702,-0.41948 1.837255,-1.06637 1.260217,-2.28115 -0.636057,-1.51765 -2.779043,-0.29229 -4.002582,-0.16152 -2.205837,0.79294 -0.711216,-1.67256 0.55481,-1.88006 1.418697,-0.31965 1.742066,-2.07072 3.374474,-1.46658 1.348367,-0.0904 2.353769,-0.68001 3.335349,-1.2776 0.823405,0.0235 1.184488,0.90455 1.839398,1.01901 z m 10.32537,13.67058 c 0.661396,2.44798 -2.63939,0.41636 -0.212091,-0.008 z M 231.57419,742.89331 c 2.38055,-0.70014 3.81237,2.26811 6.24826,1.76573 1.60898,-0.1851 3.08543,2.02531 1.9563,3.42765 -1.3318,-0.38741 -2.771,-1.01547 -4.35821,-0.43071 -2.31969,0.0932 -4.08557,-1.93223 -5.64261,-3.44038 -0.89336,-1.57053 0.64133,-1.69401 1.79626,-1.32229 z m 42.97473,-9.39419 c 1.83888,0.90335 -0.50022,2.22243 -1.64766,2.26132 -0.44122,-0.21807 1.48876,-1.99736 1.15633,-2.98386 0.33418,-0.12811 0.29815,0.57623 0.49133,0.72254 z m 41.716,19.80583 c 0.84333,0.74085 1.99527,3.16756 0.32346,1.44656 -1.17061,-0.66858 -2.22699,2.60952 -2.35401,1.03986 -0.62841,-2.23301 1.04142,-1.47168 1.30837,-3.14288 0.17707,-0.597 0.41045,0.67666 0.72218,0.65646 z m -5.52855,0.61061 c 2.00869,1.1077 1.11701,1.43201 -0.79604,1.35069 -1.62937,0.84111 0.1988,2.54488 -1.09592,3.50229 -0.64962,1.99962 -0.59152,-1.50581 -0.26532,-2.26453 -0.027,-1.53197 0.69429,-3.02451 1.85681,-4.00478 0.80331,0.16571 -0.81556,1.13717 0.30047,1.41633 z m -49.26022,37.07564 c 1.29745,0.69156 2.55877,0.84481 3.44165,1.83956 1.57025,-0.14179 2.23852,1.79292 3.90531,1.50512 1.37865,0.0835 2.98417,0.75333 2.68334,2.42768 1.02514,0.87569 0.54263,3.19204 2.06052,3.33095 2.1601,-0.24935 2.13118,2.98286 4.30113,2.86129 1.39894,0.2687 3.34344,-0.51959 4.40283,0.4675 0.0114,1.27311 -0.7121,2.61817 -1.78694,3.42802 -0.0545,1.4591 -1.26348,2.8344 -2.58859,1.51802 -1.1642,-0.86963 -2.87975,-2.03831 -4.08356,-0.52736 -1.22617,-0.41074 -2.42012,-1.06564 -3.64749,-1.63686 -1.1882,-0.26333 -2.42943,0.41926 -3.80216,-0.0391 -1.47665,0.70679 -3.19277,0.0249 -3.88699,-1.39594 -1.38228,-0.58366 -1.98267,-1.80797 -1.20301,-3.12259 -0.0415,-1.86991 -2.01237,-3.10776 -1.67435,-5.03922 -1.1072,-0.90573 -1.45832,-2.46917 -0.92682,-3.78435 1.81368,0.84948 -0.0523,-3.03746 1.48817,-2.87349 0.66969,0.0842 0.57364,0.91936 1.31696,1.04077 z m 31.08418,-1.90167 c 1.16134,0.9368 2.55371,1.20725 4.00227,0.84281 -1.15325,1.00141 -1.30226,1.70019 -3.24445,0.79017 -1.38248,0.182 -2.74635,-2.48809 -0.94331,-1.88648 l 0.16282,0.22252 0.0227,0.031 z m 12.76761,9.59587 c 1.71792,-0.17762 2.9268,0.73384 0.65963,1.21228 -1.44381,0.86635 -3.17879,-1.3747 -0.65963,-1.21228 z m 120.8057,15.02044 c 1.14909,1.25768 3.39428,2.17227 3.45275,4.02954 -1.73411,-1.22838 -3.8985,-2.22232 -4.59202,-4.39703 -2.51584,-2.23947 0.99851,-0.38989 1.13927,0.36749 z m -34.52377,63.26273 c -1.64853,-3.06595 -2.3018,-7.06404 -5.5486,-8.96975 -1.93826,-0.77177 -4.02256,-0.30362 -5.99738,-0.29935 -2.09967,-0.9586 -1.6122,-3.8863 -2.17955,-5.76916 -0.36833,-2.0995 -1.3296,-4.02757 -2.67574,-5.65483 0.72782,-0.87297 2.61194,0.862 3.81328,-0.21012 2.74837,-0.9945 6.03528,0.16876 7.9447,2.26048 1.07281,1.73795 0.039,3.78452 -0.45555,5.50443 -0.0824,1.96546 2.56396,1.48266 3.20813,3.03462 1.32118,1.46092 3.65637,2.02598 4.17308,4.04516 0.85566,1.90687 0.52044,4.29947 -0.0251,6.27736 -0.47734,1.92635 -1.60605,0.68517 -2.25726,-0.21884 z m 67.48651,-399.12249 c 0.3376,1.01076 0.79667,1.09427 1.68264,0.31622 1.80722,0.40228 1.31489,3.71686 -0.60237,2.94853 -1.78317,-0.85993 -1.8649,1.59317 -1.8984,2.74601 -0.53625,1.98619 -1.58781,4.76521 0.23132,6.34146 1.8533,0.24188 1.77538,1.57787 0.53837,2.65959 -0.65624,2.43717 0.0777,5.1044 0.64884,7.53695 0.21901,0.93331 0.42967,3.53095 1.79557,2.73924 0.26076,-2.02821 1.23978,-4.30736 3.26014,-5.0522 1.78716,-0.54183 4.3796,0.31332 4.91924,2.10987 -0.76351,1.16286 -1.77648,-1.76887 -3.23049,-1.11737 -2.46691,-0.17803 -3.07586,2.9176 -2.18752,4.67352 -0.42062,1.70173 -0.58343,3.44421 -0.77884,5.18221 0.17097,1.51904 -0.7895,3.54145 0.2276,4.74496 2.10447,-0.42876 2.30889,1.185 1.51866,2.81879 -0.43915,2.68462 -0.11385,1.06897 -1.34696,-0.0115 -0.97642,2.1287 -0.8677,4.5948 -1.27037,6.87162 -0.6826,2.81349 -0.21222,6.23247 -2.46146,8.38466 -0.98496,0.61426 -3.0213,2.16044 -0.7073,1.23298 2.12561,-0.32909 2.56528,1.987 2.96998,3.51274 0.86527,3.80449 1.28506,7.78264 0.80899,11.69116 -0.5238,2.25193 1.74344,3.18613 3.3729,3.95773 2.51361,1.17861 2.66111,4.07454 3.45743,6.36329 0.33848,1.91584 2.3606,2.43535 4.00064,2.44783 1.0995,0.79061 2.79453,1.19452 3.34563,2.4879 -0.57399,1.90856 1.54552,1.60251 1.85556,0.13697 1.43214,-0.97433 3.18971,-0.62813 2.86765,1.32742 1.68588,0.85618 4.05678,0.68096 5.33807,2.30341 1.21085,2.09863 -0.63263,1.65765 -1.80025,0.76758 -2.22085,0.25807 -4.58731,-0.88767 -6.68838,0.18993 -1.50047,0.26907 -2.54988,1.29627 -4.06198,1.15638 -0.79976,2.04374 -2.96131,0.0755 -4.43561,0.6783 -0.99621,0.96358 -1.99169,-1.11531 -3.4807,-0.60113 -2.57366,0.002 -5.51599,-1.63855 -7.74889,0.25478 -1.63054,2.50812 -4.63216,3.64387 -7.49832,3.83993 -2.97839,0.0466 -5.9246,0.60365 -8.88963,0.54371 -1.83267,-0.11206 -3.23828,-0.61233 -3.68769,1.1335 -2.0306,-1.57618 -4.57376,-0.76036 -6.89517,-1.1437 -2.90475,-0.51511 -3.39521,-3.72162 -4.6472,-5.85221 -1.45965,-1.55445 0.60404,-3.31823 0.43955,-5.09885 1.22108,-0.73142 3.43874,-1.66043 2.44717,-3.49966 -1.1322,-0.71626 -0.14877,-3.73719 -1.54032,-2.66093 -1.35755,1.29028 -3.36577,1.26269 -4.80048,2.39127 -1.3374,-0.64681 -2.8309,-0.22273 -4.10003,-1.00157 -1.28427,0.93688 -2.77363,0.61574 -1.13702,1.88543 -0.71531,1.42166 -2.58125,-0.66235 -3.81684,0.0456 -2.0567,-0.1065 -2.53595,0.89508 -1.71697,2.641 -0.52679,2.59223 -3.47846,2.32981 -5.33588,3.36327 0.4578,1.56787 0.74819,2.32466 0.87632,3.57817 1.03155,0.98529 0.24414,2.76472 1.80445,3.39618 -0.17955,1.60927 0.36064,2.54793 1.38684,3.7348 0.84981,0.0138 2.76501,-0.5547 3.52906,0.87995 -0.0519,1.11654 2.80286,2.89759 0.54981,2.84674 -0.89886,-0.50617 -2.97296,-2.77598 -2.46157,-0.31907 0.80462,1.11162 0.46385,2.8912 1.29518,3.77172 1.88543,-0.66218 1.94913,1.39759 0.80383,2.39288 0.21771,1.44128 3.46712,-0.12176 2.44172,2.04225 -0.3334,1.68622 -2.70212,0.22035 -2.91112,2.05656 -0.36429,2.11491 -2.67423,0.42309 -1.40803,-1.00968 1.07334,-1.24379 1.05523,-3.04502 -0.60513,-3.7513 -0.57844,-1.24607 -1.37402,-2.43329 -2.13162,-3.62663 -1.57962,-1.03749 1.35333,-2.52774 -0.23152,-3.27323 -1.87509,-0.11338 -1.71988,-2.27132 -2.06352,-3.53687 -1.55141,-1.12141 0.1332,-2.96653 -0.79353,-4.27202 -1.71219,-0.14661 -2.71362,-0.64491 -2.16605,-2.65397 -1.42388,-0.83733 -3.203,0.22029 -4.70805,0.31926 -1.47735,-0.16545 -2.17374,-1.58476 -3.1949,-0.0237 -1.38877,0.17694 -2.6057,0.83881 -3.93532,1.17995 0.0131,1.84137 1.74183,2.99854 2.52816,4.47902 -1.30571,0.29275 -1.5661,-2.68521 -2.89052,-1.70171 -0.87921,1.22495 -2.62567,2.55193 -1.96089,4.28394 2.046,0.19858 0.12881,2.59065 -1.06195,2.60094 -2.75969,-0.70359 0.32754,-4.69743 -2.16205,-5.65982 -0.23264,1.56527 0.47209,3.48622 -0.58338,4.79456 -1.04746,2.01472 -1.76268,0.92834 -1.49588,-0.91038 -0.90237,-0.96844 -1.16114,-2.18982 -1.27991,-3.52218 -0.84649,-0.80989 -3.08087,-1.02372 -2.20679,-2.80802 0.93038,-1.42013 -1.50842,-2.40237 -0.29322,-3.77038 -0.27613,-1.54403 -2.11927,0.44019 -2.82194,0.95531 -1.42742,1.37811 -3.55808,1.7744 -4.47272,3.65487 -1.03006,1.97741 -1.82474,0.0397 -2.71616,-0.89836 0.72055,-2.12929 3.59493,-2.58752 3.63636,-5.04391 -0.0419,-1.33107 2.16287,-2.3957 1.44903,-3.43861 -1.3785,0.0637 -3.10111,-0.4399 -2.76319,-2.17913 0.24076,-2.36553 -2.0144,-0.9307 -1.7124,0.66828 0.37042,1.74739 -1.66073,2.00785 -2.78321,2.61228 -1.01607,0.91523 -2.33505,0.97277 -3.43119,1.74398 -0.70277,1.27493 -2.4302,1.3534 -3.09704,2.60017 -1.27232,1.9648 -1.04682,-1.41883 -1.62693,-2.02946 -2.01494,-0.55327 -4.25897,0.11027 -6.29309,0.51013 -1.93301,-0.0985 -2.14032,1.5744 -0.19936,1.85938 2.06496,0.0215 0.56336,1.98843 -0.23952,2.73849 -1.80501,1.30985 -3.61015,2.67109 -5.4244,3.96354 -1.16839,1.17088 -2.69263,-0.006 -3.90535,0.64587 -1.01588,1.26449 -2.06784,2.61196 -3.11049,3.91594 -1.59211,1.14252 -1.96223,3.13308 -3.42879,4.34243 -1.62806,0.75286 -2.55492,2.27636 -3.57007,3.56835 -1.71543,0.75621 -2.65856,-0.80455 -3.9377,-1.4185 -2.18646,0.30623 -1.08463,2.87845 -1.30203,4.30626 -0.13313,2.09392 -0.94613,2.54788 -1.72956,0.38757 -0.33668,-1.48162 -2.59662,-1.21652 -2.27872,-2.96017 0.11131,-1.35351 -3.36746,-0.39355 -1.10879,-1.74807 0.92205,-1.05916 0.16538,-2.47027 0.65971,-3.54688 -1.47025,-0.54878 -3.01431,-1.03331 -4.42656,-1.733 -1.50837,-0.54354 -1.2796,-2.45042 -2.60399,-3.15942 -1.46418,-0.0522 -2.23891,-1.38276 -3.58056,-1.72213 -2.23785,-0.31087 -0.67444,-2.06932 -0.38555,-3.23249 -0.51465,-1.89955 -1.40554,-3.83947 -0.92394,-5.89208 0.35574,-2.08024 -2.31572,-2.25754 -2.68858,-4.03088 -0.75799,-2.2574 -3.98471,-0.91554 -4.93574,-2.89158 -0.76914,-1.18867 0.27169,-3.81061 -1.93875,-3.54451 -0.85615,-1.08341 -2.40893,-1.4333 -2.86373,-2.79914 0.0232,-1.44185 -2.81695,-1.2682 -1.70772,-2.83854 1.64257,-0.94202 -0.34082,-2.31178 0.88757,-3.40428 1.09914,-1.52828 -1.98862,-1.4734 -1.58867,-2.93975 -0.13853,-1.24221 -1.45996,2.19471 -2.85314,0.95721 -1.93688,-1.31535 -4.77692,-0.62108 -6.41004,-2.42569 -0.2391,-0.91143 0.27265,-1.20334 0.57872,-1.28774 -0.20141,0.009 -0.54802,-0.0104 -1.25721,-0.0796 -2.26949,0.30716 -0.87829,-1.45095 0.46225,-1.65631 0.29488,-1.21242 3.27512,-1.48907 2.20202,-2.38889 -0.65616,-1.02053 1.22229,-2.91646 -1.12081,-2.96836 -1.40684,-0.72191 -2.97574,1.49304 -4.08163,-0.18868 -1.67907,-0.72736 -2.28719,1.50006 -2.84369,2.64729 -1.00565,1.68028 -0.43773,3.99452 -2.05388,5.32281 0.15381,1.67767 -1.6849,1.93401 -2.21289,3.23489 -0.94236,2.21833 -1.47218,0.69815 -0.64606,-0.83713 -0.26725,-2.73849 3.66776,-2.99853 3.50272,-5.6932 -0.30649,-1.74196 1.07677,-3.00642 1.50893,-4.50678 0.33691,-1.4864 -2.28648,-1.66544 -0.62555,-3.06127 0.95572,-1.35173 -0.0259,-2.73843 -0.0318,-4.09947 0.48526,-1.09466 -0.32396,-2.6938 -1.84404,-1.48394 -0.82074,1.19452 -2.64175,0.7359 -3.32234,1.98779 -0.84634,1.51889 -1.97705,0.62143 -3.15742,1.10105 -0.97087,0.9243 -1.50454,2.55257 -3.22876,1.98206 -1.10419,1.79177 -0.57067,4.52761 -2.71912,5.7079 -1.40619,0.37482 -2.20964,1.6059 -2.26126,2.95606 -0.58776,-1.37938 0.90305,-2.47267 1.27399,-3.741 0.43662,-1.55222 1.36077,-3.41537 0.66743,-4.95625 -1.9719,-0.95727 0.46257,-3.30661 -0.66619,-4.74944 -2.11993,-0.8954 -3.08181,1.65066 -3.9768,3.061 -0.62686,0.93672 -1.61543,3.39248 -2.65902,1.57151 -1.12117,-0.12773 -1.60826,2.29051 -3.1434,0.81842 -1.566,-0.73998 -3.28475,-0.29222 -4.48845,0.83808 -1.21407,1.2001 -2.93224,0.69403 -4.33699,1.26713 -1.90029,0.30566 -0.94966,3.04342 -2.86982,3.24374 -1.34746,0.2783 -3.30166,1.27781 -4.37638,0.1111 -0.80753,-1.21459 2.60593,-2.65574 0.4776,-2.9409 -1.66946,1.12658 -3.28072,-0.43496 -4.11845,-1.81446 -0.51632,-1.78258 -2.263,-2.0112 -1.91032,-0.008 -1.13056,-1.03302 -2.04672,0.46382 -3.03448,-0.47188 -0.90932,-1.97932 -1.42401,1.64049 -2.51832,1.31244 -1.15539,-0.75832 -2.4647,1.86579 -1.28792,2.48952 0.72768,1.33599 -1.30934,2.97792 -2.70748,2.82681 -1.82562,-0.91722 -2.40448,1.56004 -2.51651,2.87775 -0.24351,1.66458 0.0569,2.94395 1.87961,2.57755 0.62756,1.1376 2.27836,2.10871 2.00877,3.66546 0.61381,1.32265 2.78996,1.08526 0.20995,1.89697 -1.48775,-0.005 -2.87954,-0.0229 -4.25038,0.63567 -0.29754,1.41861 -0.16723,2.937 -0.1072,4.38973 -0.45798,1.55131 1.86888,2.32651 0.98516,3.82199 -0.57004,2.28885 -3.99182,1.91866 -4.45975,-0.22817 -0.70576,-1.82819 -2.02313,0.27929 -2.87413,0.6141 -1.80387,-0.0944 -1.54301,-1.99601 -0.65292,-2.99697 -0.26788,-1.27808 -2.35313,0.22712 -3.22105,0.57271 -1.75512,0.21498 -3.17467,-1.36123 -4.94345,-1.48223 -0.64829,-2.05788 -2.96873,-2.1602 -4.75498,-2.49562 -1.54225,-0.70308 -3.1544,1.76492 -4.34709,0.078 -0.95942,-0.55293 -1.88421,-1.7524 -2.78865,-2.08365 -0.15682,1.62503 -0.50402,3.21156 -1.82448,1.39524 -1.80975,0.2331 -0.30762,2.8142 -1.89907,3.24699 -1.59145,1.27407 0.54633,2.72144 0.25564,4.17969 -0.0165,2.44324 -1.56289,0.56168 -1.6149,-0.80917 -1.614,-1.70184 -0.64762,1.09918 -0.34579,2.02489 0.0177,1.79511 0.67432,2.41251 0.71655,3.52533 -0.29895,1.01361 0.67466,3.93788 -0.84875,3.52714 -0.094,-1.79878 -1.58482,-2.66503 -3.13233,-3.0958 -1.63568,-0.5318 -3.74508,-2.84751 -2.08194,-4.34976 1.8937,-0.99301 -1.25998,-1.40084 -2.09928,-1.56226 -0.95583,0.85707 -1.33718,2.94039 -3.00795,3.03304 -1.21228,1.38931 -1.38336,2.08626 -0.86126,-0.26041 0.53934,-1.45995 0.17675,-2.93887 -1.34229,-3.51836 -0.92213,-1.18961 0.86172,-3.02119 -0.89989,-3.45151 -0.66682,-1.46186 0.14761,-3.3885 0.70434,-4.86457 -0.22362,-1.23435 -2.98684,-0.75162 -3.07081,0.46959 -0.49231,1.62604 -1.88339,0.7503 -2.83091,1.8325 -1.40915,0.18215 -2.64761,0.48678 -3.98939,0.80755 -1.36926,0.68525 0.51483,3.68768 -1.5159,3.88103 -0.4784,1.83269 -0.51354,1.17794 -1.5551,-0.3432 -0.68581,-1.75854 -2.41382,0.51393 -3.2343,-1.17975 -2.42633,-0.30753 -4.74481,0.72833 -7.14358,0.93785 -2.62878,-0.0357 -3.78027,2.68262 -5.94636,3.61977 -1.48536,1.18592 -0.28643,3.18918 1.46649,2.4776 1.7957,0.94973 -1.54225,1.57723 -2.37763,1.05335 -1.29878,-0.84765 -2.79811,-1.05672 -4.28785,-0.48914 -1.73628,-0.22151 -2.97079,0.87267 -4.41339,1.55359 -0.0324,1.65864 -2.73522,1.23654 -2.34634,-0.48267 1.29816,-0.51401 1.83863,-1.81616 1.8736,-3.15151 -0.51519,-1.14883 -1.71265,-2.08728 -3.03056,-1.94361 -0.58929,-1.30413 -2.47421,-1.294 -3.73976,-0.74183 -1.59162,1.25027 -3.19437,2.59724 -5.22829,3.07492 -1.05822,0.50667 -3.48202,-0.22884 -3.55718,1.21943 0.37961,0.84017 3.65356,1.0368 2.10434,2.15681 -1.38514,-0.71912 -2.67218,-0.10334 -3.87159,0.17418 -0.89854,-1.73981 -2.04013,0.81894 -3.13195,1.00557 -1.63307,0.1442 -4.35515,1.31287 -4.97151,-0.91695 -1.12471,-0.18877 -2.58581,-0.3525 -3.75569,-0.49038 0.10873,2.01935 -1.42688,1.34166 -2.66541,1.9789 -1.24325,1.75803 3.04096,1.04846 1.4684,2.50879 -1.39383,1.28486 1.52862,1.40053 2.34243,1.9544 -1.47454,0.44543 -3.18939,0.9952 -4.67685,0.31735 -1.79895,-0.18599 -2.11162,-0.95085 -2.72436,-2.05627 -1.77269,0.18058 -1.5293,2.53044 -1.73806,3.832 -1.01577,2.28963 1.79598,0.63405 2.29723,2.23894 0.12829,1.45586 1.5012,2.88519 -0.98174,2.37687 0.21075,-1.72015 -1.55065,-2.24989 -2.68801,-2.99775 -1.09526,-1.53791 -2.475411,0.12893 -3.779928,0.13727 -1.481672,-0.74858 -2.293157,-0.0919 -3.356017,0.92535 -1.006469,-1.23887 -3.967955,-0.56682 -3.050492,1.31368 0.353193,2.36081 -1.626346,-0.18629 -2.563443,0.0629 -1.367208,1.0225 -2.52995,2.51471 -2.997836,4.22214 -1.812116,0.16716 -1.382094,2.41519 -2.493619,3.25204 -2.204731,1.35846 -0.653316,3.98572 -0.08184,5.82837 -0.04724,1.8525 2.425871,0.98917 2.519376,2.28796 -0.949459,2.11705 -1.946228,-0.45027 -2.834058,1.26914 -1.721245,1.48038 -1.106045,4.32668 -2.120747,5.76522 -1.304893,1.09553 -0.269173,2.64477 0.262032,3.77228 1.727083,0.4125 -0.317029,2.54327 1.299656,3.33313 1.786906,0.84544 1.047048,3.44505 -0.74755,3.64619 -2.215816,-0.16385 -0.272728,1.87835 -0.503072,3.03638 0.769929,1.43201 0.784074,4.08807 3.02598,3.91632 1.920313,-0.82326 3.910601,0.29789 5.807382,-0.26127 1.899563,-0.39821 0.647098,-2.47491 1.571889,-3.47745 1.570012,-1.23862 3.356899,-0.23411 4.796465,0.61458 1.392359,0.10317 2.353865,0.68522 3.176974,1.77811 3.220558,0.57898 5.824808,-1.94797 8.791108,-2.66666 3.34724,-0.0362 5.58585,-2.85553 8.69886,-3.66288 1.96193,-1.04462 4.20901,-1.26153 6.22318,-2.16521 1.99624,-0.22155 4.12598,-0.0912 5.94111,-1.14607 3.40282,-0.56406 6.41464,-2.29885 9.51175,-3.6813 1.61787,-0.10962 -0.73406,1.951 -1.56035,2.13048 -2.7572,2.12656 -6.31564,2.77964 -9.41503,4.23893 -1.7885,0.18222 -2.38552,1.88716 -3.58084,2.88023 -1.75847,0.58308 -3.20859,2.20904 -2.87498,4.18332 0.71035,1.44111 -2.57182,2.17843 -1.06452,3.07071 1.69093,-0.50613 3.34627,-1.25792 5.05506,-1.81198 2.8743,-0.19508 -1.50279,1.5202 0.17045,2.27508 1.33233,-0.1646 3.09999,0.34101 4.14726,-0.7859 0.68388,-1.00866 1.07844,-3.46202 2.85133,-2.52252 1.65726,0.89245 2.34216,-1.58239 3.41525,-1.49253 -1.4734,1.34799 -0.187,2.66966 1.41879,1.6978 0.75144,-1.08192 1.61219,-2.41735 3.25358,-1.57657 2.75019,-0.14887 -0.75497,-0.13883 -0.77541,1.14322 0.96921,1.52382 -1.68438,1.77885 -2.66541,1.97892 0.62699,1.37446 -1.303,1.51579 -2.02507,2.72245 -0.51746,1.51932 2.57946,-0.33219 3.17191,1.18357 1.22296,0.42494 2.7355,-2.46535 2.56087,0.40692 1.3283,0.10919 1.9044,1.68608 3.10888,1.68836 0.92752,-0.94651 2.53273,-1.96303 1.34697,0.0115 -0.24488,0.79623 1.85183,1.31584 3.04715,1.19119 0.76147,-0.0267 4.19063,-0.0768 2.04014,0.59532 -1.53909,1.03733 -3.27182,0.34341 -4.90855,0.11234 -1.4898,0.77893 -3.02669,2.88206 -4.84625,1.64266 -2.52898,0.0151 -0.52184,-1.68163 0.98802,-1.25015 0.21182,-1.14042 -2.51382,-0.7902 -3.54049,-1.06709 -2.19925,-0.508 -3.93396,1.12109 -6.06016,1.24729 -1.75554,1.0196 -3.7227,1.67896 -5.75654,1.60442 -1.82301,0.0139 -2.28785,-1.75803 -2.75994,-3.14988 -2.02107,-0.17368 -4.34727,-0.34473 -6.11997,0.78132 -1.21429,-10e-6 -3.1217,1.23905 -3.88942,0.39442 0.13379,-1.13673 -1.78381,-2.89052 -2.06114,-0.93842 -0.66141,1.87599 -2.46464,-0.021 -3.03762,-1.03523 -1.55171,-1.37224 1.41745,-2.39318 0.5999,-4.01286 -0.0755,-1.27795 2.23047,-2.39916 1.19377,-3.51694 -1.61005,-0.1285 -3.25167,1.01765 -4.44334,2.08766 -1.80317,0.92974 -1.26039,3.04758 -0.7527,4.58575 1.05498,1.59198 -0.27193,4.87064 -2.40834,3.62253 -0.86763,-1.1222 -2.45518,-1.40855 -3.327309,-0.14088 0.37469,1.11336 0.180265,2.66181 0.107979,3.81302 0.99922,-1.66427 2.20256,-0.11463 2.95806,0.75832 1.5177,1.16367 2.96257,-0.48959 4.4916,-0.27471 2.08148,0.0755 2.22524,3.13611 0.2837,3.61442 -2.00303,0.35416 -0.77274,2.45673 -0.37135,3.65449 1.04089,1.94562 1.55632,4.29624 0.38727,6.33191 -1.59977,1.34824 0.39052,3.03492 1.63142,1.59087 0.5952,-2.25663 2.98859,-3.18215 3.81015,-5.27369 0.30389,-1.65962 2.09001,-2.91254 1.56178,-4.66654 1.02548,-1.81377 3.8461,-2.04099 5.54517,-0.96533 1.50724,0.0315 2.38968,-0.40777 2.96693,1.41526 1.29131,0.16581 1.98869,1.47881 3.20245,1.68264 1.4142,-0.81974 2.78336,-0.15305 2.91027,1.51265 0.66125,2.44742 3.29856,0.70594 4.97341,0.94815 2.38825,0.8064 3.78209,3.6999 3.63121,6.13351 -0.33878,1.64965 0.51122,2.74918 2.0349,3.069 0.95549,1.75053 0.38326,4.25319 -0.5809,5.85889 0.45372,1.44639 -0.47397,2.73276 -0.94109,4.06503 -0.63852,2.00895 -2.5239,0.45585 -3.56731,0.0303 -2.16008,0.33001 -3.1337,-2.82661 -5.40112,-1.79862 -2.17248,0.87064 -4.55993,0.59277 -6.78901,1.10401 -1.84077,1.42056 -4.64802,-0.14406 -6.22252,1.66423 -2.15143,2.00201 -5.24057,-0.49177 -7.52998,1.27458 -1.01309,1.02086 -2.36522,1.54362 -3.78888,1.01444 -1.69207,-1.01116 -3.41523,-0.0168 -4.965879,0.71074 -1.694082,0.26159 -3.513023,0.32839 -5.167617,-0.0283 -1.659245,-0.81131 -2.017853,2.02381 -3.68768,1.13349 -1.1338,-0.0297 -3.475214,-1.35142 -3.435572,0.64845 0.200687,1.29669 0.765916,3.13334 -1.142835,3.32598 -2.150012,0.75364 1.303869,1.2827 2.238077,1.27198 0.689918,1.94846 3.153582,1.02884 4.621335,1.84632 1.289635,0.93711 2.837376,-0.7608 3.849935,-0.0163 0.46132,1.89634 2.741887,1.0648 4.028696,1.88256 0.90887,0.88297 0.99889,2.55842 2.66512,2.62345 2.38826,0.72441 2.95601,-2.36558 4.9571,-2.90179 1.41948,-0.27742 -0.0713,2.723 2.12152,2.43753 2.28566,-0.0744 3.4891,1.98693 4.99363,3.32635 2.74252,2.31765 5.83952,4.60697 7.31298,7.97467 1.7483,1.8417 2.36452,4.33665 3.50006,6.54855 1.37215,1.74315 1.80194,3.83681 2.45804,5.89217 0.7098,2.4129 1.85151,5.36427 0.44002,7.70627 -1.30051,0.34195 -3.69086,0.90499 -2.77366,2.76824 0.67321,1.06771 -0.56931,3.34153 1.62749,3.06261 1.44465,-0.53118 2.70437,0.0377 4.08736,0.28224 1.44332,-0.73554 2.67343,0.29125 3.90717,0.91944 1.39053,-0.64651 2.53948,0.95932 4.04405,0.59798 1.51097,-0.55972 3.04077,-0.61504 4.63421,-0.5026 1.36569,-0.4446 2.65663,-0.96479 4.20201,-0.91448 1.23908,-1.6062 2.81659,-3.06334 3.41802,-5.03055 0.30573,-2.10174 -3.71394,0.0105 -2.88796,-2.17149 1.90236,-1.23828 -1.21482,-0.5662 -1.04573,-2.25286 -0.7133,-1.46175 0.41183,-2.97162 0.92774,-4.28338 1.83702,-0.64153 1.46528,1.83952 2.11321,2.81375 1.36464,0.47323 1.0193,2.9021 2.70147,1.68196 0.70677,-1.41328 2.06564,-1.55298 3.33571,-1.76944 0.49783,-1.28467 -1.55912,-2.16381 -1.16469,-3.68578 -0.89491,-1.30805 -2.69531,-2.2776 -2.22835,-4.18426 -0.0997,-1.60721 1.64902,-3.10326 1.08665,-0.66132 -0.26522,1.76487 1.30941,2.82547 1.61215,4.34719 1.90624,0.6451 1.51041,1.02609 1.90317,2.45088 1.01328,0.77192 1.98907,2.26263 3.42718,1.26189 1.44646,-1.03729 2.87281,0.48621 3.30365,1.80166 -0.0688,2.20789 1.50021,1.50371 1.80721,-0.14183 1.02031,0.39675 2.33181,0.11884 3.45017,0.10206 0.51778,1.71392 -1.98527,1.36475 -2.87612,2.11703 1.8319,-0.45191 3.60321,-1.05851 5.3727,-1.73749 0.8894,-1.28385 -0.57468,-2.99579 0.13459,-4.45402 0.24742,-1.75947 -1.68651,-1.82776 0.56097,-2.6016 1.04496,-0.58106 2.31335,0.94507 3.4495,0.60304 0.0612,1.50766 1.85978,1.69655 2.04062,3.16257 0.44305,1.64002 2.6922,1.04284 3.01778,2.75842 0.97422,0.88673 -1.98252,1.56904 0.54667,2.28338 2.25149,-0.2172 0.82656,1.29695 1.06481,2.56478 0.92638,1.66715 2.51353,2.92083 3.77391,4.37151 1.57153,0.73021 1.26869,2.30496 1.35184,3.67433 1.20441,-0.30437 2.11183,-2.13884 3.71314,-1.22897 2.24199,1.66501 5.61878,2.04592 7.98184,0.48236 1.03139,-0.90756 1.93631,-1.94879 3.49357,-1.74778 1.96895,-1.36365 0.14897,1.74428 1.97767,2.13324 1.23406,0.73603 2.20944,2.72942 3.82752,2.17664 1.21072,-0.0235 3.23526,-0.74734 3.685,0.87042 2.05816,1.51297 4.91601,1.0787 7.34904,1.39771 1.86662,-0.19216 3.1587,1.61051 4.95558,1.16839 1.53153,-1.42875 1.96422,-0.30253 2.61046,1.21791 2.19777,1.36562 2.48575,4.16119 3.30337,6.40403 1.09749,0.78478 1.19192,2.28309 2.37038,2.92324 1.01482,0.76393 1.59248,2.47553 3.23746,1.74311 1.51408,-1.0753 3.29293,-0.57332 4.98304,-0.43001 1.88667,0.48627 4.757,-1.38478 3.76294,-3.48622 -0.19703,-1.58934 -1.99141,-1.89871 -2.99745,-1.91433 1.01319,-1.75088 3.09894,0.74411 4.49732,-0.18115 0.41868,-1.26233 1.40162,-2.26147 2.65273,-2.69822 1.87674,0.45329 1.40583,-2.10153 2.26058,-2.45509 2.08011,0.34978 2.3043,-2.55576 4.15375,-2.72741 0.78009,0.72014 -1.79765,1.53241 -1.96079,2.74982 -0.009,1.96433 -1.10418,3.54239 -2.5249,4.78808 -0.60206,1.35471 -3.11588,0.27135 -2.91495,1.99417 1.08989,1.68222 -1.02775,2.32596 -1.65716,3.10696 0.62121,1.55057 2.26126,-1.00584 3.51827,0.19183 1.65888,0.0235 3.03718,0.96101 4.36989,1.83038 1.58247,1.28645 0.25848,2.70596 -1.02874,1.0961 -1.17599,-0.58661 -2.25071,-1.71341 -3.65383,-0.87231 -1.0079,-0.44377 -4.26552,0.20032 -2.6386,0.88147 1.15001,-0.86243 2.83345,-0.15491 4.16633,-0.47398 1.79506,1.03316 3.72637,1.96532 5.56338,2.9158 2.28557,0.84629 4.01016,2.59482 5.08139,4.76117 1.39962,1.5333 2.4034,-0.7263 1.913,-1.9955 -0.79664,-1.66117 1.09764,-1.95628 1.86148,-2.83769 0.4259,-1.02586 -2.35723,-3.26856 -0.25831,-2.17579 2.2345,1.07666 0.45354,-1.95483 1.9563,-2.31124 1.48482,0.46462 3.22007,0.35544 2.18542,-1.63646 -0.37251,-1.42394 0.57761,-4.01664 -1.72164,-4.09003 -2.02603,0.0659 -0.86032,-2.89932 0.45013,-1.34249 1.1052,0.2387 2.42521,2.22817 3.37118,0.8583 -0.10925,-2.10145 2.27112,-1.92938 1.06624,0.0287 0.0419,1.02338 -0.79132,3.68676 1.06224,3.03456 1.20728,-1.71062 1.91538,-0.30978 1.54995,1.28277 -1.17802,1.18987 1.06873,3.31627 -0.18991,3.54947 -1.54467,-0.85151 -2.60139,0.75657 -3.72717,1.51161 -0.86118,1.51089 -2.58284,0.53199 -3.87292,1.17612 -0.79864,1.05991 -2.7045,1.71407 -2.5541,3.28706 0.61335,1.41395 0.21033,2.80882 -0.27844,4.14974 0.65396,1.88458 2.80238,2.88338 4.37867,4.02144 1.24733,0.63086 2.12516,1.53831 2.46396,2.91751 1.75755,2.96633 1.85034,6.52123 1.1955,9.82035 0.0378,1.51489 -1.06019,2.59655 -1.91119,3.56081 0.25977,1.93916 1.00323,3.93404 1.33324,5.92967 0.34305,0.82992 -0.10951,3.63284 1.24176,2.89834 1.40763,-1.06256 2.04988,1.68888 3.61881,0.81185 2.22457,0.28316 0.14077,-0.88026 0.0537,-2.19487 -1.32445,-0.42869 -2.11464,-1.70763 -2.79944,-2.77177 0.4751,-1.59248 -0.24881,-3.05996 -0.80498,-4.45918 -0.13548,-2.8898 -0.0716,-5.92874 0.91019,-8.66547 0.1335,-1.16923 -1.44352,-2.067 -0.69681,-3.71439 0.48202,-1.92251 1.83609,0.7379 2.7257,1.05431 2.56123,0.4701 0.78109,1.46811 0.0104,2.22225 1.09137,1.58316 2.97578,0.58278 4.43619,0.35484 1.70514,0.72606 2.16708,-1.87379 3.73032,-0.94825 1.07092,0.89408 2.9805,1.41423 1.93456,-0.61926 0.13633,-1.32109 -1.19074,-3.80765 0.64891,-4.23501 1.26715,1.799 0.11696,4.84215 2.01306,6.29509 2.16691,0.43095 0.9759,-1.82978 0.5769,-2.85303 0.45827,-1.31063 1.73947,1.40721 2.73266,1.68006 1.02922,0.81711 -0.7259,3.40577 1.29651,2.76976 1.03413,-2.09369 1.29222,0.9283 2.71425,0.86717 1.50093,-0.60371 -0.42298,-2.31819 -0.79486,-3.27007 -0.23264,-1.51445 -2.69939,-1.97834 -2.00877,-3.66546 -0.8372,-1.59531 0.007,-2.81823 0.55153,-4.29168 0.26577,-1.50557 -1.25612,-2.08752 -1.45752,-3.35478 -0.81595,-0.55079 -1.42711,-3.6648 0.22359,-2.48703 0.54966,1.16687 0.74997,2.51995 1.80444,3.39617 0.0367,1.39256 3.703,0.33044 1.34687,1.54566 -0.99399,1.57616 0.22744,3.53946 0.3517,5.23831 0.58958,-0.83091 1.17851,-1.38799 2.58261,-1.28507 0.58849,1.00228 -0.76006,3.71943 0.50089,1.53479 1.0407,0.50065 1.98132,2.34631 3.35716,1.14092 0.42576,-1.04885 -0.29471,-3.7009 1.89964,-2.21385 2.1245,1.07676 1.25191,-1.48974 1.76915,-2.29979 0.26544,-1.79657 1.11681,-1.68631 2.8436,-1.11317 1.56087,0.88087 3.00889,-1.28079 4.46996,-0.11681 1.71739,0.33337 2.96346,-1.38538 1.07911,-2.32021 -0.39276,-1.94335 1.5425,0.66704 2.55897,0.37573 1.43729,-1.40302 1.47604,-0.31046 2.08784,1.37511 0.94195,0.90223 2.34038,2.27068 0.20298,1.27122 -1.02882,-0.10117 -3.10912,-2.17086 -3.31137,-0.39232 1.49757,0.80188 2.9087,1.74114 4.15402,2.90807 0.90704,0.27774 3.51202,0.53172 2.68555,1.93341 -0.0213,0.43195 2.78062,-1.19008 1.09056,-2.13305 -2.0434,-1.15101 0.90424,-1.58714 1.33876,-1.14637 0.3883,-1.33846 -0.28542,-2.69813 -1.42633,-3.35669 0.0764,-1.90932 2.27705,-0.0467 2.10758,1.18604 0.76259,1.07635 1.6429,2.34471 0.62871,3.62463 0.46368,1.75684 -0.85454,2.32614 -1.80358,3.27247 -0.7448,1.68454 -1.61621,0.006 -1.73605,2.32908 -1.18915,0.81885 -1.70568,1.87627 -1.14284,3.32597 -1.66932,0.11087 -0.75341,2.99067 -2.73925,1.79557 -1.30807,0.59528 -2.39157,-0.49143 -3.65639,-0.40253 -0.0346,-1.93176 -2.19933,-1.5969 -2.50296,0.0278 -1.03692,-0.20455 -0.46819,-3.39364 -2.06934,-2.09633 0.32447,2.14632 -0.29387,2.5534 -2.03901,1.47097 -1.64065,-1.17334 -2.26487,2.38787 -2.62201,0.12907 0.29676,-1.65765 -1.87157,-1.86879 -2.70205,-2.71512 -1.35815,0.57096 -2.56471,-0.007 -3.78945,-0.0187 -1.25567,0.74253 -1.11726,3.06199 0.68412,2.99508 1.34506,0.18699 0.0254,1.49379 2.33356,1.29745 2.16121,1.16273 4.28912,3.17762 4.36074,5.77581 -0.14941,1.85396 1.76663,2.18933 3.04897,2.75651 1.31634,0.12242 2.9888,1.56981 3.98615,0.16321 1.09432,-1.79073 3.27756,-1.59605 5.12506,-1.69104 1.47692,-0.51097 3.23907,-1.32791 4.71377,-0.22569 1.10553,0.23392 2.60353,1.90522 3.52333,0.78638 1.22492,-1.30646 1.89647,-3.15691 0.95579,-4.84865 1.39337,0.63757 2.6951,1.54775 4.32982,1.17536 1.83185,0.352 1.7266,-2.65933 0.0307,-2.56916 -1.22807,-0.5283 2.24629,-1.43056 2.79008,-0.45243 1.55386,0.15357 2.92452,-1.03911 4.06074,-1.68855 -0.29385,1.52076 -1.3831,2.81562 -2.83292,3.33542 -1.92992,-0.0362 -0.88522,2.34695 -2.63297,2.50916 -2.40738,0.29379 0.6244,1.69437 1.42652,0.28846 1.8471,-2.15837 4.86587,-0.56764 7.23142,-1.03715 1.56785,-1.93407 5.04736,-2.73617 6.55599,-0.30706 1.40653,0.5523 3.1615,0.39292 4.44057,1.45036 1.16227,1.54015 3.22553,1.55265 4.97017,1.91891 1.60458,0.3701 3.00061,-2.28964 4.31657,-0.5771 1.61865,0.41001 3.09357,0.83905 0.50536,1.0962 -1.45941,-0.99187 -2.51844,0.017 -3.6189,0.72227 -1.5906,-0.30991 -3.21898,-1.10682 -4.87288,-0.32813 -1.10852,1.50228 -2.41424,-0.32874 -3.71305,-0.30514 -1.93708,-0.4535 -2.0779,1.91816 -1.46429,3.18909 1.22229,1.25175 0.15016,2.60199 0.0901,4.03327 -0.37144,1.53979 1.60688,3.04312 2.66074,1.52792 1.43452,-1.33292 3.63696,1.03807 2.43343,2.41846 -1.35562,1.24187 0.3275,3.02149 1.79748,2.77043 1.28805,-0.56452 2.60134,-0.33679 3.77545,0.30132 1.71215,0.2353 1.01596,2.47159 -0.1345,2.91991 -0.88082,-1.11706 -2.11789,-1.22119 -3.4412,-0.97924 -0.23784,0.75549 -1.51514,3.7411 -1.60489,1.91404 0.92281,-1.79044 -1.4546,-1.60048 -2.18009,-2.37133 -0.31565,-1.85739 -2.30679,-0.64651 -2.92248,0.33529 -2.14486,0.96409 -3.2832,3.47406 -5.63129,4.16405 -0.82811,0.52092 -3.56191,0.53911 -2.47827,1.96746 1.91574,0.0648 3.65101,0.88879 4.72379,2.49753 1.92781,1.91876 1.63913,4.67989 1.0919,7.10283 0.67438,1.47818 2.24035,-0.97985 1.72966,-1.92167 -1.59601,-1.32557 0.96634,-2.88945 1.01854,-0.75108 1.36768,0.87238 3.47845,1.34016 3.94905,3.13977 0.26573,1.31624 1.9536,2.09458 1.22707,3.68196 -0.81112,2.31748 -3.72194,1.94772 -5.66488,1.5675 -2.04918,0.2277 -2.22958,-2.37502 -3.95543,-2.73237 -1.05206,-0.55285 -3.65697,-0.47451 -3.02121,1.28058 1.50462,0.77007 3.14418,1.1919 4.6035,2.06657 1.92787,1.49197 4.45825,1.85542 6.50867,3.01452 0.76482,1.1032 3.72996,2.00622 3.5011,-0.0889 -0.86978,-1.57977 0.68317,-2.91188 2.25105,-2.61105 2.59918,0.57836 5.96569,0.77004 7.34828,3.4328 0.29846,1.95694 2.45937,2.03707 3.58237,3.28743 1.47492,1.98679 4.36291,1.49784 6.04289,0.006 1.01957,-1.24097 2.0801,-2.59861 3.88446,-2.5231 1.32675,-0.30381 1.75321,-2.03621 3.38665,-1.9604 1.9683,0.028 1.48874,-2.37208 2.77625,-3.23803 0.0862,-1.30914 0.46061,-2.72977 1.87169,-3.18271 1.21757,-0.3707 3.02828,-1.5763 4.08612,-0.24991 1.81414,-0.27834 3.64077,-0.2376 5.46808,-0.1779 1.87943,0.19186 3.56589,-0.52502 5.17344,-1.41222 2.29257,-0.57151 4.94244,-0.3817 6.69019,1.37539 1.40481,0.55086 3.04722,0.55837 3.33609,2.33194 0.9872,0.71657 3.44757,1.51844 3.9066,-0.1137 2.49867,1.29809 5.54492,1.78585 7.47999,4.05092 2.07233,1.86979 3.91426,3.97792 5.39894,6.36978 1.66546,2.4421 4.54146,3.35089 7.1286,4.44811 1.08672,0.72675 3.51011,0.21698 3.88933,1.13969 -1.95217,0.80903 -4.16029,0.21656 -6.19504,0.0659 -2.021,-0.0253 -3.87774,-1.0181 -4.77786,-2.86993 -1.19739,-2.90014 -5.0269,-1.56714 -7.00898,-3.51617 -1.80081,-0.60311 -3.331,-1.77295 -4.39718,-3.30021 -1.88822,-1.66243 1.44805,-1.43533 1.64877,-1.19663 -1.03749,-1.48766 -2.80093,-2.67866 -4.64737,-2.78398 0.5439,0.98467 1.17528,2.66013 -1.01417,1.84661 -1.21838,-1.12559 -2.83129,-0.90217 -4.34003,-0.83035 -1.59029,0.0516 -2.62906,-0.96939 -3.63083,-2.03213 -0.80181,-1.68039 -2.49541,-0.81564 -3.26559,0.35627 -2.75851,1.64146 -6.15754,1.34995 -9.25382,1.75571 -1.70659,-0.29108 -3.01913,0.79809 -4.59416,1.15762 -2.53166,0.80482 -0.71709,4.01721 -1.8693,5.78116 -1.59631,2.00253 1.20698,3.60795 1.62035,5.50509 0.32805,2.35157 0.0364,4.97067 -0.68221,7.27396 -0.54039,2.06671 -2.90606,1.39207 -4.44648,1.5243 -2.43518,0.20589 -3.14515,3.15259 -5.40656,3.7433 1.12513,0.70934 2.7715,0.66161 3.63654,2.1257 1.75479,-0.3932 3.60393,-0.3591 5.30384,0.20785 1.82643,1.31871 3.97668,1.4455 6.15612,1.34544 1.82574,0.44394 3.37353,1.77645 5.2095,2.24866 2.70568,0.80629 4.2054,3.30839 6.31503,4.96749 1.88817,1.69565 2.98367,3.90535 4.00933,6.173 1.06076,1.15816 0.67857,2.81186 -0.93785,3.09427 -2.00686,0.46189 -1.88706,2.9258 -3.44978,3.99932 -0.40868,2.2221 -1.50255,4.33672 -1.21943,6.68066 -0.0187,2.54607 -2.94129,2.98962 -4.85656,3.5218 -1.94653,0.41927 -2.10952,2.5283 -3.14168,3.91786 -0.95909,1.0744 0.96012,2.66246 -1.0919,3.13499 -1.70607,-0.18218 -2.60784,1.22181 -2.96654,2.68612 0.58335,2.95795 -0.24115,5.98144 0.2337,8.93991 1.09627,4.27664 4.97556,7.00172 8.43006,9.34654 2.20356,1.38292 4.41431,2.80527 6.35453,4.58938 2.31443,2.47804 4.42997,5.43928 5.01749,8.83517 0.25149,2.34067 2.85063,2.26749 4.60664,2.62992 2.88001,1.27114 2.94592,4.73959 4.40395,6.99419 0.64571,2.58539 4.36065,2.44355 4.66569,5.13098 0.22033,2.02526 1.80261,3.65236 1.75848,5.71582 -0.22732,2.06724 3.53114,0.11859 2.6448,1.77935 -0.29997,0.27839 -0.48263,0.51734 -0.58205,0.82805" inkscape:connector-curvature="0" transform="matrix(1.9998287,-0.0261792,0.0261792,1.9998287,-421.12568,-668.8868)" sodipodi:nodetypes="cccccccccccccccccccccccccccccccccccccccccccccccccccccccccccccccccccccccccccccccccccccccccccccccccccccccccccccccccccccccccccccccccccccccccccccccccccccccccccccccccccccccccccccccccccccccccccccccccccccccccccccccccccccccccccccccccccccccccccccccccccccccccccccccccccccccccccccccccccccccccccccccccccccccccccccccccccccccccccccccccccccccccccccccccccccccccccccccccccccccccccccccccccccccccccccccccccccccccccccccccccccccccccccccccccccccccccccccccccccccccccccccccccccccccccccccccccccccccccccccccccccccccccccccccccccccccccccccccccccccccccccccccccccccccccccccccccccccccccccccccccccccccccccccccccccccccccccccccccccccccccccccccccccccccccccccccccccccccccccccccccccccccccccccccccccccccccccc" />
  </g>
  <g style="display:inline" inkscape:label="Rivers" id="Lakes" inkscape:groupmode="layer" transform="translate(333.42796,-274.69203)">
    <path id="path3491" transform="matrix(1.9998287,-0.0261792,0.0261792,1.9998287,-421.12568,-668.8868)" style="fill:none;stroke:#0978ab;stroke-width:0.5;stroke-linecap:round;stroke-miterlimit:4;stroke-dasharray:none;display:inline" d="m 566.05363,795.66893 c -3.69903,2.83411 -8.07491,-0.51452 -11.3441,-2.45848 -1.62018,-0.99567 -3.46776,-1.57021 -4.89568,-2.87542 M 519.87246,637.53572 c 2.62701,4.25978 1.63936,8.78527 2.86832,13.3529 0.80993,5.43728 -5.94162,4.90847 -9.36415,5.5265 -5.20302,1.47976 -9.9868,3.87433 -13.54573,7.91988 -2.92709,-3.2577 -6.70047,-2.40061 -10.06818,-0.78775 -2.68077,-2.08254 -3.65117,2.59783 -6.2724,-0.24918 -4.21003,0.52538 -6.93119,-1.93072 -10.82417,-1.87953 -2.99179,-0.67851 -5.51976,-3.92103 -7.77861,-0.88141 -1.83142,-0.98739 -4.20159,-3.74499 -4.41911,0.20496 -3.68844,3.56591 -9.33118,1.289 -13.85473,2.92235 -6.30519,0.57319 -4.49829,8.22506 -7.53578,11.96796 0.86134,3.35754 -3.22753,6.93483 2.29912,7.5243 0.69591,3.51699 1.58053,7.42104 -0.10923,10.9048 0.81308,1.68956 0.71462,2.60727 -1.15723,3.30617 1.40111,2.53582 0.85554,4.16274 -1.93543,5.07406 0.72584,4.00203 0.79005,9.10262 -4.21579,10.17611 -1.43077,2.48008 -4.94187,2.99177 -3.33954,6.46778 -0.51473,2.53966 -0.51733,6.17469 2.99114,4.61932 1.19032,2.51372 -4.12332,4.61114 -1.91732,7.84211 -0.3647,3.11326 -4.15331,2.91357 -6.21501,5.08434 -4.83062,0.33263 -7.90644,6.21334 -12.32459,3.38797 -3.45559,0.91162 -6.5223,1.93757 -8.8851,4.60249 -3.19148,-0.50515 -4.60413,4.33454 -2.37397,5.65132 -2.38294,0.7778 0.96914,3.78462 -2.14109,4.50991 -0.18586,5.31242 -5.70669,-0.54111 -8.94412,1.57814 -4.40273,-1.30801 -8.35338,1.56062 -12.70803,1.31034 -0.15012,3.15247 -4.37957,4.42535 -2.80144,8.21456 -1.44066,5.05473 -5.56587,0.56077 -7.52103,5.16663 m -1e-5,-2e-5 -0.57084,0.52002 M 347.55297,628.44456 c 3.22535,3.05965 8.04218,-1.06068 10.62479,3.38821 2.46317,4.13019 6.66913,6.74498 11.63656,6.69557 3.12537,-2.00671 6.18235,-3.06189 9.51232,-0.69495 5.26833,0.2256 12.40923,1.70682 15.17484,-4.2434 -0.11994,-6.3983 6.84698,-4.68316 10.37267,-6.08425 -1.05254,-4.56332 3.60125,-7.50705 6.53478,-10.40913 2.88407,-3.3797 -2.42174,-6.97393 -1.43019,-11.01141 -4.60989,-1.70942 -0.71116,-7.13037 1.5852,-8.87388 -0.39992,-2.80706 2.81923,-3.24309 3.04183,-5.77472 M 589.6371,785.19256 c -4.75535,0.30155 -10.21683,0.35289 -12.47511,5.32796 -3.42566,2.91738 -7.9057,5.54299 -12.60096,5.08809 -5.11647,-1.65172 -9.68969,-5.22876 -15.27839,-5.21485 -5.00811,-3.61187 -9.57016,0.33024 -13.51417,2.77351 -4.28298,1.39342 -8.61869,1.78914 -13.13033,1.24873 -5.58139,-1.20924 -10.7384,0.34597 -15.09399,3.75143 -4.72972,1.32729 -10.65427,0.57149 -14.08982,4.78319 -2.15446,4.95694 -8.42144,5.41151 -11.18214,9.61841 -2.13886,2.85475 -6.06503,3.48048 -7.14684,7.55969 -2.60547,3.36492 -7.2377,2.67077 -10.70636,4.13719 -3.40302,2.93453 -8.36975,2.69477 -12.53486,2.09573 -2.58052,-0.92942 -4.96871,-2.49782 -7.82169,-2.41193" inkscape:connector-curvature="0" sodipodi:nodetypes="cccccccccccccccccccccccccccccccccccccccccccccccccccccccc" />
  </g>
  <g inkscape:groupmode="layer" id="layer3" inkscape:label="symbols" style="display:inline" transform="translate(368.07619,95.250199)">
    <path transform="matrix(1.4890177,0,0,1.4890177,-342.80345,-387.83746)" style="fill:#b00000;fill-opacity:1;fill-rule:evenodd;stroke:#b00000;display:inline" d="m 402.17043,535.56379 c -0.61684,3.1373 1.14408,7.1361 2.6875,9.9687 1.27857,2.3466 2.9147,4.3576 4.625,6.1876 -1.57277,1.519 -3.14676,2.7564 -4.59375,3.75 -0.20773,-0.3057 -0.44065,-0.6056 -0.71875,-0.9063 l -0.65625,0.7813 c 0.21659,0.2341 0.39952,0.4615 0.5625,0.6874 -3.04141,1.9694 -5.3125,2.7813 -5.3125,2.7813 l 0,0.0313 -0.0937,0.0312 c 0.33845,1.8529 1.23204,3.009 2.28125,3.4688 1.04921,0.4597 2.19198,0.2332 3.125,-0.4063 0.93302,-0.6395 1.68825,-1.7226 1.8125,-3.0625 0.0595,-0.6416 -0.0306,-1.333 -0.28125,-2.0312 1.53339,-1.0972 3.13291,-2.4403 4.6875,-4 0.0411,-0.0413 0.0839,-0.0836 0.125,-0.125 0.0411,0.0414 0.0839,0.0837 0.125,0.125 1.55459,1.5597 3.15411,2.9028 4.6875,4 -0.25063,0.6982 -0.34075,1.3896 -0.28125,2.0312 0.12426,1.3399 0.87948,2.423 1.8125,3.0625 0.93302,0.6395 2.07579,0.866 3.125,0.4063 1.0492,-0.4598 1.94281,-1.6159 2.28125,-3.4688 l -0.0937,-0.0312 0,-0.0313 c 0,0 -2.27171,-0.8125 -5.3125,-2.7813 0.16298,-0.2259 0.34591,-0.4533 0.5625,-0.6874 l -0.65625,-0.7813 c -0.2781,0.3007 -0.51102,0.6006 -0.71875,0.9063 -1.45042,-0.9951 -3.0164,-2.2266 -4.59375,-3.75 1.71031,-1.83 3.34643,-3.841 4.625,-6.1876 1.54343,-2.8326 3.30434,-6.8314 2.6875,-9.9687 -1.56587,6.6808 -4.81093,11.665 -8.25,15.25 -3.43907,-3.585 -6.68412,-8.5692 -8.25,-15.25 z m 2.625,21.8125 c 0.16007,0.4893 0.19506,0.9565 0.15625,1.375 -0.089,0.9597 -0.62786,1.7593 -1.34375,2.25 -0.71589,0.4907 -1.57438,0.6359 -2.3125,0.3125 -0.48158,-0.211 -0.91652,-0.6256 -1.25,-1.3125 1.24456,-0.4961 2.91085,-1.3828 4.75,-2.625 z m 11.25,0 c 1.83915,1.2422 3.50544,2.1289 4.75,2.625 -0.33348,0.6869 -0.76842,1.1015 -1.25,1.3125 -0.73812,0.3234 -1.59661,0.1782 -2.3125,-0.3125 -0.71589,-0.4907 -1.25475,-1.2903 -1.34375,-2.25 -0.0388,-0.4185 -0.004,-0.8857 0.15625,-1.375 z" id="path14901" inkscape:connector-curvature="0" />
    <use x="0" y="0" xlink:href="#path14901" id="use5259" transform="matrix(0.99991433,0.0130896,-0.0130896,0.99991433,227.18498,-299.31953)" width="736" height="624" style="fill:#b00000;stroke:#b00000" />
    <path transform="matrix(1.7869462,0,0,1.7869462,-680.72228,-479.83773)" id="path14975" style="fill:#0000b0;fill-rule:evenodd;stroke:#0000b0;stroke-width:1px;stroke-linecap:butt;stroke-linejoin:miter;stroke-opacity:1;display:inline" d="m 399.8324,523.07685 21.75,0 m -18.08118,-0.0339 14.29857,-0.0366 -18.54747,-10.3743 4.2489,10.4109 z m 8.09558,-2.2175 5.79701,-10.3639 m -3.78714,1.2475 4.70625,2.6324" inkscape:connector-curvature="0" />
    <path transform="matrix(2,0,0,2,-729.58766,-486.85737)" d="m 595.5,383.5 a 4.5,4.5 0 0 1 -4.5,4.5 4.5,4.5 0 0 1 -4.5,-4.5 4.5,4.5 0 0 1 4.5,-4.5 4.5,4.5 0 0 1 4.5,4.5 z" sodipodi:ry="4.5" sodipodi:rx="4.5" sodipodi:cy="383.5" sodipodi:cx="591" id="path3921" style="fill:#ffffff;fill-opacity:1;fill-rule:evenodd;stroke:#000000;stroke-width:1.5;stroke-linecap:butt;stroke-linejoin:miter;stroke-miterlimit:4;stroke-opacity:1;stroke-dasharray:none;stroke-dashoffset:0;display:inline" sodipodi:type="arc" />
    <use x="0" y="0" xlink:href="#path3921" id="use5275" transform="matrix(0.99991433,0.0130896,-0.0130896,0.99991433,-81.275917,151.91118)" width="736" height="624" />
    <path inkscape:connector-curvature="0" id="path3065" d="m 432.2025,916.5 0.80943,0.49776 -2.58416,4.19775 7.01844,11.39178 2.79028,0 0,1.09095 -20.67824,0 0,-1.09095 2.72995,0 7.01843,-11.39178 -2.58414,-4.19775 0.80943,-0.49776 2.3378,3.79062 2.33278,-3.79062 z m -2.33278,5.60039 -6.46541,10.4869 2.93607,0 3.3584,-5.03726 0.40221,0 3.34833,5.03726 2.88078,0 -6.46038,-10.4869 z m 0.0302,6.02269 -2.97629,4.4642 5.94757,0 -2.97128,-4.4642 z" style="color:#000000;fill:#000000;stroke:none;stroke-width:0.32175389;marker:none;visibility:visible;display:inline;overflow:visible;enable-background:accumulate" transform="matrix(2,0,0,2,-464.4089,-1706.1447)" />
    <path transform="matrix(2,0,0,2,-613.23526,-1703.1276)" inkscape:connector-curvature="0" style="color:#000000;fill:#000000;stroke:none;stroke-width:6;marker:none;visibility:visible;display:inline;overflow:visible;enable-background:accumulate" d="m 409.61978,916.33912 0.82185,0.50778 -2.63194,4.27322 7.11935,11.34659 2.77311,0 0.0101,0 -0.005,0.68372 0.005,0.68869 -0.0101,0 -20.97483,0 -0.0151,0 0.005,-0.68869 -0.005,-0.68372 0.0151,0 2.76807,0 7.11935,-11.34659 -2.63195,-4.27322 0.82186,-0.50778 0.0201,0.0299 0.0504,-0.0299 2.33949,3.80569 2.33445,-3.80569 0.0504,0.0299 0.0201,-0.0299 z m -2.40505,11.84932 -2.26386,3.20746 -0.75127,1.07081 6.03027,0 -3.01514,-4.27827 z" id="path3840" />
    <use x="0" y="0" xlink:href="#path3840" id="use5294" transform="matrix(0.99991433,0.0130896,-0.0130896,0.99991433,189.12585,-47.733546)" width="736" height="624" />
    <use height="624" width="736" transform="matrix(0.99991433,0.0130896,-0.0130896,0.99991433,176.44349,-77.336058)" id="use5296" xlink:href="#path3840" y="0" x="0" />
    <use x="0" y="0" xlink:href="#path3840" id="use5298" transform="matrix(0.99991433,0.0130896,-0.0130896,0.99991433,240.01674,-41.63571)" width="736" height="624" />
    <use height="624" width="736" transform="matrix(0.99991433,0.0130896,-0.0130896,0.99991433,309.19252,429.69091)" id="use5300" xlink:href="#path3840" y="0" x="0" />
    <use height="624" width="736" transform="matrix(0.99991433,0.0130896,-0.0130896,0.99991433,-381.1837,43.933676)" id="use5304" xlink:href="#path3065" y="0" x="0" />
    <use x="0" y="0" xlink:href="#path3065" id="use5306" transform="matrix(0.99991433,0.0130896,-0.0130896,0.99991433,-552.67416,52.340302)" width="736" height="624" />
    <use height="624" width="736" transform="matrix(0.99991433,0.0130896,-0.0130896,0.99991433,-503.92412,154.86782)" id="use5308" xlink:href="#path3065" y="0" x="0" />
    <use x="0" y="0" xlink:href="#path3065" id="use5310" transform="matrix(0.99991433,0.0130896,-0.0130896,0.99991433,-579.34376,166.93145)" width="736" height="624" />
    <use x="0" y="0" xlink:href="#path3921" id="use5314" transform="matrix(0.99991433,0.0130896,-0.0130896,0.99991433,-357.54796,-249.14875)" width="736" height="624" />
    <use x="0" y="0" xlink:href="#path3065" id="use5302" transform="matrix(0.99991433,0.0130896,-0.0130896,0.99991433,-302.83664,-144.79)" width="736" height="624" />
    <use height="624" width="736" transform="matrix(0.99991433,0.0130896,-0.0130896,0.99991433,-181.84642,-31.812742)" id="use5316" xlink:href="#path3065" y="0" x="0" />
    <g id="g5524" transform="matrix(1,1.7320508,-1.7320508,1,2.7574795,-354.58141)" style="fill:#b00000;fill-opacity:1;stroke:#b00000">
      <path transform="matrix(1.0213697,0,0,0.97933759,-2.2332501,2.9540679)" inkscape:connector-curvature="0" id="path5323" d="m 114.1423,142.46028 29.04682,0" style="fill:#b00000;fill-opacity:1;stroke:#b00000;stroke-width:1.99973428;stroke-linecap:butt;stroke-linejoin:miter;stroke-opacity:1" sodipodi:nodetypes="cc" />
      <path transform="matrix(-1.1233574,0,0,-1.0771282,144.89242,142.47078)" d="M 8.7185878,4.0337352 -2.2072895,0.01601326 8.7185884,-4.0017078 c -1.7454984,2.3720609 -1.7354408,5.6174519 -6e-7,8.035443 z" style="fill:#b00000;fill-opacity:1;fill-rule:evenodd;stroke:#b00000;stroke-width:0.625;stroke-linejoin:round" id="path5520" inkscape:connector-curvature="0" />
    </g>
    <use x="0" y="0" xlink:href="#g5524" id="use5528" transform="matrix(0.58711542,0.80950323,-0.80950323,0.58711542,196.19374,62.112238)" width="736" height="624" inkscape:transform-center-x="-68.160159" inkscape:transform-center-y="523.80625" />
    <use inkscape:transform-center-y="493.64245" inkscape:transform-center-x="-187.97284" height="624" width="736" transform="matrix(0.75909813,0.65097621,-0.65097621,0.75909813,322.3368,142.93493)" id="use5530" xlink:href="#g5524" y="0" x="0" />
    <use x="0" y="0" xlink:href="#g5524" id="use5532" transform="matrix(0.50723622,-0.86180706,0.86180706,0.50723622,26.968385,339.62322)" width="736" height="624" inkscape:transform-center-x="-452.86437" inkscape:transform-center-y="-271.952" />
    <use inkscape:transform-center-y="-520.78341" inkscape:transform-center-x="-88.336986" height="624" width="736" transform="matrix(-0.32410845,-0.94601993,0.94601993,-0.32410845,191.94506,378.91101)" id="use5536" xlink:href="#g5524" y="0" x="0" />
    <use x="0" y="0" xlink:href="#g5524" id="use5970" transform="matrix(0.72639291,-0.68727966,0.68727966,0.72639291,522.14513,498.29116)" width="736" height="624" inkscape:transform-center-x="-510.5148" inkscape:transform-center-y="-135.6141" />
    <use x="0" y="0" xlink:href="#g5524" id="use5984" transform="matrix(-0.01900735,-0.99981934,0.99981934,-0.01900735,313.05123,356.57353)" width="736" height="624" inkscape:transform-center-x="-243.49309" inkscape:transform-center-y="-468.75356" />
    <use inkscape:transform-center-y="-498.73891" inkscape:transform-center-x="174.00029" height="624" width="736" transform="matrix(-0.74046967,-0.67208976,0.67208976,-0.74046967,345.60667,269.46135)" id="use5992" xlink:href="#g5524" y="0" x="0" />
  </g>
  <g inkscape:groupmode="layer" id="layer4" inkscape:label="texte" style="display:inline" transform="translate(368.07619,95.250199)">
    <text xml:space="preserve" style="color:#000000;font-style:normal;font-variant:normal;font-weight:normal;font-stretch:normal;line-height:0%;font-family:'DejaVu Sans';-inkscape-font-specification:'DejaVu Sans';text-align:center;letter-spacing:0;word-spacing:0;writing-mode:lr-tb;text-anchor:middle;display:inline;overflow:visible;visibility:visible;fill:#000000;fill-opacity:1;fill-rule:nonzero;stroke:none;stroke-width:1;marker:none;enable-background:accumulate" x="123.23975" y="127.5" id="text5924" transform="matrix(2,0,0,2,-427.28356,-299.4762)">
      <tspan sodipodi:role="line" id="tspan5926" x="123.23975" y="127.5" style="font-size:14px;line-height:1">Île de Batz</tspan>
      <tspan sodipodi:role="line" x="123.23975" y="141.5" id="tspan5928" style="font-style:oblique;font-size:14px;line-height:1;-inkscape-font-specification:'DejaVu Sans Oblique'">880</tspan>
    </text>
    <text transform="matrix(2,0,0,2,-69.738862,-321.6785)" id="text5930" y="127.5" x="123.23975" style="color:#000000;font-style:normal;font-variant:normal;font-weight:normal;font-stretch:normal;line-height:0%;font-family:'DejaVu Sans';-inkscape-font-specification:'DejaVu Sans';text-align:center;letter-spacing:0;word-spacing:0;writing-mode:lr-tb;text-anchor:middle;display:inline;overflow:visible;visibility:visible;fill:#000000;fill-opacity:1;fill-rule:nonzero;stroke:none;stroke-width:1;marker:none;enable-background:accumulate" xml:space="preserve">
      <tspan y="127.5" x="123.23975" id="tspan5932" sodipodi:role="line" style="font-size:14px;line-height:1">Tréguier</tspan>
      <tspan id="tspan5934" y="141.5" x="123.23975" sodipodi:role="line" style="font-style:oblique;font-size:14px;line-height:1;-inkscape-font-specification:'DejaVu Sans Oblique'">880</tspan>
    </text>
    <text xml:space="preserve" style="color:#000000;font-style:normal;font-variant:normal;font-weight:normal;font-stretch:normal;font-size:24px;line-height:0%;font-family:'DejaVu Sans';-inkscape-font-specification:'DejaVu Sans';text-align:center;letter-spacing:0;word-spacing:0;writing-mode:lr-tb;text-anchor:middle;display:inline;overflow:visible;visibility:visible;fill:#000000;fill-opacity:1;fill-rule:nonzero;stroke:none;stroke-width:2;marker:none;enable-background:accumulate" x="-219.19368" y="167.90977" id="text5936">
      <tspan sodipodi:role="line" id="tspan5938" x="-219.19368" y="167.90977" style="font-size:28px;line-height:1;stroke-width:2">Landévennec</tspan>
      <tspan sodipodi:role="line" x="-219.19368" y="195.90977" id="tspan5940" style="font-style:oblique;font-size:28px;line-height:1;-inkscape-font-specification:'DejaVu Sans Oblique';stroke-width:2">913</tspan>
    </text>
    <text transform="matrix(2,0,0,2,-516.88201,98.233703)" id="text5942" y="127.5" x="123.23975" style="color:#000000;font-style:normal;font-variant:normal;font-weight:normal;font-stretch:normal;line-height:0%;font-family:'DejaVu Sans';-inkscape-font-specification:'DejaVu Sans';text-align:center;letter-spacing:0;word-spacing:0;writing-mode:lr-tb;text-anchor:middle;display:inline;overflow:visible;visibility:visible;fill:#000000;fill-opacity:1;fill-rule:nonzero;stroke:none;stroke-width:1;marker:none;enable-background:accumulate" xml:space="preserve">
      <tspan id="tspan5946" y="127.5" x="123.23975" sodipodi:role="line" style="font-size:14px;line-height:1">Plozévet</tspan>
    </text>
    <text xml:space="preserve" style="color:#000000;font-style:normal;font-variant:normal;font-weight:normal;font-stretch:normal;font-size:24px;line-height:0%;font-family:'DejaVu Sans';-inkscape-font-specification:'DejaVu Sans';text-align:center;letter-spacing:0;word-spacing:0;writing-mode:lr-tb;text-anchor:middle;display:inline;overflow:visible;visibility:visible;fill:#000000;fill-opacity:1;fill-rule:nonzero;stroke:none;stroke-width:2;marker:none;enable-background:accumulate" x="-4.1741481" y="313.09149" id="text5950">
      <tspan sodipodi:role="line" x="-4.1741481" y="313.09149" id="tspan5952" style="font-size:28px;line-height:1;stroke-width:2">Île aux Rats</tspan>
      <tspan sodipodi:role="line" x="-4.1741481" y="338.05243" id="tspan5954" style="font-style:oblique;font-size:24px;line-height:1;-inkscape-font-specification:'DejaVu Sans Oblique';stroke-width:2">(Quimper)</tspan>
    </text>
    <text transform="matrix(2,0,0,2,-362.35089,199.73262)" id="text5958" y="127.5" x="123.23975" style="color:#000000;font-style:normal;font-variant:normal;font-weight:normal;font-stretch:normal;line-height:0%;font-family:'DejaVu Sans';-inkscape-font-specification:'DejaVu Sans';text-align:center;letter-spacing:0;word-spacing:0;writing-mode:lr-tb;text-anchor:middle;display:inline;overflow:visible;visibility:visible;fill:#000000;fill-opacity:1;fill-rule:nonzero;stroke:none;stroke-width:1;marker:none;enable-background:accumulate" xml:space="preserve">
      <tspan y="127.5" x="123.23975" id="tspan5960" sodipodi:role="line" style="font-size:14px;line-height:1">Groix</tspan>
      <tspan id="tspan5962" y="141.5" x="123.23975" sodipodi:role="line" style="font-style:oblique;font-size:14px;line-height:1;-inkscape-font-specification:'DejaVu Sans Oblique'">920</tspan>
    </text>
    <text xml:space="preserve" style="color:#000000;font-style:normal;font-variant:normal;font-weight:normal;font-stretch:normal;line-height:0%;font-family:'DejaVu Sans';-inkscape-font-specification:'DejaVu Sans';text-align:center;letter-spacing:0;word-spacing:0;writing-mode:lr-tb;text-anchor:middle;display:inline;overflow:visible;visibility:visible;fill:#000000;fill-opacity:1;fill-rule:nonzero;stroke:none;stroke-width:1;marker:none;enable-background:accumulate" x="123.23975" y="127.5" id="text5964" transform="matrix(2,0,0,2,24.60514,117.65892)">
      <tspan sodipodi:role="line" id="tspan5966" x="123.23975" y="127.5" style="font-size:14px;line-height:1">Questembert</tspan>
      <tspan style="font-style:oblique;font-size:14px;line-height:1;-inkscape-font-specification:'DejaVu Sans Oblique'" sodipodi:role="line" x="123.23975" y="141.5" id="tspan5968">888</tspan>
    </text>
    <text transform="matrix(2,0,0,2,388.1876,314.48074)" id="text5972" y="127.5" x="123.23975" style="color:#000000;font-style:normal;font-variant:normal;font-weight:normal;font-stretch:normal;line-height:0%;font-family:'DejaVu Sans';-inkscape-font-specification:'DejaVu Sans, Normal';text-align:center;letter-spacing:0;word-spacing:0;writing-mode:lr-tb;text-anchor:middle;display:inline;overflow:visible;visibility:visible;fill:#000000;fill-opacity:1;fill-rule:nonzero;stroke:none;stroke-width:1;marker:none;enable-background:accumulate" xml:space="preserve">
      <tspan sodipodi:role="line" id="tspan3534" x="123.23975" y="127.5" style="font-size:14px;line-height:1">Nantes</tspan>
      <tspan sodipodi:role="line" id="tspan3536" x="125.46827" y="141.5" style="font-size:14px;line-height:1"></tspan>
    </text>
    <text transform="matrix(2,0,0,2,186.94738,201.81464)" id="text5978" y="127.5" x="123.23975" style="color:#000000;font-style:normal;font-variant:normal;font-weight:normal;font-stretch:normal;line-height:0%;font-family:'DejaVu Sans';-inkscape-font-specification:'DejaVu Sans';text-align:center;letter-spacing:0;word-spacing:0;writing-mode:lr-tb;text-anchor:middle;display:inline;overflow:visible;visibility:visible;fill:#000000;fill-opacity:1;fill-rule:nonzero;stroke:none;stroke-width:1;marker:none;enable-background:accumulate" xml:space="preserve">
      <tspan y="127.5" x="123.23975" id="tspan5980" sodipodi:role="line" style="font-size:14px;line-height:1">Redon</tspan>
      <tspan id="tspan5982" y="141.5" x="123.23975" sodipodi:role="line" style="font-style:oblique;font-size:14px;line-height:1;-inkscape-font-specification:'DejaVu Sans Oblique'">868-869</tspan>
    </text>
    <text xml:space="preserve" style="color:#000000;font-style:normal;font-variant:normal;font-weight:normal;font-stretch:normal;font-size:24px;line-height:0%;font-family:'DejaVu Sans';-inkscape-font-specification:'DejaVu Sans';text-align:center;letter-spacing:0;word-spacing:0;writing-mode:lr-tb;text-anchor:middle;display:inline;overflow:visible;visibility:visible;fill:#000000;fill-opacity:1;fill-rule:nonzero;stroke:none;stroke-width:2;marker:none;enable-background:accumulate" x="520.36151" y="310.13727" id="text5986">
      <tspan sodipodi:role="line" id="tspan5988" x="520.36151" y="310.13727" style="font-size:28px;line-height:1;stroke-width:2">Rennes</tspan>
      <tspan style="font-style:oblique;font-size:28px;line-height:1;-inkscape-font-specification:'DejaVu Sans Oblique';stroke-width:2" sodipodi:role="line" x="520.36151" y="338.13727" id="tspan5990">875-920</tspan>
    </text>
    <text transform="matrix(2,0,0,2,-105.64552,-162.78941)" id="text5994" y="127.5" x="123.23975" style="color:#000000;font-style:normal;font-variant:normal;font-weight:normal;font-stretch:normal;line-height:0%;font-family:'DejaVu Sans';-inkscape-font-specification:'DejaVu Sans';text-align:center;letter-spacing:0;word-spacing:0;writing-mode:lr-tb;text-anchor:middle;display:inline;overflow:visible;visibility:visible;fill:#000000;fill-opacity:1;fill-rule:nonzero;stroke:none;stroke-width:1;marker:none;enable-background:accumulate" xml:space="preserve">
      <tspan id="tspan5998" y="127.5" x="125.46827" sodipodi:role="line" style="font-style:normal;font-size:14px;line-height:1;-inkscape-font-specification:'DejaVu Sans'">Tour de </tspan>
      <tspan y="141.5" x="123.23975" sodipodi:role="line" style="font-style:normal;font-size:14px;line-height:1;-inkscape-font-specification:'DejaVu Sans'" id="tspan6046">Cesson</tspan>
    </text>
    <text xml:space="preserve" style="color:#000000;font-style:normal;font-variant:normal;font-weight:normal;font-stretch:normal;line-height:0%;font-family:'DejaVu Sans';-inkscape-font-specification:'DejaVu Sans';text-align:center;letter-spacing:0;word-spacing:0;writing-mode:lr-tb;text-anchor:middle;display:inline;overflow:visible;visibility:visible;fill:#000000;fill-opacity:1;fill-rule:nonzero;stroke:none;stroke-width:1;marker:none;enable-background:accumulate" x="123.23975" y="127.5" id="text6002" transform="matrix(2,0,0,2,-48.70398,-61.339117)">
      <tspan sodipodi:role="line" x="123.23975" y="127.5" id="tspan6004" style="font-size:14px;line-height:1">Péran</tspan>
    </text>
    <text transform="matrix(2,0,0,2,141.62598,-56.750437)" id="text6006" y="127.5" x="123.23975" style="color:#000000;font-style:normal;font-variant:normal;font-weight:normal;font-stretch:normal;line-height:0%;font-family:'DejaVu Sans';-inkscape-font-specification:'DejaVu Sans';text-align:center;letter-spacing:0;word-spacing:0;writing-mode:lr-tb;text-anchor:middle;display:inline;overflow:visible;visibility:visible;fill:#000000;fill-opacity:1;fill-rule:nonzero;stroke:none;stroke-width:1;marker:none;enable-background:accumulate" xml:space="preserve">
      <tspan id="tspan6008" y="127.5" x="123.23975" sodipodi:role="line" style="font-size:14px;line-height:1">Coëtquen</tspan>
    </text>
    <text xml:space="preserve" style="color:#000000;font-style:normal;font-variant:normal;font-weight:normal;font-stretch:normal;line-height:0%;font-family:'DejaVu Sans';-inkscape-font-specification:'DejaVu Sans';text-align:center;letter-spacing:0;word-spacing:0;writing-mode:lr-tb;text-anchor:middle;display:inline;overflow:visible;visibility:visible;fill:#000000;fill-opacity:1;fill-rule:nonzero;stroke:none;stroke-width:1;marker:none;enable-background:accumulate" x="123.23975" y="127.5" id="text6010" transform="matrix(2,0,0,2,116.12074,-239.25491)">
      <tspan style="font-style:normal;font-size:14px;line-height:1;-inkscape-font-specification:'DejaVu Sans'" sodipodi:role="line" x="125.46827" y="127.5" id="tspan6012">Tour </tspan>
      <tspan style="font-style:normal;font-size:14px;line-height:1;-inkscape-font-specification:'DejaVu Sans'" sodipodi:role="line" x="123.23975" y="141.5" id="tspan6014">Solidor</tspan>
    </text>
    <text id="text6016" y="125.16201" x="319.59958" style="color:#000000;font-style:normal;font-variant:normal;font-weight:normal;font-stretch:normal;font-size:24px;line-height:0%;font-family:'DejaVu Sans';-inkscape-font-specification:'DejaVu Sans';text-align:center;letter-spacing:0;word-spacing:0;writing-mode:lr-tb;text-anchor:middle;display:inline;overflow:visible;visibility:visible;fill:#000000;fill-opacity:1;fill-rule:nonzero;stroke:none;stroke-width:2;marker:none;enable-background:accumulate" xml:space="preserve">
      <tspan y="125.16201" x="324.05661" sodipodi:role="line" style="font-style:normal;font-size:28px;line-height:1;-inkscape-font-specification:'DejaVu Sans';stroke-width:2" id="tspan6024">Saint </tspan>
      <tspan y="153.162" x="319.59958" sodipodi:role="line" style="font-style:normal;font-size:28px;line-height:1;-inkscape-font-specification:'DejaVu Sans';stroke-width:2" id="tspan989">Suliac</tspan>
    </text>
    <text xml:space="preserve" style="color:#000000;font-style:oblique;font-variant:normal;font-weight:normal;font-stretch:normal;line-height:0%;font-family:'DejaVu Sans';-inkscape-font-specification:'DejaVu Sans Oblique';text-align:center;letter-spacing:0;word-spacing:0;writing-mode:lr-tb;text-anchor:middle;display:inline;overflow:visible;visibility:visible;fill:#000000;fill-opacity:1;fill-rule:nonzero;stroke:none;stroke-width:1;marker:none;enable-background:accumulate" x="123.23975" y="127.5" id="text6026" transform="matrix(2,0,0,2,371.68606,-108.23586)">
      <tspan id="tspan6030" style="font-style:oblique;font-size:14px;line-height:1;-inkscape-font-specification:'DejaVu Sans Oblique'" sodipodi:role="line" x="123.23975" y="127.5">Trans-la-forêt</tspan>
      <tspan style="font-style:oblique;font-size:14px;line-height:1;-inkscape-font-specification:'DejaVu Sans Oblique'" sodipodi:role="line" x="123.23975" y="141.5" id="tspan6034">939</tspan>
    </text>
    <text xml:space="preserve" style="color:#000000;font-style:normal;font-variant:normal;font-weight:normal;font-stretch:normal;font-size:24px;line-height:0%;font-family:'DejaVu Sans';-inkscape-font-specification:'DejaVu Sans';text-align:center;letter-spacing:0;word-spacing:0;writing-mode:lr-tb;text-anchor:middle;display:inline;overflow:visible;visibility:visible;fill:#000000;fill-opacity:1;fill-rule:nonzero;stroke:none;stroke-width:2;marker:none;enable-background:accumulate" x="567.42047" y="99.131523" id="text6036">
      <tspan style="font-style:normal;font-size:28px;line-height:1;-inkscape-font-specification:'DejaVu Sans';stroke-width:2" sodipodi:role="line" x="567.42047" y="99.131523" id="tspan6044">Dol de Bretagne</tspan>
    </text>
    <text xml:space="preserve" style="color:#000000;font-style:oblique;font-variant:normal;font-weight:normal;font-stretch:normal;line-height:0%;font-family:'DejaVu Sans';-inkscape-font-specification:'DejaVu Sans, Oblique';text-align:center;letter-spacing:0;word-spacing:0;writing-mode:lr-tb;text-anchor:middle;display:inline;overflow:visible;visibility:visible;fill:#000000;fill-opacity:1;fill-rule:nonzero;stroke:none;stroke-width:1;marker:none;enable-background:accumulate" x="634.66711" y="569.48071" id="text3520">
      <tspan sodipodi:role="line" id="tspan3528" x="639.12415" y="569.48071" style="font-size:28px;line-height:1"></tspan>
      <tspan sodipodi:role="line" id="tspan3530" x="634.66711" y="597.48071" style="font-size:28px;line-height:1">843-921-</tspan>
      <tspan sodipodi:role="line" id="tspan3532" x="634.66711" y="625.48071" style="font-size:28px;line-height:1">927-936</tspan>
    </text>
  </g>
</svg>